<svg width="97" height="200" viewBox="0 0 97 200" fill="none" xmlns="http://www.w3.org/2000/svg">
<path d="M1.03533 37.1299C1.58379 38.3369 3.22914 38.7758 4.32605 39.2147C7.39739 40.312 10.4687 41.4093 13.6497 42.0677C16.8308 42.7261 20.0118 42.8358 23.1928 43.0553C23.851 43.6039 24.7285 44.5915 24.9479 44.9207C25.7157 45.9083 26.3738 46.8958 26.7029 48.1029C27.4708 50.4072 28.2386 52.7115 29.2258 54.9061C29.4452 55.345 29.5549 55.784 29.7743 56.2229C29.3355 56.8813 29.9936 58.5272 30.213 58.9661C30.6518 60.1732 31.5293 61.1607 31.639 62.258C31.7487 63.4651 32.4068 64.2332 32.7359 65.3305C32.9553 65.8791 32.9553 66.5375 33.065 67.0862C33.065 67.6348 33.394 68.4029 33.2844 68.8418C33.065 69.5002 32.6262 69.8294 32.7359 70.5975C32.7359 70.817 32.8456 71.1462 32.9553 71.4753C32.4068 71.6948 31.8584 71.9143 31.639 72.6824C31.4196 73.3408 31.7487 74.7673 31.3099 75.3159C31.0905 75.5354 30.6518 75.5354 30.4324 75.8645C30.213 76.084 30.1033 76.5229 29.8839 76.7424C29.3355 77.4008 28.787 77.1813 28.458 78.0591C28.2386 78.6078 28.1289 79.2662 28.1289 79.8148C27.4708 80.3635 26.7029 80.9121 26.1545 81.4608C25.3866 82.2289 24.7285 83.2165 24.0703 84.0943C23.4122 84.9721 23.0831 86.0694 22.5347 87.057C22.0959 87.9348 21.3281 88.3738 20.8893 89.1419C20.4506 89.8003 20.0118 91.4462 20.999 91.8851C20.3409 93.3116 19.9021 95.0673 19.4633 96.0549C18.1471 99.6759 18.8052 104.175 19.573 107.906C20.0118 109.881 20.2312 111.527 20.4506 113.612C20.5603 114.709 21.1087 115.806 21.4378 117.013C19.573 117.452 20.4506 122.28 20.8893 123.487C21.3281 124.804 21.3281 126.231 21.6572 127.547C21.9862 128.864 22.5347 129.193 23.4122 129.303C23.9607 133.034 24.3994 136.655 24.2897 140.495C24.18 144.885 23.3025 148.835 23.1928 153.114C22.8638 161.454 26.1545 170.123 27.7998 178.133C28.458 180.986 29.6646 184.607 30.1033 187.899C28.8967 189.106 29.2258 190.971 29.0064 192.617C28.787 194.592 27.5804 197.445 29.4452 198.982C30.7615 200.079 33.9425 199.64 35.4782 199.201C37.3429 198.652 38.1107 197.555 38.1107 196.019C40.9627 195.909 44.9116 195.141 42.7177 191.959C41.9499 190.752 40.3046 190.203 39.427 188.886C38.5495 187.679 38.1107 185.814 36.6848 185.375C35.6975 182.412 35.5879 178.791 35.4782 176.158C35.0394 167.489 35.0394 159.15 35.9169 150.481C36.3557 146.201 35.8072 141.812 37.2332 137.533C38.4398 133.802 39.427 130.949 38.8786 127.218C39.7561 126.56 39.8658 125.353 39.6464 123.597C39.427 122.061 40.4142 117.452 38.3301 117.233C38.7689 114.928 39.5367 112.624 39.6464 110.759C42.9371 113.392 47.1054 114.928 50.6155 117.013C50.7252 118.879 51.3833 119.537 53.7965 120.744C55.2225 121.512 57.3066 122.61 58.8423 121.951C59.7198 122.61 60.5973 123.158 61.2554 123.487C64.4365 125.024 67.3981 127.218 70.1404 129.413C71.676 130.73 74.0892 132.375 75.8443 134.241C75.2958 135.997 74.1989 137.752 73.8699 139.508C73.2117 142.361 72.7729 145.324 72.4439 148.286C71.8954 154.212 72.4439 160.137 72.5536 165.953C72.5536 167.928 72.6633 170.671 72.1148 172.976C71.0179 173.195 70.1404 174.292 68.9338 174.731C67.069 175.39 65.7528 175.06 64.9849 177.255C63.6686 181.096 66.0818 184.387 68.495 187.021C69.0435 187.57 69.4822 188.009 70.0307 188.447C70.5791 190.642 71.2373 192.727 72.6633 194.592C74.1989 196.677 75.954 198.872 78.4769 199.64C82.316 200.847 82.9742 198.872 81.3288 195.909C79.5738 192.837 80.2319 190.642 80.9997 187.35C81.6579 184.497 81.7676 182.303 80.8901 179.669C81.1094 177.365 80.7804 174.512 80.8901 172.976C81.4385 166.831 82.6451 160.686 83.5226 154.651C83.9614 151.578 85.0583 148.616 85.9358 145.543C86.7037 142.91 87.0327 140.495 87.2521 137.752C88.6781 135.997 89.3362 132.924 89.3362 130.839C89.3362 127.657 87.6909 125.682 86.1552 123.158C84.7292 120.854 83.4129 118.44 81.5482 116.465C78.5866 113.173 74.8571 110.539 71.5664 107.467C71.6761 106.808 71.347 106.04 70.6888 105.162C69.8113 103.955 68.9338 102.2 67.5078 101.651C66.5206 101.322 65.7528 101.541 64.7655 100.883C63.9977 100.444 63.5589 99.7857 62.9008 99.237C61.6942 98.2495 60.5973 97.1522 59.3907 96.0549C59.1713 95.6159 59.0616 95.0673 58.9519 94.6284C58.9519 92.1046 59.6101 89.6905 59.8295 87.2765C59.9392 86.0694 60.2682 84.7527 60.2682 83.5456C60.2682 82.997 60.3779 81.6802 60.2682 80.8024C60.8167 79.8148 61.0361 78.6078 61.0361 77.6202C60.9264 76.1937 60.5973 74.7673 60.707 73.3408C60.8167 71.8045 60.8167 70.2683 61.0361 68.8418C61.2554 67.4153 61.2554 65.8791 61.5845 64.4526C61.6942 63.6845 62.0233 63.0261 62.133 62.258C62.2427 61.5997 62.2427 60.9413 62.2427 60.2829C62.6814 59.6245 63.1202 58.9661 63.4493 58.3078C63.888 57.3202 64.5462 56.3326 64.8752 55.345C65.2043 54.2477 65.0946 52.8213 65.0946 51.724C64.9849 49.6391 64.1074 47.7737 62.7911 46.1277C64.1074 45.2499 65.8624 44.9207 67.3981 45.0304C69.921 45.0304 72.4439 44.9207 74.9668 44.7012C76.2831 44.5915 77.4896 44.5915 78.8059 44.3721C80.0125 44.1526 81.2191 43.7137 82.316 43.4942C83.5226 43.165 84.7292 43.2747 85.9358 43.0553C87.0327 42.8358 88.2393 42.3969 89.3362 41.958C90.7622 41.4093 93.7239 40.9704 94.7111 39.5439C95.5886 39.3245 96.2467 38.9953 96.4661 37.7883C96.6855 36.5812 96.137 35.3742 96.0274 34.1672C95.5886 29.5585 95.0401 24.9499 93.6142 20.4509C92.4076 16.3909 91.4203 12.3309 89.3362 8.60009C89.1168 6.95414 86.8133 5.41792 85.7164 4.54008C84.1808 3.22332 82.8645 1.57737 81.2191 0.370339C80.2319 -0.288041 79.0253 -0.0685812 78.4769 1.02872C77.5993 1.35791 76.7218 1.35791 75.954 2.01629C74.528 3.11359 74.8571 3.99143 75.4055 4.86927C73.8699 6.40549 76.7218 7.28333 77.9284 7.94171C78.9156 8.49036 79.3544 8.70982 80.4513 8.81955C81.4385 8.92928 82.316 9.25846 83.0839 9.69738C83.8517 10.0266 84.5098 10.4655 85.3874 10.5752C85.6068 11.1239 85.7164 11.7823 85.8261 12.2212C86.0455 12.8796 86.2649 13.6477 86.4843 14.306C86.8133 15.8423 86.8133 17.4882 86.8133 19.1342C86.923 22.5358 86.4843 25.9374 86.3746 29.339C86.3746 30.6558 86.1552 32.3018 86.4843 33.7282C84.6195 34.4964 82.5354 34.6061 80.561 34.4964C79.4641 34.4964 78.4769 34.2769 77.38 34.3866C76.2831 34.4964 75.1861 34.7158 74.0892 34.8255C73.4311 34.9353 72.8826 34.9353 72.2245 35.1547C72.1148 35.1547 72.0051 35.2645 71.8954 35.2645C70.5791 35.045 69.4822 34.4964 68.1659 33.9477C66.6303 33.3991 65.0946 33.0699 63.4493 32.9601C61.6942 32.7407 59.9392 32.8504 58.2938 32.7407C56.5387 32.6309 55.0031 33.2893 53.3577 33.1796C52.3705 33.1796 51.493 33.2893 50.5058 33.1796C49.9573 33.0699 49.4089 32.9601 48.9701 32.7407C49.0798 32.0823 49.1895 31.4239 49.2992 30.8753C49.4089 30.3266 49.5186 29.778 49.7379 29.2293C49.7379 29.1196 49.8476 29.1196 49.8476 29.0099C50.1767 29.2293 50.5058 29.4488 50.7252 29.6682C51.8221 30.4363 53.1383 30.8753 54.4546 31.2045C55.6612 31.4239 56.9775 30.2169 56.9775 28.9001C57.3066 28.9001 57.6357 28.9001 57.855 28.7904C58.2938 28.5709 58.2938 28.2417 58.2938 27.8028C58.6229 27.9126 58.9519 27.8028 59.1713 27.6931C59.3907 27.5834 59.5004 27.0347 59.5004 26.5958C59.9392 26.5958 60.4876 26.5958 60.8167 26.4861C61.6942 26.2666 61.8039 25.6082 61.6942 24.8401C61.5845 24.072 61.4748 23.4136 61.4748 22.6455C61.4748 22.2066 61.5845 21.5482 61.5845 20.9996C62.9008 20.7801 63.5589 18.5855 63.7783 17.5979C64.1074 16.5006 64.7655 13.8671 63.9977 12.6601C64.9849 10.9044 65.2043 9.14874 63.6686 7.50279C62.2427 5.96657 60.1585 5.41792 58.5132 4.21089C56.8678 2.89413 55.5515 1.6871 53.3577 1.13845C51.3833 0.589799 49.1895 0.370339 47.1054 0.699528C45.1309 1.02872 43.4856 1.90656 42.0596 3.11359C41.6208 2.89413 41.0724 2.89413 40.5239 3.11359C40.5239 3.33305 40.3046 3.55251 40.1949 3.77197C37.5623 0.918989 32.9553 3.66224 32.0778 6.95414C31.7487 8.05144 31.7487 9.25846 31.7487 10.3558C31.8584 9.58766 32.2971 8.38063 32.9553 7.83198C32.4068 9.25846 32.5165 10.7947 32.0778 12.3309C31.639 13.7574 30.8712 15.1839 30.6518 16.6104C30.5421 17.3785 30.3227 18.4758 30.5421 19.2439C30.5421 18.4758 30.8712 17.8174 31.4196 17.2688C30.7615 19.1342 30.9809 21.219 30.9809 22.5358C31.5293 24.2915 31.8584 25.279 32.8456 26.3763C33.8328 27.3639 35.1491 27.4736 36.246 28.132C36.4654 28.2417 36.6848 28.4612 36.9041 28.5709C36.0266 29.2293 35.2588 30.2169 34.3813 30.7655C34.2716 30.7655 34.2716 30.8753 34.1619 30.8753C32.6262 30.7655 30.8712 31.0947 29.3355 31.0947C27.5804 30.985 25.9351 30.7655 24.18 30.7655C22.425 30.7655 20.999 31.3142 19.244 31.7531C17.5986 32.3018 15.8436 32.4115 14.1982 32.6309C12.5528 32.8504 10.9075 32.7407 9.5912 31.7531C9.81058 30.6558 10.2493 29.1196 10.5784 27.9126C11.2366 25.0596 12.2238 21.9871 13.5401 19.3536C14.637 16.9396 15.7339 14.0866 17.5986 12.1114C18.5858 12.3309 20.0118 12.1114 20.7796 12.0017C21.2184 11.892 22.8638 11.5628 23.851 11.3433C24.2897 11.5628 24.8382 11.5628 25.4963 11.3433C25.9351 11.2336 26.3738 11.0141 26.8126 10.9044C27.2514 10.7947 27.7998 10.9044 28.3483 10.685C28.458 10.246 28.0192 9.69738 27.5804 9.47793C28.3483 8.49036 27.7998 7.61252 26.9223 6.62495C26.1545 5.85684 25.1673 4.54008 24.18 4.32062C23.5219 4.10116 22.9734 4.54008 22.5347 4.979C21.3281 4.86927 19.3537 6.18603 18.4761 6.62495C16.9405 7.28333 15.6242 7.83198 14.5273 9.14874C14.0885 9.69739 13.3207 10.5752 13.211 11.3433C10.1396 13.8671 8.05553 17.8174 6.0811 21.3288C4.98419 23.1942 3.66791 24.8401 2.571 26.7055C1.58379 28.4612 1.14502 30.5461 0.486881 32.5212C-0.280953 34.3866 -0.171263 35.9228 1.03533 37.1299ZM35.9169 20.9996C35.6975 19.4634 36.246 18.0369 36.246 16.5006C36.3557 16.9396 36.6848 17.5979 37.2332 17.9271C36.6848 16.8298 36.5751 15.5131 36.9041 14.306C37.0138 13.6477 37.4526 12.9893 37.8914 12.5504C38.1107 12.4406 38.3301 12.3309 38.6592 12.2212C38.7689 12.9893 38.9883 13.6477 39.5367 13.9769C39.427 15.2936 39.2076 16.5006 39.427 17.8174C39.6464 19.2439 40.5239 20.3412 41.1821 21.5482C40.9627 22.4261 40.5239 23.4136 40.3045 23.8525C39.9755 24.8401 39.3173 25.4985 38.7689 26.2666C38.6592 25.718 38.2204 25.0596 37.8914 24.6207C36.9041 23.5234 36.1363 22.5358 35.9169 20.9996Z" fill="url(#paint0_linear_75_173)"/>
<path d="M1.03533 37.1299C1.58379 38.3369 3.22914 38.7758 4.32605 39.2147C7.39739 40.312 10.4687 41.4093 13.6497 42.0677C16.8308 42.7261 20.0118 42.8358 23.1928 43.0553C23.851 43.6039 24.7285 44.5915 24.9479 44.9207C25.7157 45.9083 26.3738 46.8958 26.7029 48.1029C27.4708 50.4072 28.2386 52.7115 29.2258 54.9061C29.4452 55.345 29.5549 55.784 29.7743 56.2229C29.3355 56.8813 29.9936 58.5272 30.213 58.9661C30.6518 60.1732 31.5293 61.1607 31.639 62.258C31.7487 63.4651 32.4068 64.2332 32.7359 65.3305C32.9553 65.8791 32.9553 66.5375 33.065 67.0862C33.065 67.6348 33.394 68.4029 33.2844 68.8418C33.065 69.5002 32.6262 69.8294 32.7359 70.5975C32.7359 70.817 32.8456 71.1462 32.9553 71.4753C32.4068 71.6948 31.8584 71.9143 31.639 72.6824C31.4196 73.3408 31.7487 74.7673 31.3099 75.3159C31.0905 75.5354 30.6518 75.5354 30.4324 75.8645C30.213 76.084 30.1033 76.5229 29.8839 76.7424C29.3355 77.4008 28.787 77.1813 28.458 78.0591C28.2386 78.6078 28.1289 79.2662 28.1289 79.8148C27.4708 80.3635 26.7029 80.9121 26.1545 81.4608C25.3866 82.2289 24.7285 83.2165 24.0703 84.0943C23.4122 84.9721 23.0831 86.0694 22.5347 87.057C22.0959 87.9348 21.3281 88.3738 20.8893 89.1419C20.4506 89.8003 20.0118 91.4462 20.999 91.8851C20.3409 93.3116 19.9021 95.0673 19.4633 96.0549C18.1471 99.6759 18.8052 104.175 19.573 107.906C20.0118 109.881 20.2312 111.527 20.4506 113.612C20.5603 114.709 21.1087 115.806 21.4378 117.013C19.573 117.452 20.4506 122.28 20.8893 123.487C21.3281 124.804 21.3281 126.231 21.6572 127.547C21.9862 128.864 22.5347 129.193 23.4122 129.303C23.9607 133.034 24.3994 136.655 24.2897 140.495C24.18 144.885 23.3025 148.835 23.1928 153.114C22.8638 161.454 26.1545 170.123 27.7998 178.133C28.458 180.986 29.6646 184.607 30.1033 187.899C28.8967 189.106 29.2258 190.971 29.0064 192.617C28.787 194.592 27.5804 197.445 29.4452 198.982C30.7615 200.079 33.9425 199.64 35.4782 199.201C37.3429 198.652 38.1107 197.555 38.1107 196.019C40.9627 195.909 44.9116 195.141 42.7177 191.959C41.9499 190.752 40.3046 190.203 39.427 188.886C38.5495 187.679 38.1107 185.814 36.6848 185.375C35.6975 182.412 35.5879 178.791 35.4782 176.158C35.0394 167.489 35.0394 159.15 35.9169 150.481C36.3557 146.201 35.8072 141.812 37.2332 137.533C38.4398 133.802 39.427 130.949 38.8786 127.218C39.7561 126.56 39.8658 125.353 39.6464 123.597C39.427 122.061 40.4142 117.452 38.3301 117.233C38.7689 114.928 39.5367 112.624 39.6464 110.759C42.9371 113.392 47.1054 114.928 50.6155 117.013C50.7252 118.879 51.3833 119.537 53.7965 120.744C55.2225 121.512 57.3066 122.61 58.8423 121.951C59.7198 122.61 60.5973 123.158 61.2554 123.487C64.4365 125.024 67.3981 127.218 70.1404 129.413C71.676 130.73 74.0892 132.375 75.8443 134.241C75.2958 135.997 74.1989 137.752 73.8699 139.508C73.2117 142.361 72.7729 145.324 72.4439 148.286C71.8954 154.212 72.4439 160.137 72.5536 165.953C72.5536 167.928 72.6633 170.671 72.1148 172.976C71.0179 173.195 70.1404 174.292 68.9338 174.731C67.069 175.39 65.7528 175.06 64.9849 177.255C63.6686 181.096 66.0818 184.387 68.495 187.021C69.0435 187.57 69.4822 188.009 70.0307 188.447C70.5791 190.642 71.2373 192.727 72.6633 194.592C74.1989 196.677 75.954 198.872 78.4769 199.64C82.316 200.847 82.9742 198.872 81.3288 195.909C79.5738 192.837 80.2319 190.642 80.9997 187.35C81.6579 184.497 81.7676 182.303 80.8901 179.669C81.1094 177.365 80.7804 174.512 80.8901 172.976C81.4385 166.831 82.6451 160.686 83.5226 154.651C83.9614 151.578 85.0583 148.616 85.9358 145.543C86.7037 142.91 87.0327 140.495 87.2521 137.752C88.6781 135.997 89.3362 132.924 89.3362 130.839C89.3362 127.657 87.6909 125.682 86.1552 123.158C84.7292 120.854 83.4129 118.44 81.5482 116.465C78.5866 113.173 74.8571 110.539 71.5664 107.467C71.6761 106.808 71.347 106.04 70.6888 105.162C69.8113 103.955 68.9338 102.2 67.5078 101.651C66.5206 101.322 65.7528 101.541 64.7655 100.883C63.9977 100.444 63.5589 99.7857 62.9008 99.237C61.6942 98.2495 60.5973 97.1522 59.3907 96.0549C59.1713 95.6159 59.0616 95.0673 58.9519 94.6284C58.9519 92.1046 59.6101 89.6905 59.8295 87.2765C59.9392 86.0694 60.2682 84.7527 60.2682 83.5456C60.2682 82.997 60.3779 81.6802 60.2682 80.8024C60.8167 79.8148 61.0361 78.6078 61.0361 77.6202C60.9264 76.1937 60.5973 74.7673 60.707 73.3408C60.8167 71.8045 60.8167 70.2683 61.0361 68.8418C61.2554 67.4153 61.2554 65.8791 61.5845 64.4526C61.6942 63.6845 62.0233 63.0261 62.133 62.258C62.2427 61.5997 62.2427 60.9413 62.2427 60.2829C62.6814 59.6245 63.1202 58.9661 63.4493 58.3078C63.888 57.3202 64.5462 56.3326 64.8752 55.345C65.2043 54.2477 65.0946 52.8213 65.0946 51.724C64.9849 49.6391 64.1074 47.7737 62.7911 46.1277C64.1074 45.2499 65.8624 44.9207 67.3981 45.0304C69.921 45.0304 72.4439 44.9207 74.9668 44.7012C76.2831 44.5915 77.4896 44.5915 78.8059 44.3721C80.0125 44.1526 81.2191 43.7137 82.316 43.4942C83.5226 43.165 84.7292 43.2747 85.9358 43.0553C87.0327 42.8358 88.2393 42.3969 89.3362 41.958C90.7622 41.4093 93.7239 40.9704 94.7111 39.5439C95.5886 39.3245 96.2467 38.9953 96.4661 37.7883C96.6855 36.5812 96.137 35.3742 96.0274 34.1672C95.5886 29.5585 95.0401 24.9499 93.6142 20.4509C92.4076 16.3909 91.4203 12.3309 89.3362 8.60009C89.1168 6.95414 86.8133 5.41792 85.7164 4.54008C84.1808 3.22332 82.8645 1.57737 81.2191 0.370339C80.2319 -0.288041 79.0253 -0.0685812 78.4769 1.02872C77.5993 1.35791 76.7218 1.35791 75.954 2.01629C74.528 3.11359 74.8571 3.99143 75.4055 4.86927C73.8699 6.40549 76.7218 7.28333 77.9284 7.94171C78.9156 8.49036 79.3544 8.70982 80.4513 8.81955C81.4385 8.92928 82.316 9.25846 83.0839 9.69738C83.8517 10.0266 84.5098 10.4655 85.3874 10.5752C85.6068 11.1239 85.7164 11.7823 85.8261 12.2212C86.0455 12.8796 86.2649 13.6477 86.4843 14.306C86.8133 15.8423 86.8133 17.4882 86.8133 19.1342C86.923 22.5358 86.4843 25.9374 86.3746 29.339C86.3746 30.6558 86.1552 32.3018 86.4843 33.7282C84.6195 34.4964 82.5354 34.6061 80.561 34.4964C79.4641 34.4964 78.4769 34.2769 77.38 34.3866C76.2831 34.4964 75.1861 34.7158 74.0892 34.8255C73.4311 34.9353 72.8826 34.9353 72.2245 35.1547C72.1148 35.1547 72.0051 35.2645 71.8954 35.2645C70.5791 35.045 69.4822 34.4964 68.1659 33.9477C66.6303 33.3991 65.0946 33.0699 63.4493 32.9601C61.6942 32.7407 59.9392 32.8504 58.2938 32.7407C56.5387 32.6309 55.0031 33.2893 53.3577 33.1796C52.3705 33.1796 51.493 33.2893 50.5058 33.1796C49.9573 33.0699 49.4089 32.9601 48.9701 32.7407C49.0798 32.0823 49.1895 31.4239 49.2992 30.8753C49.4089 30.3266 49.5186 29.778 49.7379 29.2293C49.7379 29.1196 49.8476 29.1196 49.8476 29.0099C50.1767 29.2293 50.5058 29.4488 50.7252 29.6682C51.8221 30.4363 53.1383 30.8753 54.4546 31.2045C55.6612 31.4239 56.9775 30.2169 56.9775 28.9001C57.3066 28.9001 57.6357 28.9001 57.855 28.7904C58.2938 28.5709 58.2938 28.2417 58.2938 27.8028C58.6229 27.9126 58.9519 27.8028 59.1713 27.6931C59.3907 27.5834 59.5004 27.0347 59.5004 26.5958C59.9392 26.5958 60.4876 26.5958 60.8167 26.4861C61.6942 26.2666 61.8039 25.6082 61.6942 24.8401C61.5845 24.072 61.4748 23.4136 61.4748 22.6455C61.4748 22.2066 61.5845 21.5482 61.5845 20.9996C62.9008 20.7801 63.5589 18.5855 63.7783 17.5979C64.1074 16.5006 64.7655 13.8671 63.9977 12.6601C64.9849 10.9044 65.2043 9.14874 63.6686 7.50279C62.2427 5.96657 60.1585 5.41792 58.5132 4.21089C56.8678 2.89413 55.5515 1.6871 53.3577 1.13845C51.3833 0.589799 49.1895 0.370339 47.1054 0.699528C45.1309 1.02872 43.4856 1.90656 42.0596 3.11359C41.6208 2.89413 41.0724 2.89413 40.5239 3.11359C40.5239 3.33305 40.3046 3.55251 40.1949 3.77197C37.5623 0.918989 32.9553 3.66224 32.0778 6.95414C31.7487 8.05144 31.7487 9.25846 31.7487 10.3558C31.8584 9.58766 32.2971 8.38063 32.9553 7.83198C32.4068 9.25846 32.5165 10.7947 32.0778 12.3309C31.639 13.7574 30.8712 15.1839 30.6518 16.6104C30.5421 17.3785 30.3227 18.4758 30.5421 19.2439C30.5421 18.4758 30.8712 17.8174 31.4196 17.2688C30.7615 19.1342 30.9809 21.219 30.9809 22.5358C31.5293 24.2915 31.8584 25.279 32.8456 26.3763C33.8328 27.3639 35.1491 27.4736 36.246 28.132C36.4654 28.2417 36.6848 28.4612 36.9041 28.5709C36.0266 29.2293 35.2588 30.2169 34.3813 30.7655C34.2716 30.7655 34.2716 30.8753 34.1619 30.8753C32.6262 30.7655 30.8712 31.0947 29.3355 31.0947C27.5804 30.985 25.9351 30.7655 24.18 30.7655C22.425 30.7655 20.999 31.3142 19.244 31.7531C17.5986 32.3018 15.8436 32.4115 14.1982 32.6309C12.5528 32.8504 10.9075 32.7407 9.5912 31.7531C9.81058 30.6558 10.2493 29.1196 10.5784 27.9126C11.2366 25.0596 12.2238 21.9871 13.5401 19.3536C14.637 16.9396 15.7339 14.0866 17.5986 12.1114C18.5858 12.3309 20.0118 12.1114 20.7796 12.0017C21.2184 11.892 22.8638 11.5628 23.851 11.3433C24.2897 11.5628 24.8382 11.5628 25.4963 11.3433C25.9351 11.2336 26.3738 11.0141 26.8126 10.9044C27.2514 10.7947 27.7998 10.9044 28.3483 10.685C28.458 10.246 28.0192 9.69738 27.5804 9.47793C28.3483 8.49036 27.7998 7.61252 26.9223 6.62495C26.1545 5.85684 25.1673 4.54008 24.18 4.32062C23.5219 4.10116 22.9734 4.54008 22.5347 4.979C21.3281 4.86927 19.3537 6.18603 18.4761 6.62495C16.9405 7.28333 15.6242 7.83198 14.5273 9.14874C14.0885 9.69739 13.3207 10.5752 13.211 11.3433C10.1396 13.8671 8.05553 17.8174 6.0811 21.3288C4.98419 23.1942 3.66791 24.8401 2.571 26.7055C1.58379 28.4612 1.14502 30.5461 0.486881 32.5212C-0.280953 34.3866 -0.171263 35.9228 1.03533 37.1299ZM35.9169 20.9996C35.6975 19.4634 36.246 18.0369 36.246 16.5006C36.3557 16.9396 36.6848 17.5979 37.2332 17.9271C36.6848 16.8298 36.5751 15.5131 36.9041 14.306C37.0138 13.6477 37.4526 12.9893 37.8914 12.5504C38.1107 12.4406 38.3301 12.3309 38.6592 12.2212C38.7689 12.9893 38.9883 13.6477 39.5367 13.9769C39.427 15.2936 39.2076 16.5006 39.427 17.8174C39.6464 19.2439 40.5239 20.3412 41.1821 21.5482C40.9627 22.4261 40.5239 23.4136 40.3045 23.8525C39.9755 24.8401 39.3173 25.4985 38.7689 26.2666C38.6592 25.718 38.2204 25.0596 37.8914 24.6207C36.9041 23.5234 36.1363 22.5358 35.9169 20.9996Z" fill="url(#paint1_linear_75_173)"/>
<path d="M1.03533 37.1299C1.58379 38.3369 3.22914 38.7758 4.32605 39.2147C7.39739 40.312 10.4687 41.4093 13.6497 42.0677C16.8308 42.7261 20.0118 42.8358 23.1928 43.0553C23.851 43.6039 24.7285 44.5915 24.9479 44.9207C25.7157 45.9083 26.3738 46.8958 26.7029 48.1029C27.4708 50.4072 28.2386 52.7115 29.2258 54.9061C29.4452 55.345 29.5549 55.784 29.7743 56.2229C29.3355 56.8813 29.9936 58.5272 30.213 58.9661C30.6518 60.1732 31.5293 61.1607 31.639 62.258C31.7487 63.4651 32.4068 64.2332 32.7359 65.3305C32.9553 65.8791 32.9553 66.5375 33.065 67.0862C33.065 67.6348 33.394 68.4029 33.2844 68.8418C33.065 69.5002 32.6262 69.8294 32.7359 70.5975C32.7359 70.817 32.8456 71.1462 32.9553 71.4753C32.4068 71.6948 31.8584 71.9143 31.639 72.6824C31.4196 73.3408 31.7487 74.7673 31.3099 75.3159C31.0905 75.5354 30.6518 75.5354 30.4324 75.8645C30.213 76.084 30.1033 76.5229 29.8839 76.7424C29.3355 77.4008 28.787 77.1813 28.458 78.0591C28.2386 78.6078 28.1289 79.2662 28.1289 79.8148C27.4708 80.3635 26.7029 80.9121 26.1545 81.4608C25.3866 82.2289 24.7285 83.2165 24.0703 84.0943C23.4122 84.9721 23.0831 86.0694 22.5347 87.057C22.0959 87.9348 21.3281 88.3738 20.8893 89.1419C20.4506 89.8003 20.0118 91.4462 20.999 91.8851C20.3409 93.3116 19.9021 95.0673 19.4633 96.0549C18.1471 99.6759 18.8052 104.175 19.573 107.906C20.0118 109.881 20.2312 111.527 20.4506 113.612C20.5603 114.709 21.1087 115.806 21.4378 117.013C19.573 117.452 20.4506 122.28 20.8893 123.487C21.3281 124.804 21.3281 126.231 21.6572 127.547C21.9862 128.864 22.5347 129.193 23.4122 129.303C23.9607 133.034 24.3994 136.655 24.2897 140.495C24.18 144.885 23.3025 148.835 23.1928 153.114C22.8638 161.454 26.1545 170.123 27.7998 178.133C28.458 180.986 29.6646 184.607 30.1033 187.899C28.8967 189.106 29.2258 190.971 29.0064 192.617C28.787 194.592 27.5804 197.445 29.4452 198.982C30.7615 200.079 33.9425 199.64 35.4782 199.201C37.3429 198.652 38.1107 197.555 38.1107 196.019C40.9627 195.909 44.9116 195.141 42.7177 191.959C41.9499 190.752 40.3046 190.203 39.427 188.886C38.5495 187.679 38.1107 185.814 36.6848 185.375C35.6975 182.412 35.5879 178.791 35.4782 176.158C35.0394 167.489 35.0394 159.15 35.9169 150.481C36.3557 146.201 35.8072 141.812 37.2332 137.533C38.4398 133.802 39.427 130.949 38.8786 127.218C39.7561 126.56 39.8658 125.353 39.6464 123.597C39.427 122.061 40.4142 117.452 38.3301 117.233C38.7689 114.928 39.5367 112.624 39.6464 110.759C42.9371 113.392 47.1054 114.928 50.6155 117.013C50.7252 118.879 51.3833 119.537 53.7965 120.744C55.2225 121.512 57.3066 122.61 58.8423 121.951C59.7198 122.61 60.5973 123.158 61.2554 123.487C64.4365 125.024 67.3981 127.218 70.1404 129.413C71.676 130.73 74.0892 132.375 75.8443 134.241C75.2958 135.997 74.1989 137.752 73.8699 139.508C73.2117 142.361 72.7729 145.324 72.4439 148.286C71.8954 154.212 72.4439 160.137 72.5536 165.953C72.5536 167.928 72.6633 170.671 72.1148 172.976C71.0179 173.195 70.1404 174.292 68.9338 174.731C67.069 175.39 65.7528 175.06 64.9849 177.255C63.6686 181.096 66.0818 184.387 68.495 187.021C69.0435 187.57 69.4822 188.009 70.0307 188.447C70.5791 190.642 71.2373 192.727 72.6633 194.592C74.1989 196.677 75.954 198.872 78.4769 199.64C82.316 200.847 82.9742 198.872 81.3288 195.909C79.5738 192.837 80.2319 190.642 80.9997 187.35C81.6579 184.497 81.7676 182.303 80.8901 179.669C81.1094 177.365 80.7804 174.512 80.8901 172.976C81.4385 166.831 82.6451 160.686 83.5226 154.651C83.9614 151.578 85.0583 148.616 85.9358 145.543C86.7037 142.91 87.0327 140.495 87.2521 137.752C88.6781 135.997 89.3362 132.924 89.3362 130.839C89.3362 127.657 87.6909 125.682 86.1552 123.158C84.7292 120.854 83.4129 118.44 81.5482 116.465C78.5866 113.173 74.8571 110.539 71.5664 107.467C71.6761 106.808 71.347 106.04 70.6888 105.162C69.8113 103.955 68.9338 102.2 67.5078 101.651C66.5206 101.322 65.7528 101.541 64.7655 100.883C63.9977 100.444 63.5589 99.7857 62.9008 99.237C61.6942 98.2495 60.5973 97.1522 59.3907 96.0549C59.1713 95.6159 59.0616 95.0673 58.9519 94.6284C58.9519 92.1046 59.6101 89.6905 59.8295 87.2765C59.9392 86.0694 60.2682 84.7527 60.2682 83.5456C60.2682 82.997 60.3779 81.6802 60.2682 80.8024C60.8167 79.8148 61.0361 78.6078 61.0361 77.6202C60.9264 76.1937 60.5973 74.7673 60.707 73.3408C60.8167 71.8045 60.8167 70.2683 61.0361 68.8418C61.2554 67.4153 61.2554 65.8791 61.5845 64.4526C61.6942 63.6845 62.0233 63.0261 62.133 62.258C62.2427 61.5997 62.2427 60.9413 62.2427 60.2829C62.6814 59.6245 63.1202 58.9661 63.4493 58.3078C63.888 57.3202 64.5462 56.3326 64.8752 55.345C65.2043 54.2477 65.0946 52.8213 65.0946 51.724C64.9849 49.6391 64.1074 47.7737 62.7911 46.1277C64.1074 45.2499 65.8624 44.9207 67.3981 45.0304C69.921 45.0304 72.4439 44.9207 74.9668 44.7012C76.2831 44.5915 77.4896 44.5915 78.8059 44.3721C80.0125 44.1526 81.2191 43.7137 82.316 43.4942C83.5226 43.165 84.7292 43.2747 85.9358 43.0553C87.0327 42.8358 88.2393 42.3969 89.3362 41.958C90.7622 41.4093 93.7239 40.9704 94.7111 39.5439C95.5886 39.3245 96.2467 38.9953 96.4661 37.7883C96.6855 36.5812 96.137 35.3742 96.0274 34.1672C95.5886 29.5585 95.0401 24.9499 93.6142 20.4509C92.4076 16.3909 91.4203 12.3309 89.3362 8.60009C89.1168 6.95414 86.8133 5.41792 85.7164 4.54008C84.1808 3.22332 82.8645 1.57737 81.2191 0.370339C80.2319 -0.288041 79.0253 -0.0685812 78.4769 1.02872C77.5993 1.35791 76.7218 1.35791 75.954 2.01629C74.528 3.11359 74.8571 3.99143 75.4055 4.86927C73.8699 6.40549 76.7218 7.28333 77.9284 7.94171C78.9156 8.49036 79.3544 8.70982 80.4513 8.81955C81.4385 8.92928 82.316 9.25846 83.0839 9.69738C83.8517 10.0266 84.5098 10.4655 85.3874 10.5752C85.6068 11.1239 85.7164 11.7823 85.8261 12.2212C86.0455 12.8796 86.2649 13.6477 86.4843 14.306C86.8133 15.8423 86.8133 17.4882 86.8133 19.1342C86.923 22.5358 86.4843 25.9374 86.3746 29.339C86.3746 30.6558 86.1552 32.3018 86.4843 33.7282C84.6195 34.4964 82.5354 34.6061 80.561 34.4964C79.4641 34.4964 78.4769 34.2769 77.38 34.3866C76.2831 34.4964 75.1861 34.7158 74.0892 34.8255C73.4311 34.9353 72.8826 34.9353 72.2245 35.1547C72.1148 35.1547 72.0051 35.2645 71.8954 35.2645C70.5791 35.045 69.4822 34.4964 68.1659 33.9477C66.6303 33.3991 65.0946 33.0699 63.4493 32.9601C61.6942 32.7407 59.9392 32.8504 58.2938 32.7407C56.5387 32.6309 55.0031 33.2893 53.3577 33.1796C52.3705 33.1796 51.493 33.2893 50.5058 33.1796C49.9573 33.0699 49.4089 32.9601 48.9701 32.7407C49.0798 32.0823 49.1895 31.4239 49.2992 30.8753C49.4089 30.3266 49.5186 29.778 49.7379 29.2293C49.7379 29.1196 49.8476 29.1196 49.8476 29.0099C50.1767 29.2293 50.5058 29.4488 50.7252 29.6682C51.8221 30.4363 53.1383 30.8753 54.4546 31.2045C55.6612 31.4239 56.9775 30.2169 56.9775 28.9001C57.3066 28.9001 57.6357 28.9001 57.855 28.7904C58.2938 28.5709 58.2938 28.2417 58.2938 27.8028C58.6229 27.9126 58.9519 27.8028 59.1713 27.6931C59.3907 27.5834 59.5004 27.0347 59.5004 26.5958C59.9392 26.5958 60.4876 26.5958 60.8167 26.4861C61.6942 26.2666 61.8039 25.6082 61.6942 24.8401C61.5845 24.072 61.4748 23.4136 61.4748 22.6455C61.4748 22.2066 61.5845 21.5482 61.5845 20.9996C62.9008 20.7801 63.5589 18.5855 63.7783 17.5979C64.1074 16.5006 64.7655 13.8671 63.9977 12.6601C64.9849 10.9044 65.2043 9.14874 63.6686 7.50279C62.2427 5.96657 60.1585 5.41792 58.5132 4.21089C56.8678 2.89413 55.5515 1.6871 53.3577 1.13845C51.3833 0.589799 49.1895 0.370339 47.1054 0.699528C45.1309 1.02872 43.4856 1.90656 42.0596 3.11359C41.6208 2.89413 41.0724 2.89413 40.5239 3.11359C40.5239 3.33305 40.3046 3.55251 40.1949 3.77197C37.5623 0.918989 32.9553 3.66224 32.0778 6.95414C31.7487 8.05144 31.7487 9.25846 31.7487 10.3558C31.8584 9.58766 32.2971 8.38063 32.9553 7.83198C32.4068 9.25846 32.5165 10.7947 32.0778 12.3309C31.639 13.7574 30.8712 15.1839 30.6518 16.6104C30.5421 17.3785 30.3227 18.4758 30.5421 19.2439C30.5421 18.4758 30.8712 17.8174 31.4196 17.2688C30.7615 19.1342 30.9809 21.219 30.9809 22.5358C31.5293 24.2915 31.8584 25.279 32.8456 26.3763C33.8328 27.3639 35.1491 27.4736 36.246 28.132C36.4654 28.2417 36.6848 28.4612 36.9041 28.5709C36.0266 29.2293 35.2588 30.2169 34.3813 30.7655C34.2716 30.7655 34.2716 30.8753 34.1619 30.8753C32.6262 30.7655 30.8712 31.0947 29.3355 31.0947C27.5804 30.985 25.9351 30.7655 24.18 30.7655C22.425 30.7655 20.999 31.3142 19.244 31.7531C17.5986 32.3018 15.8436 32.4115 14.1982 32.6309C12.5528 32.8504 10.9075 32.7407 9.5912 31.7531C9.81058 30.6558 10.2493 29.1196 10.5784 27.9126C11.2366 25.0596 12.2238 21.9871 13.5401 19.3536C14.637 16.9396 15.7339 14.0866 17.5986 12.1114C18.5858 12.3309 20.0118 12.1114 20.7796 12.0017C21.2184 11.892 22.8638 11.5628 23.851 11.3433C24.2897 11.5628 24.8382 11.5628 25.4963 11.3433C25.9351 11.2336 26.3738 11.0141 26.8126 10.9044C27.2514 10.7947 27.7998 10.9044 28.3483 10.685C28.458 10.246 28.0192 9.69738 27.5804 9.47793C28.3483 8.49036 27.7998 7.61252 26.9223 6.62495C26.1545 5.85684 25.1673 4.54008 24.18 4.32062C23.5219 4.10116 22.9734 4.54008 22.5347 4.979C21.3281 4.86927 19.3537 6.18603 18.4761 6.62495C16.9405 7.28333 15.6242 7.83198 14.5273 9.14874C14.0885 9.69739 13.3207 10.5752 13.211 11.3433C10.1396 13.8671 8.05553 17.8174 6.0811 21.3288C4.98419 23.1942 3.66791 24.8401 2.571 26.7055C1.58379 28.4612 1.14502 30.5461 0.486881 32.5212C-0.280953 34.3866 -0.171263 35.9228 1.03533 37.1299ZM35.9169 20.9996C35.6975 19.4634 36.246 18.0369 36.246 16.5006C36.3557 16.9396 36.6848 17.5979 37.2332 17.9271C36.6848 16.8298 36.5751 15.5131 36.9041 14.306C37.0138 13.6477 37.4526 12.9893 37.8914 12.5504C38.1107 12.4406 38.3301 12.3309 38.6592 12.2212C38.7689 12.9893 38.9883 13.6477 39.5367 13.9769C39.427 15.2936 39.2076 16.5006 39.427 17.8174C39.6464 19.2439 40.5239 20.3412 41.1821 21.5482C40.9627 22.4261 40.5239 23.4136 40.3045 23.8525C39.9755 24.8401 39.3173 25.4985 38.7689 26.2666C38.6592 25.718 38.2204 25.0596 37.8914 24.6207C36.9041 23.5234 36.1363 22.5358 35.9169 20.9996Z" fill="url(#paint2_linear_75_173)"/>
<defs>
<linearGradient id="paint0_linear_75_173" x1="0" y1="0" x2="132.008" y2="27.0958" gradientUnits="userSpaceOnUse">
<stop stop-color="#FC5997"/>
<stop offset="1" stop-color="#9046B3"/>
</linearGradient>
<linearGradient id="paint1_linear_75_173" x1="0" y1="0" x2="136.259" y2="32.288" gradientUnits="userSpaceOnUse">
<stop stop-color="#B0E532"/>
<stop offset="0.426869" stop-color="#35A004"/>
<stop offset="1" stop-color="#61CF0C"/>
</linearGradient>
<linearGradient id="paint2_linear_75_173" x1="0" y1="0" x2="136.259" y2="32.288" gradientUnits="userSpaceOnUse">
<stop stop-color="#AFE11E"/>
<stop offset="1" stop-color="#4DB856"/>
</linearGradient>
</defs>
</svg>
