<svg width="91" height="90" viewBox="0 0 91 90" fill="none" xmlns="http://www.w3.org/2000/svg">
<path d="M48.886 14.6191C47.7013 10.8677 45.6282 8.00476 42.0742 6.42521C39.8037 5.33928 37.3356 5.24056 34.8676 5.83289C31.8072 6.52393 29.2405 8.10347 27.3647 10.6702C25.5878 13.1382 24.5019 16.0012 24.9955 19.3577C24.3044 18.7653 24.3044 18.0742 24.2057 17.5807C24.107 17.0871 24.0083 16.8896 23.5147 17.0871C18.4799 19.0614 13.5439 20.9372 9.0027 23.8988C6.63339 25.4784 6.43596 27.4528 8.31165 29.6246C11.5694 33.5735 14.9259 37.4235 18.9735 40.6814C23.2185 44.1367 27.8585 46.9995 32.8931 49.0726C34.4727 49.7637 34.374 49.5662 33.3868 50.751C32.9918 51.2446 32.597 51.7382 32.3008 52.3305C30.3264 55.5882 30.9187 58.5499 34.0779 60.7217C34.9663 61.314 35.2625 61.9064 35.2625 62.8937C35.3612 66.0527 34.2753 68.7182 32.0046 70.9888C30.6226 72.3708 29.438 73.8516 28.0559 75.2338C27.4636 75.8261 27.5623 76.1223 28.352 76.4184C32.0046 77.7018 35.8548 78.5902 39.705 79.1826C44.6409 79.9723 49.6757 80.5646 54.7105 80.071C55.4015 79.9723 55.8951 79.9723 55.9939 79.0838C56.1913 73.5555 58.0671 68.4221 60.5351 63.486C64.2865 55.8844 66.1622 47.7893 67.9391 39.5955C68.4327 37.2261 68.2353 34.8569 67.9391 32.3889C67.3468 28.1438 67.0506 23.8988 66.3596 19.7526C65.7673 15.6063 66.1622 11.2625 65.4711 7.11626C65.175 5.63545 64.8788 4.15464 64.0889 2.87125C62.312 -0.485253 59.6466 -0.880136 56.981 1.58788C55.4015 3.06871 54.1182 4.74697 52.8349 6.42521C52.3413 7.11626 51.7488 7.90604 51.2552 8.6958C50.268 10.5715 48.3924 12.0523 48.886 14.6191ZM57.0798 22.8129C56.981 22.8129 57.1785 22.8129 57.0798 22.8129C57.0798 24.9847 57.3759 27.0579 57.4746 29.2297C57.5734 31.0067 56.6849 32.2902 55.2041 33.2774C53.5259 34.3633 53.131 34.2645 52.0451 32.5863C50.9591 30.908 49.577 29.2297 49.577 27.0579C49.577 24.7873 49.4783 22.5167 49.4783 20.3449C49.4783 19.95 49.577 19.6539 49.8731 19.3577C51.7488 17.8768 53.7233 16.396 55.8951 15.2114C56.7836 14.7178 56.981 15.014 56.981 15.9024C57.0798 18.173 57.0798 20.5424 57.0798 22.8129ZM38.7177 40.0891C37.0394 39.9904 35.2625 39.6942 33.8804 38.707C29.438 35.5479 24.9955 32.2902 20.3555 29.3285C19.7632 28.9336 19.7632 28.6374 20.0594 28.0451C21.3429 26.1695 22.8237 24.4911 24.6993 23.3065C25.4891 22.8129 25.7852 22.8129 25.9827 23.8988C26.2788 26.6631 27.4636 28.9336 29.438 30.8092C31.4123 32.7838 33.4856 34.6594 35.8548 36.2389C37.3356 37.3248 38.8164 38.1147 40.4947 36.4364C40.6922 36.2389 40.9883 35.9428 41.3832 36.4364C42.6665 37.8186 42.3704 39.1019 40.5935 39.7929C39.9024 39.9904 39.31 40.0891 38.7177 40.0891Z" fill="black"/>
<path d="M48.886 14.6191C47.7013 10.8677 45.6282 8.00476 42.0742 6.42521C39.8037 5.33928 37.3356 5.24056 34.8676 5.83289C31.8072 6.52393 29.2405 8.10347 27.3647 10.6702C25.5878 13.1382 24.5019 16.0012 24.9955 19.3577C24.3044 18.7653 24.3044 18.0742 24.2057 17.5807C24.107 17.0871 24.0083 16.8896 23.5147 17.0871C18.4799 19.0614 13.5439 20.9372 9.0027 23.8988C6.63339 25.4784 6.43596 27.4528 8.31165 29.6246C11.5694 33.5735 14.9259 37.4235 18.9735 40.6814C23.2185 44.1367 27.8585 46.9995 32.8931 49.0726C34.4727 49.7637 34.374 49.5662 33.3868 50.751C32.9918 51.2446 32.597 51.7382 32.3008 52.3305C30.3264 55.5882 30.9187 58.5499 34.0779 60.7217C34.9663 61.314 35.2625 61.9064 35.2625 62.8937C35.3612 66.0527 34.2753 68.7182 32.0046 70.9888C30.6226 72.3708 29.438 73.8516 28.0559 75.2338C27.4636 75.8261 27.5623 76.1223 28.352 76.4184C32.0046 77.7018 35.8548 78.5902 39.705 79.1826C44.6409 79.9723 49.6757 80.5646 54.7105 80.071C55.4015 79.9723 55.8951 79.9723 55.9939 79.0838C56.1913 73.5555 58.0671 68.4221 60.5351 63.486C64.2865 55.8844 66.1622 47.7893 67.9391 39.5955C68.4327 37.2261 68.2353 34.8569 67.9391 32.3889C67.3468 28.1438 67.0506 23.8988 66.3596 19.7526C65.7673 15.6063 66.1622 11.2625 65.4711 7.11626C65.175 5.63545 64.8788 4.15464 64.0889 2.87125C62.312 -0.485253 59.6466 -0.880136 56.981 1.58788C55.4015 3.06871 54.1182 4.74697 52.8349 6.42521C52.3413 7.11626 51.7488 7.90604 51.2552 8.6958C50.268 10.5715 48.3924 12.0523 48.886 14.6191ZM57.0798 22.8129C56.981 22.8129 57.1785 22.8129 57.0798 22.8129C57.0798 24.9847 57.3759 27.0579 57.4746 29.2297C57.5734 31.0067 56.6849 32.2902 55.2041 33.2774C53.5259 34.3633 53.131 34.2645 52.0451 32.5863C50.9591 30.908 49.577 29.2297 49.577 27.0579C49.577 24.7873 49.4783 22.5167 49.4783 20.3449C49.4783 19.95 49.577 19.6539 49.8731 19.3577C51.7488 17.8768 53.7233 16.396 55.8951 15.2114C56.7836 14.7178 56.981 15.014 56.981 15.9024C57.0798 18.173 57.0798 20.5424 57.0798 22.8129ZM38.7177 40.0891C37.0394 39.9904 35.2625 39.6942 33.8804 38.707C29.438 35.5479 24.9955 32.2902 20.3555 29.3285C19.7632 28.9336 19.7632 28.6374 20.0594 28.0451C21.3429 26.1695 22.8237 24.4911 24.6993 23.3065C25.4891 22.8129 25.7852 22.8129 25.9827 23.8988C26.2788 26.6631 27.4636 28.9336 29.438 30.8092C31.4123 32.7838 33.4856 34.6594 35.8548 36.2389C37.3356 37.3248 38.8164 38.1147 40.4947 36.4364C40.6922 36.2389 40.9883 35.9428 41.3832 36.4364C42.6665 37.8186 42.3704 39.1019 40.5935 39.7929C39.9024 39.9904 39.31 40.0891 38.7177 40.0891Z" fill="url(#paint0_linear_75_183)"/>
<path d="M48.886 14.6191C47.7013 10.8677 45.6282 8.00476 42.0742 6.42521C39.8037 5.33928 37.3356 5.24056 34.8676 5.83289C31.8072 6.52393 29.2405 8.10347 27.3647 10.6702C25.5878 13.1382 24.5019 16.0012 24.9955 19.3577C24.3044 18.7653 24.3044 18.0742 24.2057 17.5807C24.107 17.0871 24.0083 16.8896 23.5147 17.0871C18.4799 19.0614 13.5439 20.9372 9.0027 23.8988C6.63339 25.4784 6.43596 27.4528 8.31165 29.6246C11.5694 33.5735 14.9259 37.4235 18.9735 40.6814C23.2185 44.1367 27.8585 46.9995 32.8931 49.0726C34.4727 49.7637 34.374 49.5662 33.3868 50.751C32.9918 51.2446 32.597 51.7382 32.3008 52.3305C30.3264 55.5882 30.9187 58.5499 34.0779 60.7217C34.9663 61.314 35.2625 61.9064 35.2625 62.8937C35.3612 66.0527 34.2753 68.7182 32.0046 70.9888C30.6226 72.3708 29.438 73.8516 28.0559 75.2338C27.4636 75.8261 27.5623 76.1223 28.352 76.4184C32.0046 77.7018 35.8548 78.5902 39.705 79.1826C44.6409 79.9723 49.6757 80.5646 54.7105 80.071C55.4015 79.9723 55.8951 79.9723 55.9939 79.0838C56.1913 73.5555 58.0671 68.4221 60.5351 63.486C64.2865 55.8844 66.1622 47.7893 67.9391 39.5955C68.4327 37.2261 68.2353 34.8569 67.9391 32.3889C67.3468 28.1438 67.0506 23.8988 66.3596 19.7526C65.7673 15.6063 66.1622 11.2625 65.4711 7.11626C65.175 5.63545 64.8788 4.15464 64.0889 2.87125C62.312 -0.485253 59.6466 -0.880136 56.981 1.58788C55.4015 3.06871 54.1182 4.74697 52.8349 6.42521C52.3413 7.11626 51.7488 7.90604 51.2552 8.6958C50.268 10.5715 48.3924 12.0523 48.886 14.6191ZM57.0798 22.8129C56.981 22.8129 57.1785 22.8129 57.0798 22.8129C57.0798 24.9847 57.3759 27.0579 57.4746 29.2297C57.5734 31.0067 56.6849 32.2902 55.2041 33.2774C53.5259 34.3633 53.131 34.2645 52.0451 32.5863C50.9591 30.908 49.577 29.2297 49.577 27.0579C49.577 24.7873 49.4783 22.5167 49.4783 20.3449C49.4783 19.95 49.577 19.6539 49.8731 19.3577C51.7488 17.8768 53.7233 16.396 55.8951 15.2114C56.7836 14.7178 56.981 15.014 56.981 15.9024C57.0798 18.173 57.0798 20.5424 57.0798 22.8129ZM38.7177 40.0891C37.0394 39.9904 35.2625 39.6942 33.8804 38.707C29.438 35.5479 24.9955 32.2902 20.3555 29.3285C19.7632 28.9336 19.7632 28.6374 20.0594 28.0451C21.3429 26.1695 22.8237 24.4911 24.6993 23.3065C25.4891 22.8129 25.7852 22.8129 25.9827 23.8988C26.2788 26.6631 27.4636 28.9336 29.438 30.8092C31.4123 32.7838 33.4856 34.6594 35.8548 36.2389C37.3356 37.3248 38.8164 38.1147 40.4947 36.4364C40.6922 36.2389 40.9883 35.9428 41.3832 36.4364C42.6665 37.8186 42.3704 39.1019 40.5935 39.7929C39.9024 39.9904 39.31 40.0891 38.7177 40.0891Z" fill="url(#paint1_linear_75_183)"/>
<path d="M48.886 14.6191C47.7013 10.8677 45.6282 8.00476 42.0742 6.42521C39.8037 5.33928 37.3356 5.24056 34.8676 5.83289C31.8072 6.52393 29.2405 8.10347 27.3647 10.6702C25.5878 13.1382 24.5019 16.0012 24.9955 19.3577C24.3044 18.7653 24.3044 18.0742 24.2057 17.5807C24.107 17.0871 24.0083 16.8896 23.5147 17.0871C18.4799 19.0614 13.5439 20.9372 9.0027 23.8988C6.63339 25.4784 6.43596 27.4528 8.31165 29.6246C11.5694 33.5735 14.9259 37.4235 18.9735 40.6814C23.2185 44.1367 27.8585 46.9995 32.8931 49.0726C34.4727 49.7637 34.374 49.5662 33.3868 50.751C32.9918 51.2446 32.597 51.7382 32.3008 52.3305C30.3264 55.5882 30.9187 58.5499 34.0779 60.7217C34.9663 61.314 35.2625 61.9064 35.2625 62.8937C35.3612 66.0527 34.2753 68.7182 32.0046 70.9888C30.6226 72.3708 29.438 73.8516 28.0559 75.2338C27.4636 75.8261 27.5623 76.1223 28.352 76.4184C32.0046 77.7018 35.8548 78.5902 39.705 79.1826C44.6409 79.9723 49.6757 80.5646 54.7105 80.071C55.4015 79.9723 55.8951 79.9723 55.9939 79.0838C56.1913 73.5555 58.0671 68.4221 60.5351 63.486C64.2865 55.8844 66.1622 47.7893 67.9391 39.5955C68.4327 37.2261 68.2353 34.8569 67.9391 32.3889C67.3468 28.1438 67.0506 23.8988 66.3596 19.7526C65.7673 15.6063 66.1622 11.2625 65.4711 7.11626C65.175 5.63545 64.8788 4.15464 64.0889 2.87125C62.312 -0.485253 59.6466 -0.880136 56.981 1.58788C55.4015 3.06871 54.1182 4.74697 52.8349 6.42521C52.3413 7.11626 51.7488 7.90604 51.2552 8.6958C50.268 10.5715 48.3924 12.0523 48.886 14.6191ZM57.0798 22.8129C56.981 22.8129 57.1785 22.8129 57.0798 22.8129C57.0798 24.9847 57.3759 27.0579 57.4746 29.2297C57.5734 31.0067 56.6849 32.2902 55.2041 33.2774C53.5259 34.3633 53.131 34.2645 52.0451 32.5863C50.9591 30.908 49.577 29.2297 49.577 27.0579C49.577 24.7873 49.4783 22.5167 49.4783 20.3449C49.4783 19.95 49.577 19.6539 49.8731 19.3577C51.7488 17.8768 53.7233 16.396 55.8951 15.2114C56.7836 14.7178 56.981 15.014 56.981 15.9024C57.0798 18.173 57.0798 20.5424 57.0798 22.8129ZM38.7177 40.0891C37.0394 39.9904 35.2625 39.6942 33.8804 38.707C29.438 35.5479 24.9955 32.2902 20.3555 29.3285C19.7632 28.9336 19.7632 28.6374 20.0594 28.0451C21.3429 26.1695 22.8237 24.4911 24.6993 23.3065C25.4891 22.8129 25.7852 22.8129 25.9827 23.8988C26.2788 26.6631 27.4636 28.9336 29.438 30.8092C31.4123 32.7838 33.4856 34.6594 35.8548 36.2389C37.3356 37.3248 38.8164 38.1147 40.4947 36.4364C40.6922 36.2389 40.9883 35.9428 41.3832 36.4364C42.6665 37.8186 42.3704 39.1019 40.5935 39.7929C39.9024 39.9904 39.31 40.0891 38.7177 40.0891Z" fill="url(#paint2_linear_75_183)"/>
<path d="M48.886 14.6191C47.7013 10.8677 45.6282 8.00476 42.0742 6.42521C39.8037 5.33928 37.3356 5.24056 34.8676 5.83289C31.8072 6.52393 29.2405 8.10347 27.3647 10.6702C25.5878 13.1382 24.5019 16.0012 24.9955 19.3577C24.3044 18.7653 24.3044 18.0742 24.2057 17.5807C24.107 17.0871 24.0083 16.8896 23.5147 17.0871C18.4799 19.0614 13.5439 20.9372 9.0027 23.8988C6.63339 25.4784 6.43596 27.4528 8.31165 29.6246C11.5694 33.5735 14.9259 37.4235 18.9735 40.6814C23.2185 44.1367 27.8585 46.9995 32.8931 49.0726C34.4727 49.7637 34.374 49.5662 33.3868 50.751C32.9918 51.2446 32.597 51.7382 32.3008 52.3305C30.3264 55.5882 30.9187 58.5499 34.0779 60.7217C34.9663 61.314 35.2625 61.9064 35.2625 62.8937C35.3612 66.0527 34.2753 68.7182 32.0046 70.9888C30.6226 72.3708 29.438 73.8516 28.0559 75.2338C27.4636 75.8261 27.5623 76.1223 28.352 76.4184C32.0046 77.7018 35.8548 78.5902 39.705 79.1826C44.6409 79.9723 49.6757 80.5646 54.7105 80.071C55.4015 79.9723 55.8951 79.9723 55.9939 79.0838C56.1913 73.5555 58.0671 68.4221 60.5351 63.486C64.2865 55.8844 66.1622 47.7893 67.9391 39.5955C68.4327 37.2261 68.2353 34.8569 67.9391 32.3889C67.3468 28.1438 67.0506 23.8988 66.3596 19.7526C65.7673 15.6063 66.1622 11.2625 65.4711 7.11626C65.175 5.63545 64.8788 4.15464 64.0889 2.87125C62.312 -0.485253 59.6466 -0.880136 56.981 1.58788C55.4015 3.06871 54.1182 4.74697 52.8349 6.42521C52.3413 7.11626 51.7488 7.90604 51.2552 8.6958C50.268 10.5715 48.3924 12.0523 48.886 14.6191ZM57.0798 22.8129C56.981 22.8129 57.1785 22.8129 57.0798 22.8129C57.0798 24.9847 57.3759 27.0579 57.4746 29.2297C57.5734 31.0067 56.6849 32.2902 55.2041 33.2774C53.5259 34.3633 53.131 34.2645 52.0451 32.5863C50.9591 30.908 49.577 29.2297 49.577 27.0579C49.577 24.7873 49.4783 22.5167 49.4783 20.3449C49.4783 19.95 49.577 19.6539 49.8731 19.3577C51.7488 17.8768 53.7233 16.396 55.8951 15.2114C56.7836 14.7178 56.981 15.014 56.981 15.9024C57.0798 18.173 57.0798 20.5424 57.0798 22.8129ZM38.7177 40.0891C37.0394 39.9904 35.2625 39.6942 33.8804 38.707C29.438 35.5479 24.9955 32.2902 20.3555 29.3285C19.7632 28.9336 19.7632 28.6374 20.0594 28.0451C21.3429 26.1695 22.8237 24.4911 24.6993 23.3065C25.4891 22.8129 25.7852 22.8129 25.9827 23.8988C26.2788 26.6631 27.4636 28.9336 29.438 30.8092C31.4123 32.7838 33.4856 34.6594 35.8548 36.2389C37.3356 37.3248 38.8164 38.1147 40.4947 36.4364C40.6922 36.2389 40.9883 35.9428 41.3832 36.4364C42.6665 37.8186 42.3704 39.1019 40.5935 39.7929C39.9024 39.9904 39.31 40.0891 38.7177 40.0891Z" fill="#5CBE4D"/>
<path d="M48.886 14.6191C47.7013 10.8677 45.6282 8.00476 42.0742 6.42521C39.8037 5.33928 37.3356 5.24056 34.8676 5.83289C31.8072 6.52393 29.2405 8.10347 27.3647 10.6702C25.5878 13.1382 24.5019 16.0012 24.9955 19.3577C24.3044 18.7653 24.3044 18.0742 24.2057 17.5807C24.107 17.0871 24.0083 16.8896 23.5147 17.0871C18.4799 19.0614 13.5439 20.9372 9.0027 23.8988C6.63339 25.4784 6.43596 27.4528 8.31165 29.6246C11.5694 33.5735 14.9259 37.4235 18.9735 40.6814C23.2185 44.1367 27.8585 46.9995 32.8931 49.0726C34.4727 49.7637 34.374 49.5662 33.3868 50.751C32.9918 51.2446 32.597 51.7382 32.3008 52.3305C30.3264 55.5882 30.9187 58.5499 34.0779 60.7217C34.9663 61.314 35.2625 61.9064 35.2625 62.8937C35.3612 66.0527 34.2753 68.7182 32.0046 70.9888C30.6226 72.3708 29.438 73.8516 28.0559 75.2338C27.4636 75.8261 27.5623 76.1223 28.352 76.4184C32.0046 77.7018 35.8548 78.5902 39.705 79.1826C44.6409 79.9723 49.6757 80.5646 54.7105 80.071C55.4015 79.9723 55.8951 79.9723 55.9939 79.0838C56.1913 73.5555 58.0671 68.4221 60.5351 63.486C64.2865 55.8844 66.1622 47.7893 67.9391 39.5955C68.4327 37.2261 68.2353 34.8569 67.9391 32.3889C67.3468 28.1438 67.0506 23.8988 66.3596 19.7526C65.7673 15.6063 66.1622 11.2625 65.4711 7.11626C65.175 5.63545 64.8788 4.15464 64.0889 2.87125C62.312 -0.485253 59.6466 -0.880136 56.981 1.58788C55.4015 3.06871 54.1182 4.74697 52.8349 6.42521C52.3413 7.11626 51.7488 7.90604 51.2552 8.6958C50.268 10.5715 48.3924 12.0523 48.886 14.6191ZM57.0798 22.8129C56.981 22.8129 57.1785 22.8129 57.0798 22.8129C57.0798 24.9847 57.3759 27.0579 57.4746 29.2297C57.5734 31.0067 56.6849 32.2902 55.2041 33.2774C53.5259 34.3633 53.131 34.2645 52.0451 32.5863C50.9591 30.908 49.577 29.2297 49.577 27.0579C49.577 24.7873 49.4783 22.5167 49.4783 20.3449C49.4783 19.95 49.577 19.6539 49.8731 19.3577C51.7488 17.8768 53.7233 16.396 55.8951 15.2114C56.7836 14.7178 56.981 15.014 56.981 15.9024C57.0798 18.173 57.0798 20.5424 57.0798 22.8129ZM38.7177 40.0891C37.0394 39.9904 35.2625 39.6942 33.8804 38.707C29.438 35.5479 24.9955 32.2902 20.3555 29.3285C19.7632 28.9336 19.7632 28.6374 20.0594 28.0451C21.3429 26.1695 22.8237 24.4911 24.6993 23.3065C25.4891 22.8129 25.7852 22.8129 25.9827 23.8988C26.2788 26.6631 27.4636 28.9336 29.438 30.8092C31.4123 32.7838 33.4856 34.6594 35.8548 36.2389C37.3356 37.3248 38.8164 38.1147 40.4947 36.4364C40.6922 36.2389 40.9883 35.9428 41.3832 36.4364C42.6665 37.8186 42.3704 39.1019 40.5935 39.7929C39.9024 39.9904 39.31 40.0891 38.7177 40.0891Z" fill="url(#paint3_linear_75_183)"/>
<path d="M48.886 14.6191C47.7013 10.8677 45.6282 8.00476 42.0742 6.42521C39.8037 5.33928 37.3356 5.24056 34.8676 5.83289C31.8072 6.52393 29.2405 8.10347 27.3647 10.6702C25.5878 13.1382 24.5019 16.0012 24.9955 19.3577C24.3044 18.7653 24.3044 18.0742 24.2057 17.5807C24.107 17.0871 24.0083 16.8896 23.5147 17.0871C18.4799 19.0614 13.5439 20.9372 9.0027 23.8988C6.63339 25.4784 6.43596 27.4528 8.31165 29.6246C11.5694 33.5735 14.9259 37.4235 18.9735 40.6814C23.2185 44.1367 27.8585 46.9995 32.8931 49.0726C34.4727 49.7637 34.374 49.5662 33.3868 50.751C32.9918 51.2446 32.597 51.7382 32.3008 52.3305C30.3264 55.5882 30.9187 58.5499 34.0779 60.7217C34.9663 61.314 35.2625 61.9064 35.2625 62.8937C35.3612 66.0527 34.2753 68.7182 32.0046 70.9888C30.6226 72.3708 29.438 73.8516 28.0559 75.2338C27.4636 75.8261 27.5623 76.1223 28.352 76.4184C32.0046 77.7018 35.8548 78.5902 39.705 79.1826C44.6409 79.9723 49.6757 80.5646 54.7105 80.071C55.4015 79.9723 55.8951 79.9723 55.9939 79.0838C56.1913 73.5555 58.0671 68.4221 60.5351 63.486C64.2865 55.8844 66.1622 47.7893 67.9391 39.5955C68.4327 37.2261 68.2353 34.8569 67.9391 32.3889C67.3468 28.1438 67.0506 23.8988 66.3596 19.7526C65.7673 15.6063 66.1622 11.2625 65.4711 7.11626C65.175 5.63545 64.8788 4.15464 64.0889 2.87125C62.312 -0.485253 59.6466 -0.880136 56.981 1.58788C55.4015 3.06871 54.1182 4.74697 52.8349 6.42521C52.3413 7.11626 51.7488 7.90604 51.2552 8.6958C50.268 10.5715 48.3924 12.0523 48.886 14.6191ZM57.0798 22.8129C56.981 22.8129 57.1785 22.8129 57.0798 22.8129C57.0798 24.9847 57.3759 27.0579 57.4746 29.2297C57.5734 31.0067 56.6849 32.2902 55.2041 33.2774C53.5259 34.3633 53.131 34.2645 52.0451 32.5863C50.9591 30.908 49.577 29.2297 49.577 27.0579C49.577 24.7873 49.4783 22.5167 49.4783 20.3449C49.4783 19.95 49.577 19.6539 49.8731 19.3577C51.7488 17.8768 53.7233 16.396 55.8951 15.2114C56.7836 14.7178 56.981 15.014 56.981 15.9024C57.0798 18.173 57.0798 20.5424 57.0798 22.8129ZM38.7177 40.0891C37.0394 39.9904 35.2625 39.6942 33.8804 38.707C29.438 35.5479 24.9955 32.2902 20.3555 29.3285C19.7632 28.9336 19.7632 28.6374 20.0594 28.0451C21.3429 26.1695 22.8237 24.4911 24.6993 23.3065C25.4891 22.8129 25.7852 22.8129 25.9827 23.8988C26.2788 26.6631 27.4636 28.9336 29.438 30.8092C31.4123 32.7838 33.4856 34.6594 35.8548 36.2389C37.3356 37.3248 38.8164 38.1147 40.4947 36.4364C40.6922 36.2389 40.9883 35.9428 41.3832 36.4364C42.6665 37.8186 42.3704 39.1019 40.5935 39.7929C39.9024 39.9904 39.31 40.0891 38.7177 40.0891Z" fill="#5CBE4D"/>
<path d="M43.5548 89.9998C47.7011 89.9011 51.7486 89.5062 55.5 87.6305C56.3885 87.1369 56.5859 86.7419 56.4872 85.656C56.2898 84.5701 55.8949 84.3727 54.9077 84.3727C48.6883 84.965 42.6663 84.1752 36.5456 82.9906C32.6954 82.2996 28.9441 81.2137 25.2914 79.7328C24.6991 79.4366 24.3042 79.5353 23.9093 80.1276C23.6132 80.6212 23.1196 81.115 22.8234 81.6086C21.7374 83.1881 21.3425 82.7932 23.2183 84.274C27.0683 87.137 31.6095 88.4203 36.2494 89.21C38.6187 89.8024 41.0868 89.9011 43.5548 89.9998Z" fill="black"/>
<path d="M43.5548 89.9998C47.7011 89.9011 51.7486 89.5062 55.5 87.6305C56.3885 87.1369 56.5859 86.7419 56.4872 85.656C56.2898 84.5701 55.8949 84.3727 54.9077 84.3727C48.6883 84.965 42.6663 84.1752 36.5456 82.9906C32.6954 82.2996 28.9441 81.2137 25.2914 79.7328C24.6991 79.4366 24.3042 79.5353 23.9093 80.1276C23.6132 80.6212 23.1196 81.115 22.8234 81.6086C21.7374 83.1881 21.3425 82.7932 23.2183 84.274C27.0683 87.137 31.6095 88.4203 36.2494 89.21C38.6187 89.8024 41.0868 89.9011 43.5548 89.9998Z" fill="url(#paint4_linear_75_183)"/>
<path d="M43.5548 89.9998C47.7011 89.9011 51.7486 89.5062 55.5 87.6305C56.3885 87.1369 56.5859 86.7419 56.4872 85.656C56.2898 84.5701 55.8949 84.3727 54.9077 84.3727C48.6883 84.965 42.6663 84.1752 36.5456 82.9906C32.6954 82.2996 28.9441 81.2137 25.2914 79.7328C24.6991 79.4366 24.3042 79.5353 23.9093 80.1276C23.6132 80.6212 23.1196 81.115 22.8234 81.6086C21.7374 83.1881 21.3425 82.7932 23.2183 84.274C27.0683 87.137 31.6095 88.4203 36.2494 89.21C38.6187 89.8024 41.0868 89.9011 43.5548 89.9998Z" fill="url(#paint5_linear_75_183)"/>
<path d="M43.5548 89.9998C47.7011 89.9011 51.7486 89.5062 55.5 87.6305C56.3885 87.1369 56.5859 86.7419 56.4872 85.656C56.2898 84.5701 55.8949 84.3727 54.9077 84.3727C48.6883 84.965 42.6663 84.1752 36.5456 82.9906C32.6954 82.2996 28.9441 81.2137 25.2914 79.7328C24.6991 79.4366 24.3042 79.5353 23.9093 80.1276C23.6132 80.6212 23.1196 81.115 22.8234 81.6086C21.7374 83.1881 21.3425 82.7932 23.2183 84.274C27.0683 87.137 31.6095 88.4203 36.2494 89.21C38.6187 89.8024 41.0868 89.9011 43.5548 89.9998Z" fill="url(#paint6_linear_75_183)"/>
<path d="M88.2549 55.4106L86.7097 52.3201C86.7097 52.3201 79.6476 55.8308 74.8626 57.5541C70.1569 59.2489 62.5004 61.0766 62.5004 61.0766L60.833 65.0073C60.833 65.0073 69.6247 62.9659 74.8626 61.0766C80.2045 59.1497 88.2549 55.4106 88.2549 55.4106Z" fill="url(#paint7_linear_75_183)"/>
<path d="M88.2549 55.4106L86.7097 52.3201C86.7097 52.3201 79.6476 55.8308 74.8626 57.5541C70.1569 59.2489 62.5004 61.0766 62.5004 61.0766L60.833 65.0073C60.833 65.0073 69.6247 62.9659 74.8626 61.0766C80.2045 59.1497 88.2549 55.4106 88.2549 55.4106Z" fill="url(#paint8_linear_75_183)"/>
<path d="M88.2549 55.4106L86.7097 52.3201C86.7097 52.3201 79.6476 55.8308 74.8626 57.5541C70.1569 59.2489 62.5004 61.0766 62.5004 61.0766L60.833 65.0073C60.833 65.0073 69.6247 62.9659 74.8626 61.0766C80.2045 59.1497 88.2549 55.4106 88.2549 55.4106Z" fill="#D7E9FF"/>
<path d="M88.2549 55.4106L86.7097 52.3201C86.7097 52.3201 79.6476 55.8308 74.8626 57.5541C70.1569 59.2489 62.5004 61.0766 62.5004 61.0766L60.833 65.0073C60.833 65.0073 69.6247 62.9659 74.8626 61.0766C80.2045 59.1497 88.2549 55.4106 88.2549 55.4106Z" fill="url(#paint9_linear_75_183)"/>
<path d="M88.2549 55.4106L86.7097 52.3201C86.7097 52.3201 79.6476 55.8308 74.8626 57.5541C70.1569 59.2489 62.5004 61.0766 62.5004 61.0766L60.833 65.0073C60.833 65.0073 69.6247 62.9659 74.8626 61.0766C80.2045 59.1497 88.2549 55.4106 88.2549 55.4106Z" fill="url(#paint10_linear_75_183)"/>
<path d="M88.2549 55.4106L86.7097 52.3201C86.7097 52.3201 79.6476 55.8308 74.8626 57.5541C70.1569 59.2489 62.5004 61.0766 62.5004 61.0766L60.833 65.0073C60.833 65.0073 69.6247 62.9659 74.8626 61.0766C80.2045 59.1497 88.2549 55.4106 88.2549 55.4106Z" fill="#B4E417"/>
<path d="M88.2549 55.4106L86.7097 52.3201C86.7097 52.3201 79.6476 55.8308 74.8626 57.5541C70.1569 59.2489 62.5004 61.0766 62.5004 61.0766L60.833 65.0073C60.833 65.0073 69.6247 62.9659 74.8626 61.0766C80.2045 59.1497 88.2549 55.4106 88.2549 55.4106Z" fill="#DDEAFE"/>
<path d="M88.2549 55.4106L86.7097 52.3201C86.7097 52.3201 79.6476 55.8308 74.8626 57.5541C70.1569 59.2489 62.5004 61.0766 62.5004 61.0766L60.833 65.0073C60.833 65.0073 69.6247 62.9659 74.8626 61.0766C80.2045 59.1497 88.2549 55.4106 88.2549 55.4106Z" fill="#B4E417"/>
<path d="M58.8947 71.1209L57.607 74.2115C57.607 74.2115 62.2268 76.1581 61.9852 78.3322C61.7277 80.65 58.1158 80.8959 55.2891 81.1651C49.8806 81.6802 46.7646 81.3991 41.3817 80.65C35.0995 79.7758 31.4305 79.1873 25.6715 76.5294C22.3233 74.9841 20.0055 73.6963 20.0055 72.151C20.0055 70.6058 22.8171 69.8403 23.6112 69.5756C26.7017 68.5454 32.6252 68.2879 32.6252 68.2879L33.9129 64.9398V62.3644C33.9129 62.3644 32.3445 61.4295 31.595 60.5616C31.121 60.0127 31.1799 59.4006 30.5648 59.0162C25.461 55.8281 22.1523 54.0525 17.43 50.0022C12.2432 45.5535 5.58299 37.125 5.58299 37.125L2.75 39.1853C2.75 39.1853 8.51819 46.6148 10.9914 48.9721C14.2547 52.0823 17.9545 54.7287 20.0055 56.1833C22.8498 58.2006 33.9129 64.9398 33.9129 64.9398C33.9129 64.9398 25.6715 65.1974 22.0658 66.4851C16.3999 68.5087 16.4472 71.2025 16.3999 72.6661C16.3 75.7566 22.7694 79.0847 25.9289 80.3925C31.3621 82.6414 35.004 83.3053 40.8666 83.9981C49.2716 84.9915 55.625 85.0781 62.2428 82.7104C64.0625 82.0593 64.7994 81.241 65.3333 79.6199C66.1225 77.2241 63.5305 74.4689 62.7579 73.6964C61.278 72.2164 58.8947 71.1209 58.8947 71.1209Z" fill="url(#paint11_linear_75_183)"/>
<path d="M58.8947 71.1209L57.607 74.2115C57.607 74.2115 62.2268 76.1581 61.9852 78.3322C61.7277 80.65 58.1158 80.8959 55.2891 81.1651C49.8806 81.6802 46.7646 81.3991 41.3817 80.65C35.0995 79.7758 31.4305 79.1873 25.6715 76.5294C22.3233 74.9841 20.0055 73.6963 20.0055 72.151C20.0055 70.6058 22.8171 69.8403 23.6112 69.5756C26.7017 68.5454 32.6252 68.2879 32.6252 68.2879L33.9129 64.9398V62.3644C33.9129 62.3644 32.3445 61.4295 31.595 60.5616C31.121 60.0127 31.1799 59.4006 30.5648 59.0162C25.461 55.8281 22.1523 54.0525 17.43 50.0022C12.2432 45.5535 5.58299 37.125 5.58299 37.125L2.75 39.1853C2.75 39.1853 8.51819 46.6148 10.9914 48.9721C14.2547 52.0823 17.9545 54.7287 20.0055 56.1833C22.8498 58.2006 33.9129 64.9398 33.9129 64.9398C33.9129 64.9398 25.6715 65.1974 22.0658 66.4851C16.3999 68.5087 16.4472 71.2025 16.3999 72.6661C16.3 75.7566 22.7694 79.0847 25.9289 80.3925C31.3621 82.6414 35.004 83.3053 40.8666 83.9981C49.2716 84.9915 55.625 85.0781 62.2428 82.7104C64.0625 82.0593 64.7994 81.241 65.3333 79.6199C66.1225 77.2241 63.5305 74.4689 62.7579 73.6964C61.278 72.2164 58.8947 71.1209 58.8947 71.1209Z" fill="url(#paint12_linear_75_183)"/>
<path d="M58.8947 71.1209L57.607 74.2115C57.607 74.2115 62.2268 76.1581 61.9852 78.3322C61.7277 80.65 58.1158 80.8959 55.2891 81.1651C49.8806 81.6802 46.7646 81.3991 41.3817 80.65C35.0995 79.7758 31.4305 79.1873 25.6715 76.5294C22.3233 74.9841 20.0055 73.6963 20.0055 72.151C20.0055 70.6058 22.8171 69.8403 23.6112 69.5756C26.7017 68.5454 32.6252 68.2879 32.6252 68.2879L33.9129 64.9398V62.3644C33.9129 62.3644 32.3445 61.4295 31.595 60.5616C31.121 60.0127 31.1799 59.4006 30.5648 59.0162C25.461 55.8281 22.1523 54.0525 17.43 50.0022C12.2432 45.5535 5.58299 37.125 5.58299 37.125L2.75 39.1853C2.75 39.1853 8.51819 46.6148 10.9914 48.9721C14.2547 52.0823 17.9545 54.7287 20.0055 56.1833C22.8498 58.2006 33.9129 64.9398 33.9129 64.9398C33.9129 64.9398 25.6715 65.1974 22.0658 66.4851C16.3999 68.5087 16.4472 71.2025 16.3999 72.6661C16.3 75.7566 22.7694 79.0847 25.9289 80.3925C31.3621 82.6414 35.004 83.3053 40.8666 83.9981C49.2716 84.9915 55.625 85.0781 62.2428 82.7104C64.0625 82.0593 64.7994 81.241 65.3333 79.6199C66.1225 77.2241 63.5305 74.4689 62.7579 73.6964C61.278 72.2164 58.8947 71.1209 58.8947 71.1209Z" fill="url(#paint13_linear_75_183)"/>
<path d="M58.8947 71.1209L57.607 74.2115C57.607 74.2115 62.2268 76.1581 61.9852 78.3322C61.7277 80.65 58.1158 80.8959 55.2891 81.1651C49.8806 81.6802 46.7646 81.3991 41.3817 80.65C35.0995 79.7758 31.4305 79.1873 25.6715 76.5294C22.3233 74.9841 20.0055 73.6963 20.0055 72.151C20.0055 70.6058 22.8171 69.8403 23.6112 69.5756C26.7017 68.5454 32.6252 68.2879 32.6252 68.2879L33.9129 64.9398V62.3644C33.9129 62.3644 32.3445 61.4295 31.595 60.5616C31.121 60.0127 31.1799 59.4006 30.5648 59.0162C25.461 55.8281 22.1523 54.0525 17.43 50.0022C12.2432 45.5535 5.58299 37.125 5.58299 37.125L2.75 39.1853C2.75 39.1853 8.51819 46.6148 10.9914 48.9721C14.2547 52.0823 17.9545 54.7287 20.0055 56.1833C22.8498 58.2006 33.9129 64.9398 33.9129 64.9398C33.9129 64.9398 25.6715 65.1974 22.0658 66.4851C16.3999 68.5087 16.4472 71.2025 16.3999 72.6661C16.3 75.7566 22.7694 79.0847 25.9289 80.3925C31.3621 82.6414 35.004 83.3053 40.8666 83.9981C49.2716 84.9915 55.625 85.0781 62.2428 82.7104C64.0625 82.0593 64.7994 81.241 65.3333 79.6199C66.1225 77.2241 63.5305 74.4689 62.7579 73.6964C61.278 72.2164 58.8947 71.1209 58.8947 71.1209Z" fill="url(#paint14_linear_75_183)"/>
<path d="M58.8947 71.1209L57.607 74.2115C57.607 74.2115 62.2268 76.1581 61.9852 78.3322C61.7277 80.65 58.1158 80.8959 55.2891 81.1651C49.8806 81.6802 46.7646 81.3991 41.3817 80.65C35.0995 79.7758 31.4305 79.1873 25.6715 76.5294C22.3233 74.9841 20.0055 73.6963 20.0055 72.151C20.0055 70.6058 22.8171 69.8403 23.6112 69.5756C26.7017 68.5454 32.6252 68.2879 32.6252 68.2879L33.9129 64.9398V62.3644C33.9129 62.3644 32.3445 61.4295 31.595 60.5616C31.121 60.0127 31.1799 59.4006 30.5648 59.0162C25.461 55.8281 22.1523 54.0525 17.43 50.0022C12.2432 45.5535 5.58299 37.125 5.58299 37.125L2.75 39.1853C2.75 39.1853 8.51819 46.6148 10.9914 48.9721C14.2547 52.0823 17.9545 54.7287 20.0055 56.1833C22.8498 58.2006 33.9129 64.9398 33.9129 64.9398C33.9129 64.9398 25.6715 65.1974 22.0658 66.4851C16.3999 68.5087 16.4472 71.2025 16.3999 72.6661C16.3 75.7566 22.7694 79.0847 25.9289 80.3925C31.3621 82.6414 35.004 83.3053 40.8666 83.9981C49.2716 84.9915 55.625 85.0781 62.2428 82.7104C64.0625 82.0593 64.7994 81.241 65.3333 79.6199C66.1225 77.2241 63.5305 74.4689 62.7579 73.6964C61.278 72.2164 58.8947 71.1209 58.8947 71.1209Z" fill="#DDEAFE"/>
<path d="M58.8947 71.1209L57.607 74.2115C57.607 74.2115 62.2268 76.1581 61.9852 78.3322C61.7277 80.65 58.1158 80.8959 55.2891 81.1651C49.8806 81.6802 46.7646 81.3991 41.3817 80.65C35.0995 79.7758 31.4305 79.1873 25.6715 76.5294C22.3233 74.9841 20.0055 73.6963 20.0055 72.151C20.0055 70.6058 22.8171 69.8403 23.6112 69.5756C26.7017 68.5454 32.6252 68.2879 32.6252 68.2879L33.9129 64.9398V62.3644C33.9129 62.3644 32.3445 61.4295 31.595 60.5616C31.121 60.0127 31.1799 59.4006 30.5648 59.0162C25.461 55.8281 22.1523 54.0525 17.43 50.0022C12.2432 45.5535 5.58299 37.125 5.58299 37.125L2.75 39.1853C2.75 39.1853 8.51819 46.6148 10.9914 48.9721C14.2547 52.0823 17.9545 54.7287 20.0055 56.1833C22.8498 58.2006 33.9129 64.9398 33.9129 64.9398C33.9129 64.9398 25.6715 65.1974 22.0658 66.4851C16.3999 68.5087 16.4472 71.2025 16.3999 72.6661C16.3 75.7566 22.7694 79.0847 25.9289 80.3925C31.3621 82.6414 35.004 83.3053 40.8666 83.9981C49.2716 84.9915 55.625 85.0781 62.2428 82.7104C64.0625 82.0593 64.7994 81.241 65.3333 79.6199C66.1225 77.2241 63.5305 74.4689 62.7579 73.6964C61.278 72.2164 58.8947 71.1209 58.8947 71.1209Z" fill="#B4E417"/>
<defs>
<linearGradient id="paint0_linear_75_183" x1="68.2398" y1="-3.49569e-07" x2="-10.6783" y2="25.5943" gradientUnits="userSpaceOnUse">
<stop stop-color="#FC5997"/>
<stop offset="1" stop-color="#9046B3"/>
</linearGradient>
<linearGradient id="paint1_linear_75_183" x1="7.04785" y1="0" x2="87.069" y2="29.9604" gradientUnits="userSpaceOnUse">
<stop stop-color="#B0E532"/>
<stop offset="0.426869" stop-color="#35A004"/>
<stop offset="1" stop-color="#61CF0C"/>
</linearGradient>
<linearGradient id="paint2_linear_75_183" x1="7.04785" y1="0" x2="87.069" y2="29.9604" gradientUnits="userSpaceOnUse">
<stop stop-color="#AFE11E"/>
<stop offset="1" stop-color="#4DB856"/>
</linearGradient>
<linearGradient id="paint3_linear_75_183" x1="7.04785" y1="0" x2="87.069" y2="29.9604" gradientUnits="userSpaceOnUse">
<stop stop-color="#AFE11E"/>
<stop offset="1" stop-color="#4DB856"/>
</linearGradient>
<linearGradient id="paint4_linear_75_183" x1="56.5103" y1="79.571" x2="40.0239" y2="102.836" gradientUnits="userSpaceOnUse">
<stop stop-color="#FC5997"/>
<stop offset="1" stop-color="#9046B3"/>
</linearGradient>
<linearGradient id="paint5_linear_75_183" x1="21.9102" y1="79.571" x2="36.029" y2="102.572" gradientUnits="userSpaceOnUse">
<stop stop-color="#B0E532"/>
<stop offset="0.426869" stop-color="#35A004"/>
<stop offset="1" stop-color="#61CF0C"/>
</linearGradient>
<linearGradient id="paint6_linear_75_183" x1="21.9102" y1="79.571" x2="36.029" y2="102.572" gradientUnits="userSpaceOnUse">
<stop stop-color="#AFE11E"/>
<stop offset="1" stop-color="#4DB856"/>
</linearGradient>
<linearGradient id="paint7_linear_75_183" x1="88.2549" y1="37.125" x2="11.2481" y2="95.904" gradientUnits="userSpaceOnUse">
<stop stop-color="#FC5997"/>
<stop offset="1" stop-color="#9046B3"/>
</linearGradient>
<linearGradient id="paint8_linear_75_183" x1="88.2549" y1="37.125" x2="11.29" y2="95.9155" gradientUnits="userSpaceOnUse">
<stop stop-color="#FC5997"/>
<stop offset="1" stop-color="#9046B3"/>
</linearGradient>
<linearGradient id="paint9_linear_75_183" x1="60.833" y1="52.3201" x2="80.0617" y2="72.7273" gradientUnits="userSpaceOnUse">
<stop stop-color="#B0E532"/>
<stop offset="0.426869" stop-color="#35A004"/>
<stop offset="1" stop-color="#61CF0C"/>
</linearGradient>
<linearGradient id="paint10_linear_75_183" x1="60.833" y1="52.3201" x2="80.0617" y2="72.7273" gradientUnits="userSpaceOnUse">
<stop stop-color="#AFE11E"/>
<stop offset="1" stop-color="#4DB856"/>
</linearGradient>
<linearGradient id="paint11_linear_75_183" x1="88.2548" y1="37.125" x2="11.248" y2="95.904" gradientUnits="userSpaceOnUse">
<stop stop-color="#FC5997"/>
<stop offset="1" stop-color="#9046B3"/>
</linearGradient>
<linearGradient id="paint12_linear_75_183" x1="88.2548" y1="37.125" x2="11.2899" y2="95.9155" gradientUnits="userSpaceOnUse">
<stop stop-color="#FC5997"/>
<stop offset="1" stop-color="#9046B3"/>
</linearGradient>
<linearGradient id="paint13_linear_75_183" x1="2.75" y1="37.125" x2="68.6203" y2="79.812" gradientUnits="userSpaceOnUse">
<stop stop-color="#B0E532"/>
<stop offset="0.426869" stop-color="#35A004"/>
<stop offset="1" stop-color="#61CF0C"/>
</linearGradient>
<linearGradient id="paint14_linear_75_183" x1="2.75" y1="37.125" x2="68.6203" y2="79.812" gradientUnits="userSpaceOnUse">
<stop stop-color="#AFE11E"/>
<stop offset="1" stop-color="#4DB856"/>
</linearGradient>
</defs>
</svg>
