<svg width="30" height="11" viewBox="0 0 30 11" fill="none" xmlns="http://www.w3.org/2000/svg">
<path fill-rule="evenodd" clip-rule="evenodd" d="M29.565 1.35338C29.3248 0.937244 28.7926 0.794665 28.3765 1.03492L14.8992 8.81608L1.62358 1.15142C1.20744 0.911165 0.675326 1.05374 0.435069 1.46988C0.194812 1.88602 0.337392 2.41813 0.753531 2.65839L14.4469 10.5642C14.5921 10.6481 14.7514 10.6853 14.9075 10.6805C15.0584 10.6823 15.2118 10.6449 15.352 10.5639L29.2466 2.54189C29.6627 2.30163 29.8053 1.76952 29.565 1.35338Z" fill="#9046B3"/>
<path fill-rule="evenodd" clip-rule="evenodd" d="M29.565 1.35338C29.3248 0.937244 28.7926 0.794665 28.3765 1.03492L14.8992 8.81608L1.62358 1.15142C1.20744 0.911165 0.675326 1.05374 0.435069 1.46988C0.194812 1.88602 0.337392 2.41813 0.753531 2.65839L14.4469 10.5642C14.5921 10.6481 14.7514 10.6853 14.9075 10.6805C15.0584 10.6823 15.2118 10.6449 15.352 10.5639L29.2466 2.54189C29.6627 2.30163 29.8053 1.76952 29.565 1.35338Z" fill="url(#paint0_linear_75_165)"/>
<path fill-rule="evenodd" clip-rule="evenodd" d="M29.565 1.35338C29.3248 0.937244 28.7926 0.794665 28.3765 1.03492L14.8992 8.81608L1.62358 1.15142C1.20744 0.911165 0.675326 1.05374 0.435069 1.46988C0.194812 1.88602 0.337392 2.41813 0.753531 2.65839L14.4469 10.5642C14.5921 10.6481 14.7514 10.6853 14.9075 10.6805C15.0584 10.6823 15.2118 10.6449 15.352 10.5639L29.2466 2.54189C29.6627 2.30163 29.8053 1.76952 29.565 1.35338Z" fill="url(#paint1_linear_75_165)"/>
<path fill-rule="evenodd" clip-rule="evenodd" d="M29.565 1.35338C29.3248 0.937244 28.7926 0.794665 28.3765 1.03492L14.8992 8.81608L1.62358 1.15142C1.20744 0.911165 0.675326 1.05374 0.435069 1.46988C0.194812 1.88602 0.337392 2.41813 0.753531 2.65839L14.4469 10.5642C14.5921 10.6481 14.7514 10.6853 14.9075 10.6805C15.0584 10.6823 15.2118 10.6449 15.352 10.5639L29.2466 2.54189C29.6627 2.30163 29.8053 1.76952 29.565 1.35338Z" fill="url(#paint2_linear_75_165)"/>
<path fill-rule="evenodd" clip-rule="evenodd" d="M29.565 1.35338C29.3248 0.937244 28.7926 0.794665 28.3765 1.03492L14.8992 8.81608L1.62358 1.15142C1.20744 0.911165 0.675326 1.05374 0.435069 1.46988C0.194812 1.88602 0.337392 2.41813 0.753531 2.65839L14.4469 10.5642C14.5921 10.6481 14.7514 10.6853 14.9075 10.6805C15.0584 10.6823 15.2118 10.6449 15.352 10.5639L29.2466 2.54189C29.6627 2.30163 29.8053 1.76952 29.565 1.35338Z" fill="url(#paint3_linear_75_165)"/>
<defs>
<linearGradient id="paint0_linear_75_165" x1="0.318359" y1="0.918213" x2="16.1925" y2="21.2255" gradientUnits="userSpaceOnUse">
<stop stop-color="#FC5997"/>
<stop offset="1" stop-color="#9046B3"/>
</linearGradient>
<linearGradient id="paint1_linear_75_165" x1="0.318359" y1="0.918213" x2="14.0814" y2="21.2442" gradientUnits="userSpaceOnUse">
<stop stop-color="#AFE11E"/>
<stop offset="1" stop-color="#4DB856"/>
</linearGradient>
<linearGradient id="paint2_linear_75_165" x1="29.6817" y1="0.918213" x2="13.8076" y2="21.2255" gradientUnits="userSpaceOnUse">
<stop stop-color="#FC5997"/>
<stop offset="1" stop-color="#9046B3"/>
</linearGradient>
<linearGradient id="paint3_linear_75_165" x1="0.318359" y1="0.918213" x2="14.0814" y2="21.2442" gradientUnits="userSpaceOnUse">
<stop stop-color="#AFE11E"/>
<stop offset="1" stop-color="#4DB856"/>
</linearGradient>
</defs>
</svg>
