<?xml version="1.0" encoding="utf-8"?><svg viewBox="0 0 30 18" xmlns="http://www.w3.org/2000/svg" xmlns:xlink="http://www.w3.org/1999/xlink"><style>:root>svg{display:none}:root>svg:target{display:block}</style><svg fill="none" viewBox="0 0 28 18" id="icon-arrow-back" xmlns="http://www.w3.org/2000/svg"><path fill-rule="evenodd" clip-rule="evenodd" d="M27.125 9a.938.938 0 00-.938-.937H4.076l5.9-5.9A.939.939 0 108.65.837l-7.5 7.5a.937.937 0 000 1.328l7.5 7.5a.939.939 0 001.327-1.328l-5.9-5.898h22.111A.938.938 0 0027.125 9z" fill="currentColor"/></svg><svg fill="none" viewBox="0 0 16 16" id="icon-close" xmlns="http://www.w3.org/2000/svg"><path fill-rule="evenodd" clip-rule="evenodd" d="M13.854 2.146a.5.5 0 010 .708l-11 11a.5.5 0 01-.708-.708l11-11a.5.5 0 01.708 0z" fill="#000"/><path fill-rule="evenodd" clip-rule="evenodd" d="M2.146 2.146a.5.5 0 000 .708l11 11a.5.5 0 00.708-.708l-11-11a.5.5 0 00-.708 0z" fill="#000"/></svg><svg fill="none" viewBox="0 0 30 11" id="icon-dropdown" xmlns="http://www.w3.org/2000/svg"><path fill-rule="evenodd" clip-rule="evenodd" d="M29.565 1.353a.87.87 0 00-1.189-.318L14.9 8.816 1.624 1.151a.87.87 0 00-.87 1.507l13.693 7.906a.865.865 0 00.46.117.865.865 0 00.445-.117l13.895-8.022a.87.87 0 00.318-1.189z" fill="#9046B3"/><path fill-rule="evenodd" clip-rule="evenodd" d="M29.565 1.353a.87.87 0 00-1.189-.318L14.9 8.816 1.624 1.151a.87.87 0 00-.87 1.507l13.693 7.906a.865.865 0 00.46.117.865.865 0 00.445-.117l13.895-8.022a.87.87 0 00.318-1.189z" fill="url(#cpaint0_linear_75_165)"/><path fill-rule="evenodd" clip-rule="evenodd" d="M29.565 1.353a.87.87 0 00-1.189-.318L14.9 8.816 1.624 1.151a.87.87 0 00-.87 1.507l13.693 7.906a.865.865 0 00.46.117.865.865 0 00.445-.117l13.895-8.022a.87.87 0 00.318-1.189z" fill="url(#cpaint1_linear_75_165)"/><path fill-rule="evenodd" clip-rule="evenodd" d="M29.565 1.353a.87.87 0 00-1.189-.318L14.9 8.816 1.624 1.151a.87.87 0 00-.87 1.507l13.693 7.906a.865.865 0 00.46.117.865.865 0 00.445-.117l13.895-8.022a.87.87 0 00.318-1.189z" fill="url(#cpaint2_linear_75_165)"/><path fill-rule="evenodd" clip-rule="evenodd" d="M29.565 1.353a.87.87 0 00-1.189-.318L14.9 8.816 1.624 1.151a.87.87 0 00-.87 1.507l13.693 7.906a.865.865 0 00.46.117.865.865 0 00.445-.117l13.895-8.022a.87.87 0 00.318-1.189z" fill="url(#cpaint3_linear_75_165)"/><defs><linearGradient id="cpaint0_linear_75_165" x1=".318" y1=".918" x2="16.192" y2="21.226" gradientUnits="userSpaceOnUse"><stop stop-color="#FC5997"/><stop offset="1" stop-color="#9046B3"/></linearGradient><linearGradient id="cpaint1_linear_75_165" x1=".318" y1=".918" x2="14.081" y2="21.244" gradientUnits="userSpaceOnUse"><stop stop-color="#AFE11E"/><stop offset="1" stop-color="#4DB856"/></linearGradient><linearGradient id="cpaint2_linear_75_165" x1="29.682" y1=".918" x2="13.808" y2="21.226" gradientUnits="userSpaceOnUse"><stop stop-color="#FC5997"/><stop offset="1" stop-color="#9046B3"/></linearGradient><linearGradient id="cpaint3_linear_75_165" x1=".318" y1=".918" x2="14.081" y2="21.244" gradientUnits="userSpaceOnUse"><stop stop-color="#AFE11E"/><stop offset="1" stop-color="#4DB856"/></linearGradient></defs></svg></svg>