<svg width="108" height="108" viewBox="0 0 108 108" fill="none" xmlns="http://www.w3.org/2000/svg">
<path d="M108 57.615C107.662 58.5152 107.803 59.4999 107.634 60.4282C107.128 63.1289 104.709 65.0138 102.009 64.7606C99.2529 64.5356 97.1436 62.2287 97.2279 59.4436C97.2842 57.4181 97.5092 55.3926 97.4811 53.3389C97.3123 32.943 82.1248 14.9383 62.0717 11.3655C38.6154 7.17374 16.6217 21.7744 11.5029 44.9555C6.4123 67.9677 21.3748 91.4019 44.4092 96.4376C55.9967 98.9695 66.8529 97.0565 77.0061 90.9237C79.8467 89.2076 82.9686 89.8265 84.5717 92.3866C86.1467 94.9185 85.4154 98.0693 82.7998 99.7291C77.2029 103.246 71.1842 105.693 64.7154 106.959C35.6904 112.614 8.2123 94.8903 1.37793 66.111C0.787305 63.5791 0.36543 61.019 0.168555 58.4027C0.14043 58.0651 0.0560547 57.7275 -0.0283203 57.3899C-0.0283203 54.9987 -0.0283203 52.6074 -0.0283203 50.2162C0.168555 50.0193 0.14043 49.7661 0.14043 49.5129C0.281055 47.403 0.618555 45.3212 1.0123 43.2675C5.11855 22.1964 22.4436 4.97942 43.5654 1.01276C45.8998 0.562646 48.2904 0.36572 50.6248 0C53.0154 0 55.4061 0 57.7967 0C59.6529 0.281323 61.5373 0.506382 63.3936 0.815837C85.6404 4.66997 103.387 22.4215 107.156 44.5897C107.494 46.5309 107.719 48.472 108 50.4131C108 52.8325 108 55.2238 108 57.615Z" fill="black"/>
<path d="M108 57.615C107.662 58.5152 107.803 59.4999 107.634 60.4282C107.128 63.1289 104.709 65.0138 102.009 64.7606C99.2529 64.5356 97.1436 62.2287 97.2279 59.4436C97.2842 57.4181 97.5092 55.3926 97.4811 53.3389C97.3123 32.943 82.1248 14.9383 62.0717 11.3655C38.6154 7.17374 16.6217 21.7744 11.5029 44.9555C6.4123 67.9677 21.3748 91.4019 44.4092 96.4376C55.9967 98.9695 66.8529 97.0565 77.0061 90.9237C79.8467 89.2076 82.9686 89.8265 84.5717 92.3866C86.1467 94.9185 85.4154 98.0693 82.7998 99.7291C77.2029 103.246 71.1842 105.693 64.7154 106.959C35.6904 112.614 8.2123 94.8903 1.37793 66.111C0.787305 63.5791 0.36543 61.019 0.168555 58.4027C0.14043 58.0651 0.0560547 57.7275 -0.0283203 57.3899C-0.0283203 54.9987 -0.0283203 52.6074 -0.0283203 50.2162C0.168555 50.0193 0.14043 49.7661 0.14043 49.5129C0.281055 47.403 0.618555 45.3212 1.0123 43.2675C5.11855 22.1964 22.4436 4.97942 43.5654 1.01276C45.8998 0.562646 48.2904 0.36572 50.6248 0C53.0154 0 55.4061 0 57.7967 0C59.6529 0.281323 61.5373 0.506382 63.3936 0.815837C85.6404 4.66997 103.387 22.4215 107.156 44.5897C107.494 46.5309 107.719 48.472 108 50.4131C108 52.8325 108 55.2238 108 57.615Z" fill="url(#paint0_linear_77_2053)"/>
<path d="M108 57.615C107.662 58.5152 107.803 59.4999 107.634 60.4282C107.128 63.1289 104.709 65.0138 102.009 64.7606C99.2529 64.5356 97.1436 62.2287 97.2279 59.4436C97.2842 57.4181 97.5092 55.3926 97.4811 53.3389C97.3123 32.943 82.1248 14.9383 62.0717 11.3655C38.6154 7.17374 16.6217 21.7744 11.5029 44.9555C6.4123 67.9677 21.3748 91.4019 44.4092 96.4376C55.9967 98.9695 66.8529 97.0565 77.0061 90.9237C79.8467 89.2076 82.9686 89.8265 84.5717 92.3866C86.1467 94.9185 85.4154 98.0693 82.7998 99.7291C77.2029 103.246 71.1842 105.693 64.7154 106.959C35.6904 112.614 8.2123 94.8903 1.37793 66.111C0.787305 63.5791 0.36543 61.019 0.168555 58.4027C0.14043 58.0651 0.0560547 57.7275 -0.0283203 57.3899C-0.0283203 54.9987 -0.0283203 52.6074 -0.0283203 50.2162C0.168555 50.0193 0.14043 49.7661 0.14043 49.5129C0.281055 47.403 0.618555 45.3212 1.0123 43.2675C5.11855 22.1964 22.4436 4.97942 43.5654 1.01276C45.8998 0.562646 48.2904 0.36572 50.6248 0C53.0154 0 55.4061 0 57.7967 0C59.6529 0.281323 61.5373 0.506382 63.3936 0.815837C85.6404 4.66997 103.387 22.4215 107.156 44.5897C107.494 46.5309 107.719 48.472 108 50.4131C108 52.8325 108 55.2238 108 57.615Z" fill="url(#paint1_linear_77_2053)"/>
<path d="M80.4091 39.4416C80.4372 41.1014 79.6779 42.3955 78.5529 43.5208C71.0435 51.0321 63.5341 58.5435 56.0529 66.0267C53.9716 68.1085 51.8904 70.2184 49.781 72.272C47.5872 74.4101 44.4654 74.4382 42.2997 72.3283C37.8841 67.9678 33.4685 63.551 29.1091 59.1342C27.2529 57.2494 27.056 54.4361 28.5466 52.3825C30.0372 50.3288 32.7372 49.5974 35.0154 50.6383C35.7747 50.9759 36.3654 51.5104 36.956 52.073C39.7404 54.8581 42.5529 57.6151 45.281 60.4283C45.8997 61.0472 46.2091 60.9628 46.7435 60.4002C54.8154 52.2699 62.9435 44.196 71.0154 36.0657C72.5622 34.4903 74.3341 33.7589 76.5279 34.3497C78.8904 34.9967 80.4091 37.0222 80.4091 39.4416Z" fill="black"/>
<path d="M80.4091 39.4416C80.4372 41.1014 79.6779 42.3955 78.5529 43.5208C71.0435 51.0321 63.5341 58.5435 56.0529 66.0267C53.9716 68.1085 51.8904 70.2184 49.781 72.272C47.5872 74.4101 44.4654 74.4382 42.2997 72.3283C37.8841 67.9678 33.4685 63.551 29.1091 59.1342C27.2529 57.2494 27.056 54.4361 28.5466 52.3825C30.0372 50.3288 32.7372 49.5974 35.0154 50.6383C35.7747 50.9759 36.3654 51.5104 36.956 52.073C39.7404 54.8581 42.5529 57.6151 45.281 60.4283C45.8997 61.0472 46.2091 60.9628 46.7435 60.4002C54.8154 52.2699 62.9435 44.196 71.0154 36.0657C72.5622 34.4903 74.3341 33.7589 76.5279 34.3497C78.8904 34.9967 80.4091 37.0222 80.4091 39.4416Z" fill="url(#paint2_linear_77_2053)"/>
<path d="M80.4091 39.4416C80.4372 41.1014 79.6779 42.3955 78.5529 43.5208C71.0435 51.0321 63.5341 58.5435 56.0529 66.0267C53.9716 68.1085 51.8904 70.2184 49.781 72.272C47.5872 74.4101 44.4654 74.4382 42.2997 72.3283C37.8841 67.9678 33.4685 63.551 29.1091 59.1342C27.2529 57.2494 27.056 54.4361 28.5466 52.3825C30.0372 50.3288 32.7372 49.5974 35.0154 50.6383C35.7747 50.9759 36.3654 51.5104 36.956 52.073C39.7404 54.8581 42.5529 57.6151 45.281 60.4283C45.8997 61.0472 46.2091 60.9628 46.7435 60.4002C54.8154 52.2699 62.9435 44.196 71.0154 36.0657C72.5622 34.4903 74.3341 33.7589 76.5279 34.3497C78.8904 34.9967 80.4091 37.0222 80.4091 39.4416Z" fill="url(#paint3_linear_77_2053)"/>
<defs>
<linearGradient id="paint0_linear_77_2053" x1="-0.0283203" y1="0" x2="130.352" y2="55.4652" gradientUnits="userSpaceOnUse">
<stop stop-color="#FC5997"/>
<stop offset="1" stop-color="#9046B3"/>
</linearGradient>
<linearGradient id="paint1_linear_77_2053" x1="-0.0283203" y1="0" x2="129.744" y2="63.733" gradientUnits="userSpaceOnUse">
<stop stop-color="#AFE11E"/>
<stop offset="1" stop-color="#4DB856"/>
</linearGradient>
<linearGradient id="paint2_linear_77_2053" x1="27.5566" y1="34.146" x2="84.6327" y2="66.4268" gradientUnits="userSpaceOnUse">
<stop stop-color="#FC5997"/>
<stop offset="1" stop-color="#9046B3"/>
</linearGradient>
<linearGradient id="paint3_linear_77_2053" x1="27.5566" y1="34.146" x2="82.8077" y2="70.2209" gradientUnits="userSpaceOnUse">
<stop stop-color="#AFE11E"/>
<stop offset="1" stop-color="#4DB856"/>
</linearGradient>
</defs>
</svg>
