<svg width="89" height="200" viewBox="0 0 89 200" fill="none" xmlns="http://www.w3.org/2000/svg">
<mask id="path-1-inside-1_75_177" fill="white">
<path d="M87.4564 100.959C87.2156 100.477 86.9749 99.7547 86.9749 99.2731C87.938 98.3099 87.4564 95.4204 87.4564 94.4572C87.4564 92.5308 87.6972 90.8453 87.938 88.9189C88.4196 84.8254 88.1788 80.9727 87.938 77.12C87.938 75.916 87.6972 72.5449 86.7341 71.1001C86.4933 69.1737 85.7709 67.9698 85.0485 66.0434C84.8077 65.0802 84.8077 62.4315 84.3261 60.7459C84.5669 58.8196 83.8445 56.8932 83.3629 55.2076C82.8813 53.7629 82.159 50.8733 81.1958 49.6694C81.1958 49.1878 81.1958 48.7062 81.1958 48.4654C80.955 46.0574 79.9918 42.6863 78.0654 41.0007C77.1023 40.0376 75.6575 39.7968 74.4535 39.0744C73.0088 38.352 72.0456 37.8704 70.6008 37.3888C70.36 36.6664 69.3968 36.1848 68.6744 35.7033C67.9521 35.2217 66.9889 34.9809 66.0257 34.4993C65.3033 34.0177 64.3401 33.5361 63.6178 33.0545C62.8954 32.5729 61.9322 31.8505 61.2098 31.369C60.7282 30.8874 60.0058 30.4058 59.5242 29.9242C59.0427 28.2386 59.0427 26.3123 59.0427 24.3859C59.2835 23.9043 59.5242 23.6635 59.5242 23.1819C59.5242 22.7003 59.765 22.2187 60.0058 21.4964C60.0058 21.0148 60.0058 20.5332 60.2466 20.0516C60.7282 19.8108 60.969 19.57 61.2098 19.0884C61.6914 18.1252 62.173 16.6805 62.4138 15.7173C62.4138 15.2357 62.6546 14.2725 62.4138 13.7909C62.173 13.3093 61.6914 13.5501 61.4506 13.7909C61.6914 12.1054 61.6914 10.4198 61.6914 8.73424C61.4506 5.12232 60.2466 1.02881 55.9123 0.547216C53.986 0.306422 51.8188 -0.175168 49.8925 0.0656268C48.2069 0.306422 47.0029 1.2696 46.0397 2.71437C45.3174 2.95516 44.8358 3.19596 44.3542 3.91834C43.8726 4.64073 43.8726 5.60391 43.6318 6.32629C43.391 7.28947 43.1502 8.25265 43.1502 8.97503C42.9094 10.6606 43.1502 12.587 43.1502 14.2725C42.9094 14.0317 42.4278 14.0317 42.187 14.5133C41.7054 15.7173 42.187 16.9213 42.6686 18.1252C42.9094 19.0884 43.6318 20.2924 44.595 20.5332C44.595 21.2556 45.0766 22.9411 45.0766 23.4227C45.3174 24.6267 45.3174 25.8307 45.0766 26.7939C45.0766 27.0346 45.0766 27.2754 45.0766 27.5162C44.595 27.757 43.8726 28.4794 43.6318 28.7202C42.4278 29.6834 41.4646 30.6466 40.0199 31.1282C39.0567 31.6097 37.1303 31.8505 36.4079 32.8137C35.4448 32.5729 34.4816 32.3321 33.2776 32.3321C30.8697 32.3321 28.4617 33.0545 26.0538 34.0177C24.8498 34.4993 23.6458 35.2217 22.6826 35.9441C21.9603 36.4256 20.9971 37.3888 20.5155 38.1112C20.0339 38.1112 19.7931 38.1112 19.3115 38.1112C18.1075 38.1112 16.9036 38.5928 15.6996 39.3152C15.218 39.556 14.014 40.2784 13.5324 41.0007C13.5324 40.0376 13.5324 39.3152 13.5324 38.352C13.5324 35.4625 13.7732 33.0545 14.7364 30.4058C15.4588 28.2386 16.9036 26.3123 18.3483 24.3859C19.3115 24.3859 20.0339 24.1451 20.7563 23.4227C21.4787 23.1819 22.4418 22.7003 22.9234 21.7372C23.405 21.0148 23.6458 20.0516 24.1274 19.3292C24.609 18.366 24.3682 17.4029 24.1274 16.4397C23.8866 15.2357 23.6458 14.7541 22.4418 15.2357C22.4418 14.7541 22.2011 14.5133 21.9603 14.0317C21.4787 12.8278 20.7563 13.0685 19.5523 13.3093C18.8299 13.5501 16.9036 13.3093 16.422 14.2725C15.6996 14.2725 14.9772 14.2725 14.7364 14.7541C14.2548 14.7541 13.5324 14.9949 13.7732 15.4765C13.0509 15.7173 12.8101 16.1989 12.5693 16.6805C12.0877 17.4029 12.0877 18.1252 12.0877 18.8476C12.0877 19.57 11.8469 20.2924 11.6061 21.2556C11.3653 21.978 11.3653 22.7003 11.1245 23.4227C10.8837 23.6635 10.8837 24.3859 10.8837 24.8675C10.6429 25.3491 10.4021 26.0715 10.4021 26.5531C10.1613 27.2754 9.92052 27.9978 9.43893 28.7202C8.47575 30.165 7.51257 31.6097 6.54939 33.0545C4.62303 35.9441 2.69668 39.556 1.97429 42.9271C1.7335 43.8903 1.01111 46.0574 1.01111 47.743C0.0479343 49.1878 -0.67445 52.3181 1.01111 53.2813C1.97429 53.7629 2.93747 54.0037 3.90065 54.2445C4.86383 54.726 6.0678 54.9668 7.27178 54.9668C7.99416 54.9668 8.95734 54.726 9.67972 54.2445C12.0877 54.2445 14.7364 53.7629 17.1444 53.5221C20.0339 53.0405 22.6826 52.3181 25.0906 50.8733C25.813 50.3917 26.7762 49.9102 27.4985 49.4286C29.4249 51.3549 30.1473 54.4853 31.1105 56.8932C32.3144 59.7827 32.796 62.9131 34 65.8026C34.2408 66.525 34.7224 67.4882 35.204 68.4513C34.9632 69.1737 34.9632 70.1369 34.7224 70.6185C34.4816 71.5817 34.2408 72.3041 34 73.2672C33.5184 74.9528 33.5184 77.12 33.2776 79.0463C33.2776 79.7687 33.2776 80.7319 33.0368 81.4543C32.796 81.4543 32.3144 81.2135 32.0736 81.6951C31.8328 81.9359 31.592 82.4175 31.592 82.899C31.3513 83.6214 31.1105 84.5846 30.6289 85.307C30.1473 86.2702 28.7025 88.1965 29.6657 89.1597C28.4617 91.5677 27.9801 94.2164 27.4985 96.8651C27.0169 100.236 26.2946 103.367 25.813 106.738C25.3314 113.48 26.0538 120.222 27.0169 126.724C27.2577 128.891 27.9801 131.058 28.2209 133.466C27.0169 135.392 27.4985 139.004 27.4985 141.171C27.4985 142.375 27.0169 143.82 26.7762 145.265C25.813 146.228 25.0906 150.081 25.0906 151.044C24.609 153.693 24.3682 156.101 24.3682 158.749C24.3682 161.398 24.3682 164.047 24.609 166.696C24.8498 169.104 25.5722 171.512 25.813 174.16C26.0538 175.605 25.813 177.291 25.813 178.735C25.813 179.699 25.5722 180.903 25.3314 181.866C23.8866 182.829 23.1642 184.996 22.9234 186.922C21.9603 188.367 21.2379 189.812 20.0339 191.257C18.8299 192.701 16.422 193.905 15.9404 196.073C14.4956 201.852 23.405 199.685 25.5722 199.203C27.7393 198.962 28.7025 197.758 29.1841 195.832C29.6657 195.832 29.9065 195.591 30.3881 195.591C33.0368 194.869 33.2776 193.183 32.5552 190.775C32.0736 189.33 32.0736 186.682 31.3513 185.237C31.3513 182.829 31.3513 180.662 31.592 178.254C32.0736 175.605 33.0368 173.197 34 170.548C34.9632 167.9 35.4448 165.251 36.1672 162.843C37.1303 158.268 36.4079 153.693 36.1672 149.118C35.9264 145.746 37.6119 142.375 39.0567 139.486C40.2607 136.837 40.7423 133.948 41.2238 131.058C41.4646 129.613 41.9462 128.168 42.187 126.724C42.4278 125.279 42.4278 123.593 42.6686 122.149C43.391 119.259 45.5581 117.092 46.7621 114.202C47.2437 112.758 47.7253 111.313 47.9661 109.868C48.2069 109.386 48.2069 108.664 48.4477 108.183C48.6885 108.905 48.9293 109.627 48.9293 110.35C49.1701 111.794 49.4109 112.998 49.8925 114.443C50.8556 117.333 52.0596 119.981 52.5412 122.63C52.782 124.075 53.0228 125.52 53.5044 126.964C53.986 128.168 54.4676 129.372 54.9491 130.817C55.6715 133.466 55.9123 136.355 56.8755 139.245C57.3571 140.69 58.3203 142.135 58.8019 143.579C59.0427 144.061 59.2834 145.024 59.765 145.987C59.0427 151.285 59.765 157.064 60.969 162.121C62.173 167.418 65.3033 172.475 65.7849 177.772C66.0257 179.217 66.0257 180.903 66.2665 182.588C66.2665 183.31 66.2665 183.792 66.2665 184.514C65.5441 185.478 65.5441 186.922 65.5441 188.126C65.5441 189.571 65.3033 190.534 65.0625 191.979C64.3401 194.869 67.2297 195.35 69.3968 195.591C69.156 199.203 73.9719 199.444 76.8615 198.962C78.547 198.721 80.955 198.962 82.159 197.517C83.6037 195.832 81.9182 193.905 80.4734 192.942C79.2694 191.979 78.0654 191.016 76.8615 190.053C76.3799 188.608 75.4167 187.404 74.9351 185.959C74.6943 185.237 73.7311 181.384 72.5272 181.866C72.0456 179.458 72.2864 177.05 72.2864 174.642C72.2864 169.104 72.768 165.492 72.2864 159.231C72.0456 156.582 72.2864 153.452 71.564 150.562C71.3232 149.118 70.6008 145.746 69.3968 143.339C69.6376 141.412 69.156 139.245 68.9152 137.319C68.6744 135.152 68.9152 133.225 68.9152 131.058C69.8784 128.891 69.6376 127.205 69.8784 124.797C70.36 118.777 69.156 113.48 68.6744 107.701C68.4337 105.052 68.1929 102.403 67.7113 99.5139C67.2297 97.1059 66.5073 94.4572 66.2665 91.8084C67.4705 91.0861 66.5073 88.4373 66.0257 87.4741C65.3033 86.2702 65.3033 83.8622 63.8586 83.3806C63.8586 82.6582 64.0993 81.6951 64.0993 80.9727C64.3401 78.8055 64.8217 76.8792 64.8217 74.712C64.8217 73.508 64.8217 72.5449 64.8217 71.3409C64.8217 70.8593 64.5809 70.1369 64.5809 69.4145C65.0625 68.9329 65.5441 68.4514 65.7849 67.729C66.7481 66.0434 67.2297 64.3578 67.9521 62.6723C68.4336 61.7091 68.9152 60.7459 69.3968 59.5419C69.6376 61.2275 70.6008 63.3947 71.0824 64.8394C72.0456 66.7658 73.0088 68.6921 74.6943 70.1369C75.1759 70.6185 75.6575 71.1001 76.1391 71.5817C76.1391 72.3041 76.6207 72.7857 76.6207 73.508C76.6207 74.4712 76.6207 75.1936 76.6207 76.1568C76.8615 78.0831 76.8615 80.0095 77.3431 81.9359C77.8246 83.6214 78.547 85.307 78.7878 87.2334C79.0286 89.1597 79.5102 91.0861 79.751 92.7716C79.9918 93.7348 80.2326 94.9388 80.2326 95.902C80.2326 96.3835 80.2326 97.3467 80.2326 98.0691C79.2694 100.236 76.8615 101.922 76.3799 104.33C76.1391 105.775 75.8983 106.979 75.4167 108.423C74.9351 110.109 76.3799 110.59 77.5839 109.386C78.3062 108.664 78.547 106.979 79.0286 106.015C79.5102 106.015 79.9918 106.015 80.2326 106.015C80.2326 107.46 79.2694 108.905 79.0286 110.35C78.0654 110.59 76.8615 111.313 76.6207 112.035C76.1391 112.998 77.5839 112.998 78.547 112.758C79.2694 113.48 81.1958 112.998 82.3997 112.276C84.3261 112.758 85.2893 109.386 86.0117 108.183C88.9012 105.775 88.1788 102.885 87.4564 100.959Z"/>
</mask>
<path d="M87.4564 100.959C87.2156 100.477 86.9749 99.7547 86.9749 99.2731C87.938 98.3099 87.4564 95.4204 87.4564 94.4572C87.4564 92.5308 87.6972 90.8453 87.938 88.9189C88.4196 84.8254 88.1788 80.9727 87.938 77.12C87.938 75.916 87.6972 72.5449 86.7341 71.1001C86.4933 69.1737 85.7709 67.9698 85.0485 66.0434C84.8077 65.0802 84.8077 62.4315 84.3261 60.7459C84.5669 58.8196 83.8445 56.8932 83.3629 55.2076C82.8813 53.7629 82.159 50.8733 81.1958 49.6694C81.1958 49.1878 81.1958 48.7062 81.1958 48.4654C80.955 46.0574 79.9918 42.6863 78.0654 41.0007C77.1023 40.0376 75.6575 39.7968 74.4535 39.0744C73.0088 38.352 72.0456 37.8704 70.6008 37.3888C70.36 36.6664 69.3968 36.1848 68.6744 35.7033C67.9521 35.2217 66.9889 34.9809 66.0257 34.4993C65.3033 34.0177 64.3401 33.5361 63.6178 33.0545C62.8954 32.5729 61.9322 31.8505 61.2098 31.369C60.7282 30.8874 60.0058 30.4058 59.5242 29.9242C59.0427 28.2386 59.0427 26.3123 59.0427 24.3859C59.2835 23.9043 59.5242 23.6635 59.5242 23.1819C59.5242 22.7003 59.765 22.2187 60.0058 21.4964C60.0058 21.0148 60.0058 20.5332 60.2466 20.0516C60.7282 19.8108 60.969 19.57 61.2098 19.0884C61.6914 18.1252 62.173 16.6805 62.4138 15.7173C62.4138 15.2357 62.6546 14.2725 62.4138 13.7909C62.173 13.3093 61.6914 13.5501 61.4506 13.7909C61.6914 12.1054 61.6914 10.4198 61.6914 8.73424C61.4506 5.12232 60.2466 1.02881 55.9123 0.547216C53.986 0.306422 51.8188 -0.175168 49.8925 0.0656268C48.2069 0.306422 47.0029 1.2696 46.0397 2.71437C45.3174 2.95516 44.8358 3.19596 44.3542 3.91834C43.8726 4.64073 43.8726 5.60391 43.6318 6.32629C43.391 7.28947 43.1502 8.25265 43.1502 8.97503C42.9094 10.6606 43.1502 12.587 43.1502 14.2725C42.9094 14.0317 42.4278 14.0317 42.187 14.5133C41.7054 15.7173 42.187 16.9213 42.6686 18.1252C42.9094 19.0884 43.6318 20.2924 44.595 20.5332C44.595 21.2556 45.0766 22.9411 45.0766 23.4227C45.3174 24.6267 45.3174 25.8307 45.0766 26.7939C45.0766 27.0346 45.0766 27.2754 45.0766 27.5162C44.595 27.757 43.8726 28.4794 43.6318 28.7202C42.4278 29.6834 41.4646 30.6466 40.0199 31.1282C39.0567 31.6097 37.1303 31.8505 36.4079 32.8137C35.4448 32.5729 34.4816 32.3321 33.2776 32.3321C30.8697 32.3321 28.4617 33.0545 26.0538 34.0177C24.8498 34.4993 23.6458 35.2217 22.6826 35.9441C21.9603 36.4256 20.9971 37.3888 20.5155 38.1112C20.0339 38.1112 19.7931 38.1112 19.3115 38.1112C18.1075 38.1112 16.9036 38.5928 15.6996 39.3152C15.218 39.556 14.014 40.2784 13.5324 41.0007C13.5324 40.0376 13.5324 39.3152 13.5324 38.352C13.5324 35.4625 13.7732 33.0545 14.7364 30.4058C15.4588 28.2386 16.9036 26.3123 18.3483 24.3859C19.3115 24.3859 20.0339 24.1451 20.7563 23.4227C21.4787 23.1819 22.4418 22.7003 22.9234 21.7372C23.405 21.0148 23.6458 20.0516 24.1274 19.3292C24.609 18.366 24.3682 17.4029 24.1274 16.4397C23.8866 15.2357 23.6458 14.7541 22.4418 15.2357C22.4418 14.7541 22.2011 14.5133 21.9603 14.0317C21.4787 12.8278 20.7563 13.0685 19.5523 13.3093C18.8299 13.5501 16.9036 13.3093 16.422 14.2725C15.6996 14.2725 14.9772 14.2725 14.7364 14.7541C14.2548 14.7541 13.5324 14.9949 13.7732 15.4765C13.0509 15.7173 12.8101 16.1989 12.5693 16.6805C12.0877 17.4029 12.0877 18.1252 12.0877 18.8476C12.0877 19.57 11.8469 20.2924 11.6061 21.2556C11.3653 21.978 11.3653 22.7003 11.1245 23.4227C10.8837 23.6635 10.8837 24.3859 10.8837 24.8675C10.6429 25.3491 10.4021 26.0715 10.4021 26.5531C10.1613 27.2754 9.92052 27.9978 9.43893 28.7202C8.47575 30.165 7.51257 31.6097 6.54939 33.0545C4.62303 35.9441 2.69668 39.556 1.97429 42.9271C1.7335 43.8903 1.01111 46.0574 1.01111 47.743C0.0479343 49.1878 -0.67445 52.3181 1.01111 53.2813C1.97429 53.7629 2.93747 54.0037 3.90065 54.2445C4.86383 54.726 6.0678 54.9668 7.27178 54.9668C7.99416 54.9668 8.95734 54.726 9.67972 54.2445C12.0877 54.2445 14.7364 53.7629 17.1444 53.5221C20.0339 53.0405 22.6826 52.3181 25.0906 50.8733C25.813 50.3917 26.7762 49.9102 27.4985 49.4286C29.4249 51.3549 30.1473 54.4853 31.1105 56.8932C32.3144 59.7827 32.796 62.9131 34 65.8026C34.2408 66.525 34.7224 67.4882 35.204 68.4513C34.9632 69.1737 34.9632 70.1369 34.7224 70.6185C34.4816 71.5817 34.2408 72.3041 34 73.2672C33.5184 74.9528 33.5184 77.12 33.2776 79.0463C33.2776 79.7687 33.2776 80.7319 33.0368 81.4543C32.796 81.4543 32.3144 81.2135 32.0736 81.6951C31.8328 81.9359 31.592 82.4175 31.592 82.899C31.3513 83.6214 31.1105 84.5846 30.6289 85.307C30.1473 86.2702 28.7025 88.1965 29.6657 89.1597C28.4617 91.5677 27.9801 94.2164 27.4985 96.8651C27.0169 100.236 26.2946 103.367 25.813 106.738C25.3314 113.48 26.0538 120.222 27.0169 126.724C27.2577 128.891 27.9801 131.058 28.2209 133.466C27.0169 135.392 27.4985 139.004 27.4985 141.171C27.4985 142.375 27.0169 143.82 26.7762 145.265C25.813 146.228 25.0906 150.081 25.0906 151.044C24.609 153.693 24.3682 156.101 24.3682 158.749C24.3682 161.398 24.3682 164.047 24.609 166.696C24.8498 169.104 25.5722 171.512 25.813 174.16C26.0538 175.605 25.813 177.291 25.813 178.735C25.813 179.699 25.5722 180.903 25.3314 181.866C23.8866 182.829 23.1642 184.996 22.9234 186.922C21.9603 188.367 21.2379 189.812 20.0339 191.257C18.8299 192.701 16.422 193.905 15.9404 196.073C14.4956 201.852 23.405 199.685 25.5722 199.203C27.7393 198.962 28.7025 197.758 29.1841 195.832C29.6657 195.832 29.9065 195.591 30.3881 195.591C33.0368 194.869 33.2776 193.183 32.5552 190.775C32.0736 189.33 32.0736 186.682 31.3513 185.237C31.3513 182.829 31.3513 180.662 31.592 178.254C32.0736 175.605 33.0368 173.197 34 170.548C34.9632 167.9 35.4448 165.251 36.1672 162.843C37.1303 158.268 36.4079 153.693 36.1672 149.118C35.9264 145.746 37.6119 142.375 39.0567 139.486C40.2607 136.837 40.7423 133.948 41.2238 131.058C41.4646 129.613 41.9462 128.168 42.187 126.724C42.4278 125.279 42.4278 123.593 42.6686 122.149C43.391 119.259 45.5581 117.092 46.7621 114.202C47.2437 112.758 47.7253 111.313 47.9661 109.868C48.2069 109.386 48.2069 108.664 48.4477 108.183C48.6885 108.905 48.9293 109.627 48.9293 110.35C49.1701 111.794 49.4109 112.998 49.8925 114.443C50.8556 117.333 52.0596 119.981 52.5412 122.63C52.782 124.075 53.0228 125.52 53.5044 126.964C53.986 128.168 54.4676 129.372 54.9491 130.817C55.6715 133.466 55.9123 136.355 56.8755 139.245C57.3571 140.69 58.3203 142.135 58.8019 143.579C59.0427 144.061 59.2834 145.024 59.765 145.987C59.0427 151.285 59.765 157.064 60.969 162.121C62.173 167.418 65.3033 172.475 65.7849 177.772C66.0257 179.217 66.0257 180.903 66.2665 182.588C66.2665 183.31 66.2665 183.792 66.2665 184.514C65.5441 185.478 65.5441 186.922 65.5441 188.126C65.5441 189.571 65.3033 190.534 65.0625 191.979C64.3401 194.869 67.2297 195.35 69.3968 195.591C69.156 199.203 73.9719 199.444 76.8615 198.962C78.547 198.721 80.955 198.962 82.159 197.517C83.6037 195.832 81.9182 193.905 80.4734 192.942C79.2694 191.979 78.0654 191.016 76.8615 190.053C76.3799 188.608 75.4167 187.404 74.9351 185.959C74.6943 185.237 73.7311 181.384 72.5272 181.866C72.0456 179.458 72.2864 177.05 72.2864 174.642C72.2864 169.104 72.768 165.492 72.2864 159.231C72.0456 156.582 72.2864 153.452 71.564 150.562C71.3232 149.118 70.6008 145.746 69.3968 143.339C69.6376 141.412 69.156 139.245 68.9152 137.319C68.6744 135.152 68.9152 133.225 68.9152 131.058C69.8784 128.891 69.6376 127.205 69.8784 124.797C70.36 118.777 69.156 113.48 68.6744 107.701C68.4337 105.052 68.1929 102.403 67.7113 99.5139C67.2297 97.1059 66.5073 94.4572 66.2665 91.8084C67.4705 91.0861 66.5073 88.4373 66.0257 87.4741C65.3033 86.2702 65.3033 83.8622 63.8586 83.3806C63.8586 82.6582 64.0993 81.6951 64.0993 80.9727C64.3401 78.8055 64.8217 76.8792 64.8217 74.712C64.8217 73.508 64.8217 72.5449 64.8217 71.3409C64.8217 70.8593 64.5809 70.1369 64.5809 69.4145C65.0625 68.9329 65.5441 68.4514 65.7849 67.729C66.7481 66.0434 67.2297 64.3578 67.9521 62.6723C68.4336 61.7091 68.9152 60.7459 69.3968 59.5419C69.6376 61.2275 70.6008 63.3947 71.0824 64.8394C72.0456 66.7658 73.0088 68.6921 74.6943 70.1369C75.1759 70.6185 75.6575 71.1001 76.1391 71.5817C76.1391 72.3041 76.6207 72.7857 76.6207 73.508C76.6207 74.4712 76.6207 75.1936 76.6207 76.1568C76.8615 78.0831 76.8615 80.0095 77.3431 81.9359C77.8246 83.6214 78.547 85.307 78.7878 87.2334C79.0286 89.1597 79.5102 91.0861 79.751 92.7716C79.9918 93.7348 80.2326 94.9388 80.2326 95.902C80.2326 96.3835 80.2326 97.3467 80.2326 98.0691C79.2694 100.236 76.8615 101.922 76.3799 104.33C76.1391 105.775 75.8983 106.979 75.4167 108.423C74.9351 110.109 76.3799 110.59 77.5839 109.386C78.3062 108.664 78.547 106.979 79.0286 106.015C79.5102 106.015 79.9918 106.015 80.2326 106.015C80.2326 107.46 79.2694 108.905 79.0286 110.35C78.0654 110.59 76.8615 111.313 76.6207 112.035C76.1391 112.998 77.5839 112.998 78.547 112.758C79.2694 113.48 81.1958 112.998 82.3997 112.276C84.3261 112.758 85.2893 109.386 86.0117 108.183C88.9012 105.775 88.1788 102.885 87.4564 100.959Z" fill="url(#paint0_linear_75_177)" fill-opacity="0.12"/>
<path d="M87.4564 100.959C87.2156 100.477 86.9749 99.7547 86.9749 99.2731C87.938 98.3099 87.4564 95.4204 87.4564 94.4572C87.4564 92.5308 87.6972 90.8453 87.938 88.9189C88.4196 84.8254 88.1788 80.9727 87.938 77.12C87.938 75.916 87.6972 72.5449 86.7341 71.1001C86.4933 69.1737 85.7709 67.9698 85.0485 66.0434C84.8077 65.0802 84.8077 62.4315 84.3261 60.7459C84.5669 58.8196 83.8445 56.8932 83.3629 55.2076C82.8813 53.7629 82.159 50.8733 81.1958 49.6694C81.1958 49.1878 81.1958 48.7062 81.1958 48.4654C80.955 46.0574 79.9918 42.6863 78.0654 41.0007C77.1023 40.0376 75.6575 39.7968 74.4535 39.0744C73.0088 38.352 72.0456 37.8704 70.6008 37.3888C70.36 36.6664 69.3968 36.1848 68.6744 35.7033C67.9521 35.2217 66.9889 34.9809 66.0257 34.4993C65.3033 34.0177 64.3401 33.5361 63.6178 33.0545C62.8954 32.5729 61.9322 31.8505 61.2098 31.369C60.7282 30.8874 60.0058 30.4058 59.5242 29.9242C59.0427 28.2386 59.0427 26.3123 59.0427 24.3859C59.2835 23.9043 59.5242 23.6635 59.5242 23.1819C59.5242 22.7003 59.765 22.2187 60.0058 21.4964C60.0058 21.0148 60.0058 20.5332 60.2466 20.0516C60.7282 19.8108 60.969 19.57 61.2098 19.0884C61.6914 18.1252 62.173 16.6805 62.4138 15.7173C62.4138 15.2357 62.6546 14.2725 62.4138 13.7909C62.173 13.3093 61.6914 13.5501 61.4506 13.7909C61.6914 12.1054 61.6914 10.4198 61.6914 8.73424C61.4506 5.12232 60.2466 1.02881 55.9123 0.547216C53.986 0.306422 51.8188 -0.175168 49.8925 0.0656268C48.2069 0.306422 47.0029 1.2696 46.0397 2.71437C45.3174 2.95516 44.8358 3.19596 44.3542 3.91834C43.8726 4.64073 43.8726 5.60391 43.6318 6.32629C43.391 7.28947 43.1502 8.25265 43.1502 8.97503C42.9094 10.6606 43.1502 12.587 43.1502 14.2725C42.9094 14.0317 42.4278 14.0317 42.187 14.5133C41.7054 15.7173 42.187 16.9213 42.6686 18.1252C42.9094 19.0884 43.6318 20.2924 44.595 20.5332C44.595 21.2556 45.0766 22.9411 45.0766 23.4227C45.3174 24.6267 45.3174 25.8307 45.0766 26.7939C45.0766 27.0346 45.0766 27.2754 45.0766 27.5162C44.595 27.757 43.8726 28.4794 43.6318 28.7202C42.4278 29.6834 41.4646 30.6466 40.0199 31.1282C39.0567 31.6097 37.1303 31.8505 36.4079 32.8137C35.4448 32.5729 34.4816 32.3321 33.2776 32.3321C30.8697 32.3321 28.4617 33.0545 26.0538 34.0177C24.8498 34.4993 23.6458 35.2217 22.6826 35.9441C21.9603 36.4256 20.9971 37.3888 20.5155 38.1112C20.0339 38.1112 19.7931 38.1112 19.3115 38.1112C18.1075 38.1112 16.9036 38.5928 15.6996 39.3152C15.218 39.556 14.014 40.2784 13.5324 41.0007C13.5324 40.0376 13.5324 39.3152 13.5324 38.352C13.5324 35.4625 13.7732 33.0545 14.7364 30.4058C15.4588 28.2386 16.9036 26.3123 18.3483 24.3859C19.3115 24.3859 20.0339 24.1451 20.7563 23.4227C21.4787 23.1819 22.4418 22.7003 22.9234 21.7372C23.405 21.0148 23.6458 20.0516 24.1274 19.3292C24.609 18.366 24.3682 17.4029 24.1274 16.4397C23.8866 15.2357 23.6458 14.7541 22.4418 15.2357C22.4418 14.7541 22.2011 14.5133 21.9603 14.0317C21.4787 12.8278 20.7563 13.0685 19.5523 13.3093C18.8299 13.5501 16.9036 13.3093 16.422 14.2725C15.6996 14.2725 14.9772 14.2725 14.7364 14.7541C14.2548 14.7541 13.5324 14.9949 13.7732 15.4765C13.0509 15.7173 12.8101 16.1989 12.5693 16.6805C12.0877 17.4029 12.0877 18.1252 12.0877 18.8476C12.0877 19.57 11.8469 20.2924 11.6061 21.2556C11.3653 21.978 11.3653 22.7003 11.1245 23.4227C10.8837 23.6635 10.8837 24.3859 10.8837 24.8675C10.6429 25.3491 10.4021 26.0715 10.4021 26.5531C10.1613 27.2754 9.92052 27.9978 9.43893 28.7202C8.47575 30.165 7.51257 31.6097 6.54939 33.0545C4.62303 35.9441 2.69668 39.556 1.97429 42.9271C1.7335 43.8903 1.01111 46.0574 1.01111 47.743C0.0479343 49.1878 -0.67445 52.3181 1.01111 53.2813C1.97429 53.7629 2.93747 54.0037 3.90065 54.2445C4.86383 54.726 6.0678 54.9668 7.27178 54.9668C7.99416 54.9668 8.95734 54.726 9.67972 54.2445C12.0877 54.2445 14.7364 53.7629 17.1444 53.5221C20.0339 53.0405 22.6826 52.3181 25.0906 50.8733C25.813 50.3917 26.7762 49.9102 27.4985 49.4286C29.4249 51.3549 30.1473 54.4853 31.1105 56.8932C32.3144 59.7827 32.796 62.9131 34 65.8026C34.2408 66.525 34.7224 67.4882 35.204 68.4513C34.9632 69.1737 34.9632 70.1369 34.7224 70.6185C34.4816 71.5817 34.2408 72.3041 34 73.2672C33.5184 74.9528 33.5184 77.12 33.2776 79.0463C33.2776 79.7687 33.2776 80.7319 33.0368 81.4543C32.796 81.4543 32.3144 81.2135 32.0736 81.6951C31.8328 81.9359 31.592 82.4175 31.592 82.899C31.3513 83.6214 31.1105 84.5846 30.6289 85.307C30.1473 86.2702 28.7025 88.1965 29.6657 89.1597C28.4617 91.5677 27.9801 94.2164 27.4985 96.8651C27.0169 100.236 26.2946 103.367 25.813 106.738C25.3314 113.48 26.0538 120.222 27.0169 126.724C27.2577 128.891 27.9801 131.058 28.2209 133.466C27.0169 135.392 27.4985 139.004 27.4985 141.171C27.4985 142.375 27.0169 143.82 26.7762 145.265C25.813 146.228 25.0906 150.081 25.0906 151.044C24.609 153.693 24.3682 156.101 24.3682 158.749C24.3682 161.398 24.3682 164.047 24.609 166.696C24.8498 169.104 25.5722 171.512 25.813 174.16C26.0538 175.605 25.813 177.291 25.813 178.735C25.813 179.699 25.5722 180.903 25.3314 181.866C23.8866 182.829 23.1642 184.996 22.9234 186.922C21.9603 188.367 21.2379 189.812 20.0339 191.257C18.8299 192.701 16.422 193.905 15.9404 196.073C14.4956 201.852 23.405 199.685 25.5722 199.203C27.7393 198.962 28.7025 197.758 29.1841 195.832C29.6657 195.832 29.9065 195.591 30.3881 195.591C33.0368 194.869 33.2776 193.183 32.5552 190.775C32.0736 189.33 32.0736 186.682 31.3513 185.237C31.3513 182.829 31.3513 180.662 31.592 178.254C32.0736 175.605 33.0368 173.197 34 170.548C34.9632 167.9 35.4448 165.251 36.1672 162.843C37.1303 158.268 36.4079 153.693 36.1672 149.118C35.9264 145.746 37.6119 142.375 39.0567 139.486C40.2607 136.837 40.7423 133.948 41.2238 131.058C41.4646 129.613 41.9462 128.168 42.187 126.724C42.4278 125.279 42.4278 123.593 42.6686 122.149C43.391 119.259 45.5581 117.092 46.7621 114.202C47.2437 112.758 47.7253 111.313 47.9661 109.868C48.2069 109.386 48.2069 108.664 48.4477 108.183C48.6885 108.905 48.9293 109.627 48.9293 110.35C49.1701 111.794 49.4109 112.998 49.8925 114.443C50.8556 117.333 52.0596 119.981 52.5412 122.63C52.782 124.075 53.0228 125.52 53.5044 126.964C53.986 128.168 54.4676 129.372 54.9491 130.817C55.6715 133.466 55.9123 136.355 56.8755 139.245C57.3571 140.69 58.3203 142.135 58.8019 143.579C59.0427 144.061 59.2834 145.024 59.765 145.987C59.0427 151.285 59.765 157.064 60.969 162.121C62.173 167.418 65.3033 172.475 65.7849 177.772C66.0257 179.217 66.0257 180.903 66.2665 182.588C66.2665 183.31 66.2665 183.792 66.2665 184.514C65.5441 185.478 65.5441 186.922 65.5441 188.126C65.5441 189.571 65.3033 190.534 65.0625 191.979C64.3401 194.869 67.2297 195.35 69.3968 195.591C69.156 199.203 73.9719 199.444 76.8615 198.962C78.547 198.721 80.955 198.962 82.159 197.517C83.6037 195.832 81.9182 193.905 80.4734 192.942C79.2694 191.979 78.0654 191.016 76.8615 190.053C76.3799 188.608 75.4167 187.404 74.9351 185.959C74.6943 185.237 73.7311 181.384 72.5272 181.866C72.0456 179.458 72.2864 177.05 72.2864 174.642C72.2864 169.104 72.768 165.492 72.2864 159.231C72.0456 156.582 72.2864 153.452 71.564 150.562C71.3232 149.118 70.6008 145.746 69.3968 143.339C69.6376 141.412 69.156 139.245 68.9152 137.319C68.6744 135.152 68.9152 133.225 68.9152 131.058C69.8784 128.891 69.6376 127.205 69.8784 124.797C70.36 118.777 69.156 113.48 68.6744 107.701C68.4337 105.052 68.1929 102.403 67.7113 99.5139C67.2297 97.1059 66.5073 94.4572 66.2665 91.8084C67.4705 91.0861 66.5073 88.4373 66.0257 87.4741C65.3033 86.2702 65.3033 83.8622 63.8586 83.3806C63.8586 82.6582 64.0993 81.6951 64.0993 80.9727C64.3401 78.8055 64.8217 76.8792 64.8217 74.712C64.8217 73.508 64.8217 72.5449 64.8217 71.3409C64.8217 70.8593 64.5809 70.1369 64.5809 69.4145C65.0625 68.9329 65.5441 68.4514 65.7849 67.729C66.7481 66.0434 67.2297 64.3578 67.9521 62.6723C68.4336 61.7091 68.9152 60.7459 69.3968 59.5419C69.6376 61.2275 70.6008 63.3947 71.0824 64.8394C72.0456 66.7658 73.0088 68.6921 74.6943 70.1369C75.1759 70.6185 75.6575 71.1001 76.1391 71.5817C76.1391 72.3041 76.6207 72.7857 76.6207 73.508C76.6207 74.4712 76.6207 75.1936 76.6207 76.1568C76.8615 78.0831 76.8615 80.0095 77.3431 81.9359C77.8246 83.6214 78.547 85.307 78.7878 87.2334C79.0286 89.1597 79.5102 91.0861 79.751 92.7716C79.9918 93.7348 80.2326 94.9388 80.2326 95.902C80.2326 96.3835 80.2326 97.3467 80.2326 98.0691C79.2694 100.236 76.8615 101.922 76.3799 104.33C76.1391 105.775 75.8983 106.979 75.4167 108.423C74.9351 110.109 76.3799 110.59 77.5839 109.386C78.3062 108.664 78.547 106.979 79.0286 106.015C79.5102 106.015 79.9918 106.015 80.2326 106.015C80.2326 107.46 79.2694 108.905 79.0286 110.35C78.0654 110.59 76.8615 111.313 76.6207 112.035C76.1391 112.998 77.5839 112.998 78.547 112.758C79.2694 113.48 81.1958 112.998 82.3997 112.276C84.3261 112.758 85.2893 109.386 86.0117 108.183C88.9012 105.775 88.1788 102.885 87.4564 100.959Z" fill="url(#paint1_linear_75_177)"/>
<path d="M87.4564 100.959C87.2156 100.477 86.9749 99.7547 86.9749 99.2731C87.938 98.3099 87.4564 95.4204 87.4564 94.4572C87.4564 92.5308 87.6972 90.8453 87.938 88.9189C88.4196 84.8254 88.1788 80.9727 87.938 77.12C87.938 75.916 87.6972 72.5449 86.7341 71.1001C86.4933 69.1737 85.7709 67.9698 85.0485 66.0434C84.8077 65.0802 84.8077 62.4315 84.3261 60.7459C84.5669 58.8196 83.8445 56.8932 83.3629 55.2076C82.8813 53.7629 82.159 50.8733 81.1958 49.6694C81.1958 49.1878 81.1958 48.7062 81.1958 48.4654C80.955 46.0574 79.9918 42.6863 78.0654 41.0007C77.1023 40.0376 75.6575 39.7968 74.4535 39.0744C73.0088 38.352 72.0456 37.8704 70.6008 37.3888C70.36 36.6664 69.3968 36.1848 68.6744 35.7033C67.9521 35.2217 66.9889 34.9809 66.0257 34.4993C65.3033 34.0177 64.3401 33.5361 63.6178 33.0545C62.8954 32.5729 61.9322 31.8505 61.2098 31.369C60.7282 30.8874 60.0058 30.4058 59.5242 29.9242C59.0427 28.2386 59.0427 26.3123 59.0427 24.3859C59.2835 23.9043 59.5242 23.6635 59.5242 23.1819C59.5242 22.7003 59.765 22.2187 60.0058 21.4964C60.0058 21.0148 60.0058 20.5332 60.2466 20.0516C60.7282 19.8108 60.969 19.57 61.2098 19.0884C61.6914 18.1252 62.173 16.6805 62.4138 15.7173C62.4138 15.2357 62.6546 14.2725 62.4138 13.7909C62.173 13.3093 61.6914 13.5501 61.4506 13.7909C61.6914 12.1054 61.6914 10.4198 61.6914 8.73424C61.4506 5.12232 60.2466 1.02881 55.9123 0.547216C53.986 0.306422 51.8188 -0.175168 49.8925 0.0656268C48.2069 0.306422 47.0029 1.2696 46.0397 2.71437C45.3174 2.95516 44.8358 3.19596 44.3542 3.91834C43.8726 4.64073 43.8726 5.60391 43.6318 6.32629C43.391 7.28947 43.1502 8.25265 43.1502 8.97503C42.9094 10.6606 43.1502 12.587 43.1502 14.2725C42.9094 14.0317 42.4278 14.0317 42.187 14.5133C41.7054 15.7173 42.187 16.9213 42.6686 18.1252C42.9094 19.0884 43.6318 20.2924 44.595 20.5332C44.595 21.2556 45.0766 22.9411 45.0766 23.4227C45.3174 24.6267 45.3174 25.8307 45.0766 26.7939C45.0766 27.0346 45.0766 27.2754 45.0766 27.5162C44.595 27.757 43.8726 28.4794 43.6318 28.7202C42.4278 29.6834 41.4646 30.6466 40.0199 31.1282C39.0567 31.6097 37.1303 31.8505 36.4079 32.8137C35.4448 32.5729 34.4816 32.3321 33.2776 32.3321C30.8697 32.3321 28.4617 33.0545 26.0538 34.0177C24.8498 34.4993 23.6458 35.2217 22.6826 35.9441C21.9603 36.4256 20.9971 37.3888 20.5155 38.1112C20.0339 38.1112 19.7931 38.1112 19.3115 38.1112C18.1075 38.1112 16.9036 38.5928 15.6996 39.3152C15.218 39.556 14.014 40.2784 13.5324 41.0007C13.5324 40.0376 13.5324 39.3152 13.5324 38.352C13.5324 35.4625 13.7732 33.0545 14.7364 30.4058C15.4588 28.2386 16.9036 26.3123 18.3483 24.3859C19.3115 24.3859 20.0339 24.1451 20.7563 23.4227C21.4787 23.1819 22.4418 22.7003 22.9234 21.7372C23.405 21.0148 23.6458 20.0516 24.1274 19.3292C24.609 18.366 24.3682 17.4029 24.1274 16.4397C23.8866 15.2357 23.6458 14.7541 22.4418 15.2357C22.4418 14.7541 22.2011 14.5133 21.9603 14.0317C21.4787 12.8278 20.7563 13.0685 19.5523 13.3093C18.8299 13.5501 16.9036 13.3093 16.422 14.2725C15.6996 14.2725 14.9772 14.2725 14.7364 14.7541C14.2548 14.7541 13.5324 14.9949 13.7732 15.4765C13.0509 15.7173 12.8101 16.1989 12.5693 16.6805C12.0877 17.4029 12.0877 18.1252 12.0877 18.8476C12.0877 19.57 11.8469 20.2924 11.6061 21.2556C11.3653 21.978 11.3653 22.7003 11.1245 23.4227C10.8837 23.6635 10.8837 24.3859 10.8837 24.8675C10.6429 25.3491 10.4021 26.0715 10.4021 26.5531C10.1613 27.2754 9.92052 27.9978 9.43893 28.7202C8.47575 30.165 7.51257 31.6097 6.54939 33.0545C4.62303 35.9441 2.69668 39.556 1.97429 42.9271C1.7335 43.8903 1.01111 46.0574 1.01111 47.743C0.0479343 49.1878 -0.67445 52.3181 1.01111 53.2813C1.97429 53.7629 2.93747 54.0037 3.90065 54.2445C4.86383 54.726 6.0678 54.9668 7.27178 54.9668C7.99416 54.9668 8.95734 54.726 9.67972 54.2445C12.0877 54.2445 14.7364 53.7629 17.1444 53.5221C20.0339 53.0405 22.6826 52.3181 25.0906 50.8733C25.813 50.3917 26.7762 49.9102 27.4985 49.4286C29.4249 51.3549 30.1473 54.4853 31.1105 56.8932C32.3144 59.7827 32.796 62.9131 34 65.8026C34.2408 66.525 34.7224 67.4882 35.204 68.4513C34.9632 69.1737 34.9632 70.1369 34.7224 70.6185C34.4816 71.5817 34.2408 72.3041 34 73.2672C33.5184 74.9528 33.5184 77.12 33.2776 79.0463C33.2776 79.7687 33.2776 80.7319 33.0368 81.4543C32.796 81.4543 32.3144 81.2135 32.0736 81.6951C31.8328 81.9359 31.592 82.4175 31.592 82.899C31.3513 83.6214 31.1105 84.5846 30.6289 85.307C30.1473 86.2702 28.7025 88.1965 29.6657 89.1597C28.4617 91.5677 27.9801 94.2164 27.4985 96.8651C27.0169 100.236 26.2946 103.367 25.813 106.738C25.3314 113.48 26.0538 120.222 27.0169 126.724C27.2577 128.891 27.9801 131.058 28.2209 133.466C27.0169 135.392 27.4985 139.004 27.4985 141.171C27.4985 142.375 27.0169 143.82 26.7762 145.265C25.813 146.228 25.0906 150.081 25.0906 151.044C24.609 153.693 24.3682 156.101 24.3682 158.749C24.3682 161.398 24.3682 164.047 24.609 166.696C24.8498 169.104 25.5722 171.512 25.813 174.16C26.0538 175.605 25.813 177.291 25.813 178.735C25.813 179.699 25.5722 180.903 25.3314 181.866C23.8866 182.829 23.1642 184.996 22.9234 186.922C21.9603 188.367 21.2379 189.812 20.0339 191.257C18.8299 192.701 16.422 193.905 15.9404 196.073C14.4956 201.852 23.405 199.685 25.5722 199.203C27.7393 198.962 28.7025 197.758 29.1841 195.832C29.6657 195.832 29.9065 195.591 30.3881 195.591C33.0368 194.869 33.2776 193.183 32.5552 190.775C32.0736 189.33 32.0736 186.682 31.3513 185.237C31.3513 182.829 31.3513 180.662 31.592 178.254C32.0736 175.605 33.0368 173.197 34 170.548C34.9632 167.9 35.4448 165.251 36.1672 162.843C37.1303 158.268 36.4079 153.693 36.1672 149.118C35.9264 145.746 37.6119 142.375 39.0567 139.486C40.2607 136.837 40.7423 133.948 41.2238 131.058C41.4646 129.613 41.9462 128.168 42.187 126.724C42.4278 125.279 42.4278 123.593 42.6686 122.149C43.391 119.259 45.5581 117.092 46.7621 114.202C47.2437 112.758 47.7253 111.313 47.9661 109.868C48.2069 109.386 48.2069 108.664 48.4477 108.183C48.6885 108.905 48.9293 109.627 48.9293 110.35C49.1701 111.794 49.4109 112.998 49.8925 114.443C50.8556 117.333 52.0596 119.981 52.5412 122.63C52.782 124.075 53.0228 125.52 53.5044 126.964C53.986 128.168 54.4676 129.372 54.9491 130.817C55.6715 133.466 55.9123 136.355 56.8755 139.245C57.3571 140.69 58.3203 142.135 58.8019 143.579C59.0427 144.061 59.2834 145.024 59.765 145.987C59.0427 151.285 59.765 157.064 60.969 162.121C62.173 167.418 65.3033 172.475 65.7849 177.772C66.0257 179.217 66.0257 180.903 66.2665 182.588C66.2665 183.31 66.2665 183.792 66.2665 184.514C65.5441 185.478 65.5441 186.922 65.5441 188.126C65.5441 189.571 65.3033 190.534 65.0625 191.979C64.3401 194.869 67.2297 195.35 69.3968 195.591C69.156 199.203 73.9719 199.444 76.8615 198.962C78.547 198.721 80.955 198.962 82.159 197.517C83.6037 195.832 81.9182 193.905 80.4734 192.942C79.2694 191.979 78.0654 191.016 76.8615 190.053C76.3799 188.608 75.4167 187.404 74.9351 185.959C74.6943 185.237 73.7311 181.384 72.5272 181.866C72.0456 179.458 72.2864 177.05 72.2864 174.642C72.2864 169.104 72.768 165.492 72.2864 159.231C72.0456 156.582 72.2864 153.452 71.564 150.562C71.3232 149.118 70.6008 145.746 69.3968 143.339C69.6376 141.412 69.156 139.245 68.9152 137.319C68.6744 135.152 68.9152 133.225 68.9152 131.058C69.8784 128.891 69.6376 127.205 69.8784 124.797C70.36 118.777 69.156 113.48 68.6744 107.701C68.4337 105.052 68.1929 102.403 67.7113 99.5139C67.2297 97.1059 66.5073 94.4572 66.2665 91.8084C67.4705 91.0861 66.5073 88.4373 66.0257 87.4741C65.3033 86.2702 65.3033 83.8622 63.8586 83.3806C63.8586 82.6582 64.0993 81.6951 64.0993 80.9727C64.3401 78.8055 64.8217 76.8792 64.8217 74.712C64.8217 73.508 64.8217 72.5449 64.8217 71.3409C64.8217 70.8593 64.5809 70.1369 64.5809 69.4145C65.0625 68.9329 65.5441 68.4514 65.7849 67.729C66.7481 66.0434 67.2297 64.3578 67.9521 62.6723C68.4336 61.7091 68.9152 60.7459 69.3968 59.5419C69.6376 61.2275 70.6008 63.3947 71.0824 64.8394C72.0456 66.7658 73.0088 68.6921 74.6943 70.1369C75.1759 70.6185 75.6575 71.1001 76.1391 71.5817C76.1391 72.3041 76.6207 72.7857 76.6207 73.508C76.6207 74.4712 76.6207 75.1936 76.6207 76.1568C76.8615 78.0831 76.8615 80.0095 77.3431 81.9359C77.8246 83.6214 78.547 85.307 78.7878 87.2334C79.0286 89.1597 79.5102 91.0861 79.751 92.7716C79.9918 93.7348 80.2326 94.9388 80.2326 95.902C80.2326 96.3835 80.2326 97.3467 80.2326 98.0691C79.2694 100.236 76.8615 101.922 76.3799 104.33C76.1391 105.775 75.8983 106.979 75.4167 108.423C74.9351 110.109 76.3799 110.59 77.5839 109.386C78.3062 108.664 78.547 106.979 79.0286 106.015C79.5102 106.015 79.9918 106.015 80.2326 106.015C80.2326 107.46 79.2694 108.905 79.0286 110.35C78.0654 110.59 76.8615 111.313 76.6207 112.035C76.1391 112.998 77.5839 112.998 78.547 112.758C79.2694 113.48 81.1958 112.998 82.3997 112.276C84.3261 112.758 85.2893 109.386 86.0117 108.183C88.9012 105.775 88.1788 102.885 87.4564 100.959Z" fill="url(#paint2_linear_75_177)"/>
<path d="M87.4564 100.959C87.2156 100.477 86.9749 99.7547 86.9749 99.2731C87.938 98.3099 87.4564 95.4204 87.4564 94.4572C87.4564 92.5308 87.6972 90.8453 87.938 88.9189C88.4196 84.8254 88.1788 80.9727 87.938 77.12C87.938 75.916 87.6972 72.5449 86.7341 71.1001C86.4933 69.1737 85.7709 67.9698 85.0485 66.0434C84.8077 65.0802 84.8077 62.4315 84.3261 60.7459C84.5669 58.8196 83.8445 56.8932 83.3629 55.2076C82.8813 53.7629 82.159 50.8733 81.1958 49.6694C81.1958 49.1878 81.1958 48.7062 81.1958 48.4654C80.955 46.0574 79.9918 42.6863 78.0654 41.0007C77.1023 40.0376 75.6575 39.7968 74.4535 39.0744C73.0088 38.352 72.0456 37.8704 70.6008 37.3888C70.36 36.6664 69.3968 36.1848 68.6744 35.7033C67.9521 35.2217 66.9889 34.9809 66.0257 34.4993C65.3033 34.0177 64.3401 33.5361 63.6178 33.0545C62.8954 32.5729 61.9322 31.8505 61.2098 31.369C60.7282 30.8874 60.0058 30.4058 59.5242 29.9242C59.0427 28.2386 59.0427 26.3123 59.0427 24.3859C59.2835 23.9043 59.5242 23.6635 59.5242 23.1819C59.5242 22.7003 59.765 22.2187 60.0058 21.4964C60.0058 21.0148 60.0058 20.5332 60.2466 20.0516C60.7282 19.8108 60.969 19.57 61.2098 19.0884C61.6914 18.1252 62.173 16.6805 62.4138 15.7173C62.4138 15.2357 62.6546 14.2725 62.4138 13.7909C62.173 13.3093 61.6914 13.5501 61.4506 13.7909C61.6914 12.1054 61.6914 10.4198 61.6914 8.73424C61.4506 5.12232 60.2466 1.02881 55.9123 0.547216C53.986 0.306422 51.8188 -0.175168 49.8925 0.0656268C48.2069 0.306422 47.0029 1.2696 46.0397 2.71437C45.3174 2.95516 44.8358 3.19596 44.3542 3.91834C43.8726 4.64073 43.8726 5.60391 43.6318 6.32629C43.391 7.28947 43.1502 8.25265 43.1502 8.97503C42.9094 10.6606 43.1502 12.587 43.1502 14.2725C42.9094 14.0317 42.4278 14.0317 42.187 14.5133C41.7054 15.7173 42.187 16.9213 42.6686 18.1252C42.9094 19.0884 43.6318 20.2924 44.595 20.5332C44.595 21.2556 45.0766 22.9411 45.0766 23.4227C45.3174 24.6267 45.3174 25.8307 45.0766 26.7939C45.0766 27.0346 45.0766 27.2754 45.0766 27.5162C44.595 27.757 43.8726 28.4794 43.6318 28.7202C42.4278 29.6834 41.4646 30.6466 40.0199 31.1282C39.0567 31.6097 37.1303 31.8505 36.4079 32.8137C35.4448 32.5729 34.4816 32.3321 33.2776 32.3321C30.8697 32.3321 28.4617 33.0545 26.0538 34.0177C24.8498 34.4993 23.6458 35.2217 22.6826 35.9441C21.9603 36.4256 20.9971 37.3888 20.5155 38.1112C20.0339 38.1112 19.7931 38.1112 19.3115 38.1112C18.1075 38.1112 16.9036 38.5928 15.6996 39.3152C15.218 39.556 14.014 40.2784 13.5324 41.0007C13.5324 40.0376 13.5324 39.3152 13.5324 38.352C13.5324 35.4625 13.7732 33.0545 14.7364 30.4058C15.4588 28.2386 16.9036 26.3123 18.3483 24.3859C19.3115 24.3859 20.0339 24.1451 20.7563 23.4227C21.4787 23.1819 22.4418 22.7003 22.9234 21.7372C23.405 21.0148 23.6458 20.0516 24.1274 19.3292C24.609 18.366 24.3682 17.4029 24.1274 16.4397C23.8866 15.2357 23.6458 14.7541 22.4418 15.2357C22.4418 14.7541 22.2011 14.5133 21.9603 14.0317C21.4787 12.8278 20.7563 13.0685 19.5523 13.3093C18.8299 13.5501 16.9036 13.3093 16.422 14.2725C15.6996 14.2725 14.9772 14.2725 14.7364 14.7541C14.2548 14.7541 13.5324 14.9949 13.7732 15.4765C13.0509 15.7173 12.8101 16.1989 12.5693 16.6805C12.0877 17.4029 12.0877 18.1252 12.0877 18.8476C12.0877 19.57 11.8469 20.2924 11.6061 21.2556C11.3653 21.978 11.3653 22.7003 11.1245 23.4227C10.8837 23.6635 10.8837 24.3859 10.8837 24.8675C10.6429 25.3491 10.4021 26.0715 10.4021 26.5531C10.1613 27.2754 9.92052 27.9978 9.43893 28.7202C8.47575 30.165 7.51257 31.6097 6.54939 33.0545C4.62303 35.9441 2.69668 39.556 1.97429 42.9271C1.7335 43.8903 1.01111 46.0574 1.01111 47.743C0.0479343 49.1878 -0.67445 52.3181 1.01111 53.2813C1.97429 53.7629 2.93747 54.0037 3.90065 54.2445C4.86383 54.726 6.0678 54.9668 7.27178 54.9668C7.99416 54.9668 8.95734 54.726 9.67972 54.2445C12.0877 54.2445 14.7364 53.7629 17.1444 53.5221C20.0339 53.0405 22.6826 52.3181 25.0906 50.8733C25.813 50.3917 26.7762 49.9102 27.4985 49.4286C29.4249 51.3549 30.1473 54.4853 31.1105 56.8932C32.3144 59.7827 32.796 62.9131 34 65.8026C34.2408 66.525 34.7224 67.4882 35.204 68.4513C34.9632 69.1737 34.9632 70.1369 34.7224 70.6185C34.4816 71.5817 34.2408 72.3041 34 73.2672C33.5184 74.9528 33.5184 77.12 33.2776 79.0463C33.2776 79.7687 33.2776 80.7319 33.0368 81.4543C32.796 81.4543 32.3144 81.2135 32.0736 81.6951C31.8328 81.9359 31.592 82.4175 31.592 82.899C31.3513 83.6214 31.1105 84.5846 30.6289 85.307C30.1473 86.2702 28.7025 88.1965 29.6657 89.1597C28.4617 91.5677 27.9801 94.2164 27.4985 96.8651C27.0169 100.236 26.2946 103.367 25.813 106.738C25.3314 113.48 26.0538 120.222 27.0169 126.724C27.2577 128.891 27.9801 131.058 28.2209 133.466C27.0169 135.392 27.4985 139.004 27.4985 141.171C27.4985 142.375 27.0169 143.82 26.7762 145.265C25.813 146.228 25.0906 150.081 25.0906 151.044C24.609 153.693 24.3682 156.101 24.3682 158.749C24.3682 161.398 24.3682 164.047 24.609 166.696C24.8498 169.104 25.5722 171.512 25.813 174.16C26.0538 175.605 25.813 177.291 25.813 178.735C25.813 179.699 25.5722 180.903 25.3314 181.866C23.8866 182.829 23.1642 184.996 22.9234 186.922C21.9603 188.367 21.2379 189.812 20.0339 191.257C18.8299 192.701 16.422 193.905 15.9404 196.073C14.4956 201.852 23.405 199.685 25.5722 199.203C27.7393 198.962 28.7025 197.758 29.1841 195.832C29.6657 195.832 29.9065 195.591 30.3881 195.591C33.0368 194.869 33.2776 193.183 32.5552 190.775C32.0736 189.33 32.0736 186.682 31.3513 185.237C31.3513 182.829 31.3513 180.662 31.592 178.254C32.0736 175.605 33.0368 173.197 34 170.548C34.9632 167.9 35.4448 165.251 36.1672 162.843C37.1303 158.268 36.4079 153.693 36.1672 149.118C35.9264 145.746 37.6119 142.375 39.0567 139.486C40.2607 136.837 40.7423 133.948 41.2238 131.058C41.4646 129.613 41.9462 128.168 42.187 126.724C42.4278 125.279 42.4278 123.593 42.6686 122.149C43.391 119.259 45.5581 117.092 46.7621 114.202C47.2437 112.758 47.7253 111.313 47.9661 109.868C48.2069 109.386 48.2069 108.664 48.4477 108.183C48.6885 108.905 48.9293 109.627 48.9293 110.35C49.1701 111.794 49.4109 112.998 49.8925 114.443C50.8556 117.333 52.0596 119.981 52.5412 122.63C52.782 124.075 53.0228 125.52 53.5044 126.964C53.986 128.168 54.4676 129.372 54.9491 130.817C55.6715 133.466 55.9123 136.355 56.8755 139.245C57.3571 140.69 58.3203 142.135 58.8019 143.579C59.0427 144.061 59.2834 145.024 59.765 145.987C59.0427 151.285 59.765 157.064 60.969 162.121C62.173 167.418 65.3033 172.475 65.7849 177.772C66.0257 179.217 66.0257 180.903 66.2665 182.588C66.2665 183.31 66.2665 183.792 66.2665 184.514C65.5441 185.478 65.5441 186.922 65.5441 188.126C65.5441 189.571 65.3033 190.534 65.0625 191.979C64.3401 194.869 67.2297 195.35 69.3968 195.591C69.156 199.203 73.9719 199.444 76.8615 198.962C78.547 198.721 80.955 198.962 82.159 197.517C83.6037 195.832 81.9182 193.905 80.4734 192.942C79.2694 191.979 78.0654 191.016 76.8615 190.053C76.3799 188.608 75.4167 187.404 74.9351 185.959C74.6943 185.237 73.7311 181.384 72.5272 181.866C72.0456 179.458 72.2864 177.05 72.2864 174.642C72.2864 169.104 72.768 165.492 72.2864 159.231C72.0456 156.582 72.2864 153.452 71.564 150.562C71.3232 149.118 70.6008 145.746 69.3968 143.339C69.6376 141.412 69.156 139.245 68.9152 137.319C68.6744 135.152 68.9152 133.225 68.9152 131.058C69.8784 128.891 69.6376 127.205 69.8784 124.797C70.36 118.777 69.156 113.48 68.6744 107.701C68.4337 105.052 68.1929 102.403 67.7113 99.5139C67.2297 97.1059 66.5073 94.4572 66.2665 91.8084C67.4705 91.0861 66.5073 88.4373 66.0257 87.4741C65.3033 86.2702 65.3033 83.8622 63.8586 83.3806C63.8586 82.6582 64.0993 81.6951 64.0993 80.9727C64.3401 78.8055 64.8217 76.8792 64.8217 74.712C64.8217 73.508 64.8217 72.5449 64.8217 71.3409C64.8217 70.8593 64.5809 70.1369 64.5809 69.4145C65.0625 68.9329 65.5441 68.4514 65.7849 67.729C66.7481 66.0434 67.2297 64.3578 67.9521 62.6723C68.4336 61.7091 68.9152 60.7459 69.3968 59.5419C69.6376 61.2275 70.6008 63.3947 71.0824 64.8394C72.0456 66.7658 73.0088 68.6921 74.6943 70.1369C75.1759 70.6185 75.6575 71.1001 76.1391 71.5817C76.1391 72.3041 76.6207 72.7857 76.6207 73.508C76.6207 74.4712 76.6207 75.1936 76.6207 76.1568C76.8615 78.0831 76.8615 80.0095 77.3431 81.9359C77.8246 83.6214 78.547 85.307 78.7878 87.2334C79.0286 89.1597 79.5102 91.0861 79.751 92.7716C79.9918 93.7348 80.2326 94.9388 80.2326 95.902C80.2326 96.3835 80.2326 97.3467 80.2326 98.0691C79.2694 100.236 76.8615 101.922 76.3799 104.33C76.1391 105.775 75.8983 106.979 75.4167 108.423C74.9351 110.109 76.3799 110.59 77.5839 109.386C78.3062 108.664 78.547 106.979 79.0286 106.015C79.5102 106.015 79.9918 106.015 80.2326 106.015C80.2326 107.46 79.2694 108.905 79.0286 110.35C78.0654 110.59 76.8615 111.313 76.6207 112.035C76.1391 112.998 77.5839 112.998 78.547 112.758C79.2694 113.48 81.1958 112.998 82.3997 112.276C84.3261 112.758 85.2893 109.386 86.0117 108.183C88.9012 105.775 88.1788 102.885 87.4564 100.959Z" fill="url(#paint3_linear_75_177)"/>
<path d="M87.4564 100.959C87.2156 100.477 86.9749 99.7547 86.9749 99.2731C87.938 98.3099 87.4564 95.4204 87.4564 94.4572C87.4564 92.5308 87.6972 90.8453 87.938 88.9189C88.4196 84.8254 88.1788 80.9727 87.938 77.12C87.938 75.916 87.6972 72.5449 86.7341 71.1001C86.4933 69.1737 85.7709 67.9698 85.0485 66.0434C84.8077 65.0802 84.8077 62.4315 84.3261 60.7459C84.5669 58.8196 83.8445 56.8932 83.3629 55.2076C82.8813 53.7629 82.159 50.8733 81.1958 49.6694C81.1958 49.1878 81.1958 48.7062 81.1958 48.4654C80.955 46.0574 79.9918 42.6863 78.0654 41.0007C77.1023 40.0376 75.6575 39.7968 74.4535 39.0744C73.0088 38.352 72.0456 37.8704 70.6008 37.3888C70.36 36.6664 69.3968 36.1848 68.6744 35.7033C67.9521 35.2217 66.9889 34.9809 66.0257 34.4993C65.3033 34.0177 64.3401 33.5361 63.6178 33.0545C62.8954 32.5729 61.9322 31.8505 61.2098 31.369C60.7282 30.8874 60.0058 30.4058 59.5242 29.9242C59.0427 28.2386 59.0427 26.3123 59.0427 24.3859C59.2835 23.9043 59.5242 23.6635 59.5242 23.1819C59.5242 22.7003 59.765 22.2187 60.0058 21.4964C60.0058 21.0148 60.0058 20.5332 60.2466 20.0516C60.7282 19.8108 60.969 19.57 61.2098 19.0884C61.6914 18.1252 62.173 16.6805 62.4138 15.7173C62.4138 15.2357 62.6546 14.2725 62.4138 13.7909C62.173 13.3093 61.6914 13.5501 61.4506 13.7909C61.6914 12.1054 61.6914 10.4198 61.6914 8.73424C61.4506 5.12232 60.2466 1.02881 55.9123 0.547216C53.986 0.306422 51.8188 -0.175168 49.8925 0.0656268C48.2069 0.306422 47.0029 1.2696 46.0397 2.71437C45.3174 2.95516 44.8358 3.19596 44.3542 3.91834C43.8726 4.64073 43.8726 5.60391 43.6318 6.32629C43.391 7.28947 43.1502 8.25265 43.1502 8.97503C42.9094 10.6606 43.1502 12.587 43.1502 14.2725C42.9094 14.0317 42.4278 14.0317 42.187 14.5133C41.7054 15.7173 42.187 16.9213 42.6686 18.1252C42.9094 19.0884 43.6318 20.2924 44.595 20.5332C44.595 21.2556 45.0766 22.9411 45.0766 23.4227C45.3174 24.6267 45.3174 25.8307 45.0766 26.7939C45.0766 27.0346 45.0766 27.2754 45.0766 27.5162C44.595 27.757 43.8726 28.4794 43.6318 28.7202C42.4278 29.6834 41.4646 30.6466 40.0199 31.1282C39.0567 31.6097 37.1303 31.8505 36.4079 32.8137C35.4448 32.5729 34.4816 32.3321 33.2776 32.3321C30.8697 32.3321 28.4617 33.0545 26.0538 34.0177C24.8498 34.4993 23.6458 35.2217 22.6826 35.9441C21.9603 36.4256 20.9971 37.3888 20.5155 38.1112C20.0339 38.1112 19.7931 38.1112 19.3115 38.1112C18.1075 38.1112 16.9036 38.5928 15.6996 39.3152C15.218 39.556 14.014 40.2784 13.5324 41.0007C13.5324 40.0376 13.5324 39.3152 13.5324 38.352C13.5324 35.4625 13.7732 33.0545 14.7364 30.4058C15.4588 28.2386 16.9036 26.3123 18.3483 24.3859C19.3115 24.3859 20.0339 24.1451 20.7563 23.4227C21.4787 23.1819 22.4418 22.7003 22.9234 21.7372C23.405 21.0148 23.6458 20.0516 24.1274 19.3292C24.609 18.366 24.3682 17.4029 24.1274 16.4397C23.8866 15.2357 23.6458 14.7541 22.4418 15.2357C22.4418 14.7541 22.2011 14.5133 21.9603 14.0317C21.4787 12.8278 20.7563 13.0685 19.5523 13.3093C18.8299 13.5501 16.9036 13.3093 16.422 14.2725C15.6996 14.2725 14.9772 14.2725 14.7364 14.7541C14.2548 14.7541 13.5324 14.9949 13.7732 15.4765C13.0509 15.7173 12.8101 16.1989 12.5693 16.6805C12.0877 17.4029 12.0877 18.1252 12.0877 18.8476C12.0877 19.57 11.8469 20.2924 11.6061 21.2556C11.3653 21.978 11.3653 22.7003 11.1245 23.4227C10.8837 23.6635 10.8837 24.3859 10.8837 24.8675C10.6429 25.3491 10.4021 26.0715 10.4021 26.5531C10.1613 27.2754 9.92052 27.9978 9.43893 28.7202C8.47575 30.165 7.51257 31.6097 6.54939 33.0545C4.62303 35.9441 2.69668 39.556 1.97429 42.9271C1.7335 43.8903 1.01111 46.0574 1.01111 47.743C0.0479343 49.1878 -0.67445 52.3181 1.01111 53.2813C1.97429 53.7629 2.93747 54.0037 3.90065 54.2445C4.86383 54.726 6.0678 54.9668 7.27178 54.9668C7.99416 54.9668 8.95734 54.726 9.67972 54.2445C12.0877 54.2445 14.7364 53.7629 17.1444 53.5221C20.0339 53.0405 22.6826 52.3181 25.0906 50.8733C25.813 50.3917 26.7762 49.9102 27.4985 49.4286C29.4249 51.3549 30.1473 54.4853 31.1105 56.8932C32.3144 59.7827 32.796 62.9131 34 65.8026C34.2408 66.525 34.7224 67.4882 35.204 68.4513C34.9632 69.1737 34.9632 70.1369 34.7224 70.6185C34.4816 71.5817 34.2408 72.3041 34 73.2672C33.5184 74.9528 33.5184 77.12 33.2776 79.0463C33.2776 79.7687 33.2776 80.7319 33.0368 81.4543C32.796 81.4543 32.3144 81.2135 32.0736 81.6951C31.8328 81.9359 31.592 82.4175 31.592 82.899C31.3513 83.6214 31.1105 84.5846 30.6289 85.307C30.1473 86.2702 28.7025 88.1965 29.6657 89.1597C28.4617 91.5677 27.9801 94.2164 27.4985 96.8651C27.0169 100.236 26.2946 103.367 25.813 106.738C25.3314 113.48 26.0538 120.222 27.0169 126.724C27.2577 128.891 27.9801 131.058 28.2209 133.466C27.0169 135.392 27.4985 139.004 27.4985 141.171C27.4985 142.375 27.0169 143.82 26.7762 145.265C25.813 146.228 25.0906 150.081 25.0906 151.044C24.609 153.693 24.3682 156.101 24.3682 158.749C24.3682 161.398 24.3682 164.047 24.609 166.696C24.8498 169.104 25.5722 171.512 25.813 174.16C26.0538 175.605 25.813 177.291 25.813 178.735C25.813 179.699 25.5722 180.903 25.3314 181.866C23.8866 182.829 23.1642 184.996 22.9234 186.922C21.9603 188.367 21.2379 189.812 20.0339 191.257C18.8299 192.701 16.422 193.905 15.9404 196.073C14.4956 201.852 23.405 199.685 25.5722 199.203C27.7393 198.962 28.7025 197.758 29.1841 195.832C29.6657 195.832 29.9065 195.591 30.3881 195.591C33.0368 194.869 33.2776 193.183 32.5552 190.775C32.0736 189.33 32.0736 186.682 31.3513 185.237C31.3513 182.829 31.3513 180.662 31.592 178.254C32.0736 175.605 33.0368 173.197 34 170.548C34.9632 167.9 35.4448 165.251 36.1672 162.843C37.1303 158.268 36.4079 153.693 36.1672 149.118C35.9264 145.746 37.6119 142.375 39.0567 139.486C40.2607 136.837 40.7423 133.948 41.2238 131.058C41.4646 129.613 41.9462 128.168 42.187 126.724C42.4278 125.279 42.4278 123.593 42.6686 122.149C43.391 119.259 45.5581 117.092 46.7621 114.202C47.2437 112.758 47.7253 111.313 47.9661 109.868C48.2069 109.386 48.2069 108.664 48.4477 108.183C48.6885 108.905 48.9293 109.627 48.9293 110.35C49.1701 111.794 49.4109 112.998 49.8925 114.443C50.8556 117.333 52.0596 119.981 52.5412 122.63C52.782 124.075 53.0228 125.52 53.5044 126.964C53.986 128.168 54.4676 129.372 54.9491 130.817C55.6715 133.466 55.9123 136.355 56.8755 139.245C57.3571 140.69 58.3203 142.135 58.8019 143.579C59.0427 144.061 59.2834 145.024 59.765 145.987C59.0427 151.285 59.765 157.064 60.969 162.121C62.173 167.418 65.3033 172.475 65.7849 177.772C66.0257 179.217 66.0257 180.903 66.2665 182.588C66.2665 183.31 66.2665 183.792 66.2665 184.514C65.5441 185.478 65.5441 186.922 65.5441 188.126C65.5441 189.571 65.3033 190.534 65.0625 191.979C64.3401 194.869 67.2297 195.35 69.3968 195.591C69.156 199.203 73.9719 199.444 76.8615 198.962C78.547 198.721 80.955 198.962 82.159 197.517C83.6037 195.832 81.9182 193.905 80.4734 192.942C79.2694 191.979 78.0654 191.016 76.8615 190.053C76.3799 188.608 75.4167 187.404 74.9351 185.959C74.6943 185.237 73.7311 181.384 72.5272 181.866C72.0456 179.458 72.2864 177.05 72.2864 174.642C72.2864 169.104 72.768 165.492 72.2864 159.231C72.0456 156.582 72.2864 153.452 71.564 150.562C71.3232 149.118 70.6008 145.746 69.3968 143.339C69.6376 141.412 69.156 139.245 68.9152 137.319C68.6744 135.152 68.9152 133.225 68.9152 131.058C69.8784 128.891 69.6376 127.205 69.8784 124.797C70.36 118.777 69.156 113.48 68.6744 107.701C68.4337 105.052 68.1929 102.403 67.7113 99.5139C67.2297 97.1059 66.5073 94.4572 66.2665 91.8084C67.4705 91.0861 66.5073 88.4373 66.0257 87.4741C65.3033 86.2702 65.3033 83.8622 63.8586 83.3806C63.8586 82.6582 64.0993 81.6951 64.0993 80.9727C64.3401 78.8055 64.8217 76.8792 64.8217 74.712C64.8217 73.508 64.8217 72.5449 64.8217 71.3409C64.8217 70.8593 64.5809 70.1369 64.5809 69.4145C65.0625 68.9329 65.5441 68.4514 65.7849 67.729C66.7481 66.0434 67.2297 64.3578 67.9521 62.6723C68.4336 61.7091 68.9152 60.7459 69.3968 59.5419C69.6376 61.2275 70.6008 63.3947 71.0824 64.8394C72.0456 66.7658 73.0088 68.6921 74.6943 70.1369C75.1759 70.6185 75.6575 71.1001 76.1391 71.5817C76.1391 72.3041 76.6207 72.7857 76.6207 73.508C76.6207 74.4712 76.6207 75.1936 76.6207 76.1568C76.8615 78.0831 76.8615 80.0095 77.3431 81.9359C77.8246 83.6214 78.547 85.307 78.7878 87.2334C79.0286 89.1597 79.5102 91.0861 79.751 92.7716C79.9918 93.7348 80.2326 94.9388 80.2326 95.902C80.2326 96.3835 80.2326 97.3467 80.2326 98.0691C79.2694 100.236 76.8615 101.922 76.3799 104.33C76.1391 105.775 75.8983 106.979 75.4167 108.423C74.9351 110.109 76.3799 110.59 77.5839 109.386C78.3062 108.664 78.547 106.979 79.0286 106.015C79.5102 106.015 79.9918 106.015 80.2326 106.015C80.2326 107.46 79.2694 108.905 79.0286 110.35C78.0654 110.59 76.8615 111.313 76.6207 112.035C76.1391 112.998 77.5839 112.998 78.547 112.758C79.2694 113.48 81.1958 112.998 82.3997 112.276C84.3261 112.758 85.2893 109.386 86.0117 108.183C88.9012 105.775 88.1788 102.885 87.4564 100.959Z" fill="url(#paint4_linear_75_177)"/>
<path d="M87.4564 100.959C87.2156 100.477 86.9749 99.7547 86.9749 99.2731C87.938 98.3099 87.4564 95.4204 87.4564 94.4572C87.4564 92.5308 87.6972 90.8453 87.938 88.9189C88.4196 84.8254 88.1788 80.9727 87.938 77.12C87.938 75.916 87.6972 72.5449 86.7341 71.1001C86.4933 69.1737 85.7709 67.9698 85.0485 66.0434C84.8077 65.0802 84.8077 62.4315 84.3261 60.7459C84.5669 58.8196 83.8445 56.8932 83.3629 55.2076C82.8813 53.7629 82.159 50.8733 81.1958 49.6694C81.1958 49.1878 81.1958 48.7062 81.1958 48.4654C80.955 46.0574 79.9918 42.6863 78.0654 41.0007C77.1023 40.0376 75.6575 39.7968 74.4535 39.0744C73.0088 38.352 72.0456 37.8704 70.6008 37.3888C70.36 36.6664 69.3968 36.1848 68.6744 35.7033C67.9521 35.2217 66.9889 34.9809 66.0257 34.4993C65.3033 34.0177 64.3401 33.5361 63.6178 33.0545C62.8954 32.5729 61.9322 31.8505 61.2098 31.369C60.7282 30.8874 60.0058 30.4058 59.5242 29.9242C59.0427 28.2386 59.0427 26.3123 59.0427 24.3859C59.2835 23.9043 59.5242 23.6635 59.5242 23.1819C59.5242 22.7003 59.765 22.2187 60.0058 21.4964C60.0058 21.0148 60.0058 20.5332 60.2466 20.0516C60.7282 19.8108 60.969 19.57 61.2098 19.0884C61.6914 18.1252 62.173 16.6805 62.4138 15.7173C62.4138 15.2357 62.6546 14.2725 62.4138 13.7909C62.173 13.3093 61.6914 13.5501 61.4506 13.7909C61.6914 12.1054 61.6914 10.4198 61.6914 8.73424C61.4506 5.12232 60.2466 1.02881 55.9123 0.547216C53.986 0.306422 51.8188 -0.175168 49.8925 0.0656268C48.2069 0.306422 47.0029 1.2696 46.0397 2.71437C45.3174 2.95516 44.8358 3.19596 44.3542 3.91834C43.8726 4.64073 43.8726 5.60391 43.6318 6.32629C43.391 7.28947 43.1502 8.25265 43.1502 8.97503C42.9094 10.6606 43.1502 12.587 43.1502 14.2725C42.9094 14.0317 42.4278 14.0317 42.187 14.5133C41.7054 15.7173 42.187 16.9213 42.6686 18.1252C42.9094 19.0884 43.6318 20.2924 44.595 20.5332C44.595 21.2556 45.0766 22.9411 45.0766 23.4227C45.3174 24.6267 45.3174 25.8307 45.0766 26.7939C45.0766 27.0346 45.0766 27.2754 45.0766 27.5162C44.595 27.757 43.8726 28.4794 43.6318 28.7202C42.4278 29.6834 41.4646 30.6466 40.0199 31.1282C39.0567 31.6097 37.1303 31.8505 36.4079 32.8137C35.4448 32.5729 34.4816 32.3321 33.2776 32.3321C30.8697 32.3321 28.4617 33.0545 26.0538 34.0177C24.8498 34.4993 23.6458 35.2217 22.6826 35.9441C21.9603 36.4256 20.9971 37.3888 20.5155 38.1112C20.0339 38.1112 19.7931 38.1112 19.3115 38.1112C18.1075 38.1112 16.9036 38.5928 15.6996 39.3152C15.218 39.556 14.014 40.2784 13.5324 41.0007C13.5324 40.0376 13.5324 39.3152 13.5324 38.352C13.5324 35.4625 13.7732 33.0545 14.7364 30.4058C15.4588 28.2386 16.9036 26.3123 18.3483 24.3859C19.3115 24.3859 20.0339 24.1451 20.7563 23.4227C21.4787 23.1819 22.4418 22.7003 22.9234 21.7372C23.405 21.0148 23.6458 20.0516 24.1274 19.3292C24.609 18.366 24.3682 17.4029 24.1274 16.4397C23.8866 15.2357 23.6458 14.7541 22.4418 15.2357C22.4418 14.7541 22.2011 14.5133 21.9603 14.0317C21.4787 12.8278 20.7563 13.0685 19.5523 13.3093C18.8299 13.5501 16.9036 13.3093 16.422 14.2725C15.6996 14.2725 14.9772 14.2725 14.7364 14.7541C14.2548 14.7541 13.5324 14.9949 13.7732 15.4765C13.0509 15.7173 12.8101 16.1989 12.5693 16.6805C12.0877 17.4029 12.0877 18.1252 12.0877 18.8476C12.0877 19.57 11.8469 20.2924 11.6061 21.2556C11.3653 21.978 11.3653 22.7003 11.1245 23.4227C10.8837 23.6635 10.8837 24.3859 10.8837 24.8675C10.6429 25.3491 10.4021 26.0715 10.4021 26.5531C10.1613 27.2754 9.92052 27.9978 9.43893 28.7202C8.47575 30.165 7.51257 31.6097 6.54939 33.0545C4.62303 35.9441 2.69668 39.556 1.97429 42.9271C1.7335 43.8903 1.01111 46.0574 1.01111 47.743C0.0479343 49.1878 -0.67445 52.3181 1.01111 53.2813C1.97429 53.7629 2.93747 54.0037 3.90065 54.2445C4.86383 54.726 6.0678 54.9668 7.27178 54.9668C7.99416 54.9668 8.95734 54.726 9.67972 54.2445C12.0877 54.2445 14.7364 53.7629 17.1444 53.5221C20.0339 53.0405 22.6826 52.3181 25.0906 50.8733C25.813 50.3917 26.7762 49.9102 27.4985 49.4286C29.4249 51.3549 30.1473 54.4853 31.1105 56.8932C32.3144 59.7827 32.796 62.9131 34 65.8026C34.2408 66.525 34.7224 67.4882 35.204 68.4513C34.9632 69.1737 34.9632 70.1369 34.7224 70.6185C34.4816 71.5817 34.2408 72.3041 34 73.2672C33.5184 74.9528 33.5184 77.12 33.2776 79.0463C33.2776 79.7687 33.2776 80.7319 33.0368 81.4543C32.796 81.4543 32.3144 81.2135 32.0736 81.6951C31.8328 81.9359 31.592 82.4175 31.592 82.899C31.3513 83.6214 31.1105 84.5846 30.6289 85.307C30.1473 86.2702 28.7025 88.1965 29.6657 89.1597C28.4617 91.5677 27.9801 94.2164 27.4985 96.8651C27.0169 100.236 26.2946 103.367 25.813 106.738C25.3314 113.48 26.0538 120.222 27.0169 126.724C27.2577 128.891 27.9801 131.058 28.2209 133.466C27.0169 135.392 27.4985 139.004 27.4985 141.171C27.4985 142.375 27.0169 143.82 26.7762 145.265C25.813 146.228 25.0906 150.081 25.0906 151.044C24.609 153.693 24.3682 156.101 24.3682 158.749C24.3682 161.398 24.3682 164.047 24.609 166.696C24.8498 169.104 25.5722 171.512 25.813 174.16C26.0538 175.605 25.813 177.291 25.813 178.735C25.813 179.699 25.5722 180.903 25.3314 181.866C23.8866 182.829 23.1642 184.996 22.9234 186.922C21.9603 188.367 21.2379 189.812 20.0339 191.257C18.8299 192.701 16.422 193.905 15.9404 196.073C14.4956 201.852 23.405 199.685 25.5722 199.203C27.7393 198.962 28.7025 197.758 29.1841 195.832C29.6657 195.832 29.9065 195.591 30.3881 195.591C33.0368 194.869 33.2776 193.183 32.5552 190.775C32.0736 189.33 32.0736 186.682 31.3513 185.237C31.3513 182.829 31.3513 180.662 31.592 178.254C32.0736 175.605 33.0368 173.197 34 170.548C34.9632 167.9 35.4448 165.251 36.1672 162.843C37.1303 158.268 36.4079 153.693 36.1672 149.118C35.9264 145.746 37.6119 142.375 39.0567 139.486C40.2607 136.837 40.7423 133.948 41.2238 131.058C41.4646 129.613 41.9462 128.168 42.187 126.724C42.4278 125.279 42.4278 123.593 42.6686 122.149C43.391 119.259 45.5581 117.092 46.7621 114.202C47.2437 112.758 47.7253 111.313 47.9661 109.868C48.2069 109.386 48.2069 108.664 48.4477 108.183C48.6885 108.905 48.9293 109.627 48.9293 110.35C49.1701 111.794 49.4109 112.998 49.8925 114.443C50.8556 117.333 52.0596 119.981 52.5412 122.63C52.782 124.075 53.0228 125.52 53.5044 126.964C53.986 128.168 54.4676 129.372 54.9491 130.817C55.6715 133.466 55.9123 136.355 56.8755 139.245C57.3571 140.69 58.3203 142.135 58.8019 143.579C59.0427 144.061 59.2834 145.024 59.765 145.987C59.0427 151.285 59.765 157.064 60.969 162.121C62.173 167.418 65.3033 172.475 65.7849 177.772C66.0257 179.217 66.0257 180.903 66.2665 182.588C66.2665 183.31 66.2665 183.792 66.2665 184.514C65.5441 185.478 65.5441 186.922 65.5441 188.126C65.5441 189.571 65.3033 190.534 65.0625 191.979C64.3401 194.869 67.2297 195.35 69.3968 195.591C69.156 199.203 73.9719 199.444 76.8615 198.962C78.547 198.721 80.955 198.962 82.159 197.517C83.6037 195.832 81.9182 193.905 80.4734 192.942C79.2694 191.979 78.0654 191.016 76.8615 190.053C76.3799 188.608 75.4167 187.404 74.9351 185.959C74.6943 185.237 73.7311 181.384 72.5272 181.866C72.0456 179.458 72.2864 177.05 72.2864 174.642C72.2864 169.104 72.768 165.492 72.2864 159.231C72.0456 156.582 72.2864 153.452 71.564 150.562C71.3232 149.118 70.6008 145.746 69.3968 143.339C69.6376 141.412 69.156 139.245 68.9152 137.319C68.6744 135.152 68.9152 133.225 68.9152 131.058C69.8784 128.891 69.6376 127.205 69.8784 124.797C70.36 118.777 69.156 113.48 68.6744 107.701C68.4337 105.052 68.1929 102.403 67.7113 99.5139C67.2297 97.1059 66.5073 94.4572 66.2665 91.8084C67.4705 91.0861 66.5073 88.4373 66.0257 87.4741C65.3033 86.2702 65.3033 83.8622 63.8586 83.3806C63.8586 82.6582 64.0993 81.6951 64.0993 80.9727C64.3401 78.8055 64.8217 76.8792 64.8217 74.712C64.8217 73.508 64.8217 72.5449 64.8217 71.3409C64.8217 70.8593 64.5809 70.1369 64.5809 69.4145C65.0625 68.9329 65.5441 68.4514 65.7849 67.729C66.7481 66.0434 67.2297 64.3578 67.9521 62.6723C68.4336 61.7091 68.9152 60.7459 69.3968 59.5419C69.6376 61.2275 70.6008 63.3947 71.0824 64.8394C72.0456 66.7658 73.0088 68.6921 74.6943 70.1369C75.1759 70.6185 75.6575 71.1001 76.1391 71.5817C76.1391 72.3041 76.6207 72.7857 76.6207 73.508C76.6207 74.4712 76.6207 75.1936 76.6207 76.1568C76.8615 78.0831 76.8615 80.0095 77.3431 81.9359C77.8246 83.6214 78.547 85.307 78.7878 87.2334C79.0286 89.1597 79.5102 91.0861 79.751 92.7716C79.9918 93.7348 80.2326 94.9388 80.2326 95.902C80.2326 96.3835 80.2326 97.3467 80.2326 98.0691C79.2694 100.236 76.8615 101.922 76.3799 104.33C76.1391 105.775 75.8983 106.979 75.4167 108.423C74.9351 110.109 76.3799 110.59 77.5839 109.386C78.3062 108.664 78.547 106.979 79.0286 106.015C79.5102 106.015 79.9918 106.015 80.2326 106.015C80.2326 107.46 79.2694 108.905 79.0286 110.35C78.0654 110.59 76.8615 111.313 76.6207 112.035C76.1391 112.998 77.5839 112.998 78.547 112.758C79.2694 113.48 81.1958 112.998 82.3997 112.276C84.3261 112.758 85.2893 109.386 86.0117 108.183C88.9012 105.775 88.1788 102.885 87.4564 100.959Z" fill="#5CBE4D"/>
<path d="M87.4564 100.959C87.2156 100.477 86.9749 99.7547 86.9749 99.2731C87.938 98.3099 87.4564 95.4204 87.4564 94.4572C87.4564 92.5308 87.6972 90.8453 87.938 88.9189C88.4196 84.8254 88.1788 80.9727 87.938 77.12C87.938 75.916 87.6972 72.5449 86.7341 71.1001C86.4933 69.1737 85.7709 67.9698 85.0485 66.0434C84.8077 65.0802 84.8077 62.4315 84.3261 60.7459C84.5669 58.8196 83.8445 56.8932 83.3629 55.2076C82.8813 53.7629 82.159 50.8733 81.1958 49.6694C81.1958 49.1878 81.1958 48.7062 81.1958 48.4654C80.955 46.0574 79.9918 42.6863 78.0654 41.0007C77.1023 40.0376 75.6575 39.7968 74.4535 39.0744C73.0088 38.352 72.0456 37.8704 70.6008 37.3888C70.36 36.6664 69.3968 36.1848 68.6744 35.7033C67.9521 35.2217 66.9889 34.9809 66.0257 34.4993C65.3033 34.0177 64.3401 33.5361 63.6178 33.0545C62.8954 32.5729 61.9322 31.8505 61.2098 31.369C60.7282 30.8874 60.0058 30.4058 59.5242 29.9242C59.0427 28.2386 59.0427 26.3123 59.0427 24.3859C59.2835 23.9043 59.5242 23.6635 59.5242 23.1819C59.5242 22.7003 59.765 22.2187 60.0058 21.4964C60.0058 21.0148 60.0058 20.5332 60.2466 20.0516C60.7282 19.8108 60.969 19.57 61.2098 19.0884C61.6914 18.1252 62.173 16.6805 62.4138 15.7173C62.4138 15.2357 62.6546 14.2725 62.4138 13.7909C62.173 13.3093 61.6914 13.5501 61.4506 13.7909C61.6914 12.1054 61.6914 10.4198 61.6914 8.73424C61.4506 5.12232 60.2466 1.02881 55.9123 0.547216C53.986 0.306422 51.8188 -0.175168 49.8925 0.0656268C48.2069 0.306422 47.0029 1.2696 46.0397 2.71437C45.3174 2.95516 44.8358 3.19596 44.3542 3.91834C43.8726 4.64073 43.8726 5.60391 43.6318 6.32629C43.391 7.28947 43.1502 8.25265 43.1502 8.97503C42.9094 10.6606 43.1502 12.587 43.1502 14.2725C42.9094 14.0317 42.4278 14.0317 42.187 14.5133C41.7054 15.7173 42.187 16.9213 42.6686 18.1252C42.9094 19.0884 43.6318 20.2924 44.595 20.5332C44.595 21.2556 45.0766 22.9411 45.0766 23.4227C45.3174 24.6267 45.3174 25.8307 45.0766 26.7939C45.0766 27.0346 45.0766 27.2754 45.0766 27.5162C44.595 27.757 43.8726 28.4794 43.6318 28.7202C42.4278 29.6834 41.4646 30.6466 40.0199 31.1282C39.0567 31.6097 37.1303 31.8505 36.4079 32.8137C35.4448 32.5729 34.4816 32.3321 33.2776 32.3321C30.8697 32.3321 28.4617 33.0545 26.0538 34.0177C24.8498 34.4993 23.6458 35.2217 22.6826 35.9441C21.9603 36.4256 20.9971 37.3888 20.5155 38.1112C20.0339 38.1112 19.7931 38.1112 19.3115 38.1112C18.1075 38.1112 16.9036 38.5928 15.6996 39.3152C15.218 39.556 14.014 40.2784 13.5324 41.0007C13.5324 40.0376 13.5324 39.3152 13.5324 38.352C13.5324 35.4625 13.7732 33.0545 14.7364 30.4058C15.4588 28.2386 16.9036 26.3123 18.3483 24.3859C19.3115 24.3859 20.0339 24.1451 20.7563 23.4227C21.4787 23.1819 22.4418 22.7003 22.9234 21.7372C23.405 21.0148 23.6458 20.0516 24.1274 19.3292C24.609 18.366 24.3682 17.4029 24.1274 16.4397C23.8866 15.2357 23.6458 14.7541 22.4418 15.2357C22.4418 14.7541 22.2011 14.5133 21.9603 14.0317C21.4787 12.8278 20.7563 13.0685 19.5523 13.3093C18.8299 13.5501 16.9036 13.3093 16.422 14.2725C15.6996 14.2725 14.9772 14.2725 14.7364 14.7541C14.2548 14.7541 13.5324 14.9949 13.7732 15.4765C13.0509 15.7173 12.8101 16.1989 12.5693 16.6805C12.0877 17.4029 12.0877 18.1252 12.0877 18.8476C12.0877 19.57 11.8469 20.2924 11.6061 21.2556C11.3653 21.978 11.3653 22.7003 11.1245 23.4227C10.8837 23.6635 10.8837 24.3859 10.8837 24.8675C10.6429 25.3491 10.4021 26.0715 10.4021 26.5531C10.1613 27.2754 9.92052 27.9978 9.43893 28.7202C8.47575 30.165 7.51257 31.6097 6.54939 33.0545C4.62303 35.9441 2.69668 39.556 1.97429 42.9271C1.7335 43.8903 1.01111 46.0574 1.01111 47.743C0.0479343 49.1878 -0.67445 52.3181 1.01111 53.2813C1.97429 53.7629 2.93747 54.0037 3.90065 54.2445C4.86383 54.726 6.0678 54.9668 7.27178 54.9668C7.99416 54.9668 8.95734 54.726 9.67972 54.2445C12.0877 54.2445 14.7364 53.7629 17.1444 53.5221C20.0339 53.0405 22.6826 52.3181 25.0906 50.8733C25.813 50.3917 26.7762 49.9102 27.4985 49.4286C29.4249 51.3549 30.1473 54.4853 31.1105 56.8932C32.3144 59.7827 32.796 62.9131 34 65.8026C34.2408 66.525 34.7224 67.4882 35.204 68.4513C34.9632 69.1737 34.9632 70.1369 34.7224 70.6185C34.4816 71.5817 34.2408 72.3041 34 73.2672C33.5184 74.9528 33.5184 77.12 33.2776 79.0463C33.2776 79.7687 33.2776 80.7319 33.0368 81.4543C32.796 81.4543 32.3144 81.2135 32.0736 81.6951C31.8328 81.9359 31.592 82.4175 31.592 82.899C31.3513 83.6214 31.1105 84.5846 30.6289 85.307C30.1473 86.2702 28.7025 88.1965 29.6657 89.1597C28.4617 91.5677 27.9801 94.2164 27.4985 96.8651C27.0169 100.236 26.2946 103.367 25.813 106.738C25.3314 113.48 26.0538 120.222 27.0169 126.724C27.2577 128.891 27.9801 131.058 28.2209 133.466C27.0169 135.392 27.4985 139.004 27.4985 141.171C27.4985 142.375 27.0169 143.82 26.7762 145.265C25.813 146.228 25.0906 150.081 25.0906 151.044C24.609 153.693 24.3682 156.101 24.3682 158.749C24.3682 161.398 24.3682 164.047 24.609 166.696C24.8498 169.104 25.5722 171.512 25.813 174.16C26.0538 175.605 25.813 177.291 25.813 178.735C25.813 179.699 25.5722 180.903 25.3314 181.866C23.8866 182.829 23.1642 184.996 22.9234 186.922C21.9603 188.367 21.2379 189.812 20.0339 191.257C18.8299 192.701 16.422 193.905 15.9404 196.073C14.4956 201.852 23.405 199.685 25.5722 199.203C27.7393 198.962 28.7025 197.758 29.1841 195.832C29.6657 195.832 29.9065 195.591 30.3881 195.591C33.0368 194.869 33.2776 193.183 32.5552 190.775C32.0736 189.33 32.0736 186.682 31.3513 185.237C31.3513 182.829 31.3513 180.662 31.592 178.254C32.0736 175.605 33.0368 173.197 34 170.548C34.9632 167.9 35.4448 165.251 36.1672 162.843C37.1303 158.268 36.4079 153.693 36.1672 149.118C35.9264 145.746 37.6119 142.375 39.0567 139.486C40.2607 136.837 40.7423 133.948 41.2238 131.058C41.4646 129.613 41.9462 128.168 42.187 126.724C42.4278 125.279 42.4278 123.593 42.6686 122.149C43.391 119.259 45.5581 117.092 46.7621 114.202C47.2437 112.758 47.7253 111.313 47.9661 109.868C48.2069 109.386 48.2069 108.664 48.4477 108.183C48.6885 108.905 48.9293 109.627 48.9293 110.35C49.1701 111.794 49.4109 112.998 49.8925 114.443C50.8556 117.333 52.0596 119.981 52.5412 122.63C52.782 124.075 53.0228 125.52 53.5044 126.964C53.986 128.168 54.4676 129.372 54.9491 130.817C55.6715 133.466 55.9123 136.355 56.8755 139.245C57.3571 140.69 58.3203 142.135 58.8019 143.579C59.0427 144.061 59.2834 145.024 59.765 145.987C59.0427 151.285 59.765 157.064 60.969 162.121C62.173 167.418 65.3033 172.475 65.7849 177.772C66.0257 179.217 66.0257 180.903 66.2665 182.588C66.2665 183.31 66.2665 183.792 66.2665 184.514C65.5441 185.478 65.5441 186.922 65.5441 188.126C65.5441 189.571 65.3033 190.534 65.0625 191.979C64.3401 194.869 67.2297 195.35 69.3968 195.591C69.156 199.203 73.9719 199.444 76.8615 198.962C78.547 198.721 80.955 198.962 82.159 197.517C83.6037 195.832 81.9182 193.905 80.4734 192.942C79.2694 191.979 78.0654 191.016 76.8615 190.053C76.3799 188.608 75.4167 187.404 74.9351 185.959C74.6943 185.237 73.7311 181.384 72.5272 181.866C72.0456 179.458 72.2864 177.05 72.2864 174.642C72.2864 169.104 72.768 165.492 72.2864 159.231C72.0456 156.582 72.2864 153.452 71.564 150.562C71.3232 149.118 70.6008 145.746 69.3968 143.339C69.6376 141.412 69.156 139.245 68.9152 137.319C68.6744 135.152 68.9152 133.225 68.9152 131.058C69.8784 128.891 69.6376 127.205 69.8784 124.797C70.36 118.777 69.156 113.48 68.6744 107.701C68.4337 105.052 68.1929 102.403 67.7113 99.5139C67.2297 97.1059 66.5073 94.4572 66.2665 91.8084C67.4705 91.0861 66.5073 88.4373 66.0257 87.4741C65.3033 86.2702 65.3033 83.8622 63.8586 83.3806C63.8586 82.6582 64.0993 81.6951 64.0993 80.9727C64.3401 78.8055 64.8217 76.8792 64.8217 74.712C64.8217 73.508 64.8217 72.5449 64.8217 71.3409C64.8217 70.8593 64.5809 70.1369 64.5809 69.4145C65.0625 68.9329 65.5441 68.4514 65.7849 67.729C66.7481 66.0434 67.2297 64.3578 67.9521 62.6723C68.4336 61.7091 68.9152 60.7459 69.3968 59.5419C69.6376 61.2275 70.6008 63.3947 71.0824 64.8394C72.0456 66.7658 73.0088 68.6921 74.6943 70.1369C75.1759 70.6185 75.6575 71.1001 76.1391 71.5817C76.1391 72.3041 76.6207 72.7857 76.6207 73.508C76.6207 74.4712 76.6207 75.1936 76.6207 76.1568C76.8615 78.0831 76.8615 80.0095 77.3431 81.9359C77.8246 83.6214 78.547 85.307 78.7878 87.2334C79.0286 89.1597 79.5102 91.0861 79.751 92.7716C79.9918 93.7348 80.2326 94.9388 80.2326 95.902C80.2326 96.3835 80.2326 97.3467 80.2326 98.0691C79.2694 100.236 76.8615 101.922 76.3799 104.33C76.1391 105.775 75.8983 106.979 75.4167 108.423C74.9351 110.109 76.3799 110.59 77.5839 109.386C78.3062 108.664 78.547 106.979 79.0286 106.015C79.5102 106.015 79.9918 106.015 80.2326 106.015C80.2326 107.46 79.2694 108.905 79.0286 110.35C78.0654 110.59 76.8615 111.313 76.6207 112.035C76.1391 112.998 77.5839 112.998 78.547 112.758C79.2694 113.48 81.1958 112.998 82.3997 112.276C84.3261 112.758 85.2893 109.386 86.0117 108.183C88.9012 105.775 88.1788 102.885 87.4564 100.959Z" stroke="url(#paint5_linear_75_177)" stroke-width="2" mask="url(#path-1-inside-1_75_177)"/>
<path d="M87.4564 100.959C87.2156 100.477 86.9749 99.7547 86.9749 99.2731C87.938 98.3099 87.4564 95.4204 87.4564 94.4572C87.4564 92.5308 87.6972 90.8453 87.938 88.9189C88.4196 84.8254 88.1788 80.9727 87.938 77.12C87.938 75.916 87.6972 72.5449 86.7341 71.1001C86.4933 69.1737 85.7709 67.9698 85.0485 66.0434C84.8077 65.0802 84.8077 62.4315 84.3261 60.7459C84.5669 58.8196 83.8445 56.8932 83.3629 55.2076C82.8813 53.7629 82.159 50.8733 81.1958 49.6694C81.1958 49.1878 81.1958 48.7062 81.1958 48.4654C80.955 46.0574 79.9918 42.6863 78.0654 41.0007C77.1023 40.0376 75.6575 39.7968 74.4535 39.0744C73.0088 38.352 72.0456 37.8704 70.6008 37.3888C70.36 36.6664 69.3968 36.1848 68.6744 35.7033C67.9521 35.2217 66.9889 34.9809 66.0257 34.4993C65.3033 34.0177 64.3401 33.5361 63.6178 33.0545C62.8954 32.5729 61.9322 31.8505 61.2098 31.369C60.7282 30.8874 60.0058 30.4058 59.5242 29.9242C59.0427 28.2386 59.0427 26.3123 59.0427 24.3859C59.2835 23.9043 59.5242 23.6635 59.5242 23.1819C59.5242 22.7003 59.765 22.2187 60.0058 21.4964C60.0058 21.0148 60.0058 20.5332 60.2466 20.0516C60.7282 19.8108 60.969 19.57 61.2098 19.0884C61.6914 18.1252 62.173 16.6805 62.4138 15.7173C62.4138 15.2357 62.6546 14.2725 62.4138 13.7909C62.173 13.3093 61.6914 13.5501 61.4506 13.7909C61.6914 12.1054 61.6914 10.4198 61.6914 8.73424C61.4506 5.12232 60.2466 1.02881 55.9123 0.547216C53.986 0.306422 51.8188 -0.175168 49.8925 0.0656268C48.2069 0.306422 47.0029 1.2696 46.0397 2.71437C45.3174 2.95516 44.8358 3.19596 44.3542 3.91834C43.8726 4.64073 43.8726 5.60391 43.6318 6.32629C43.391 7.28947 43.1502 8.25265 43.1502 8.97503C42.9094 10.6606 43.1502 12.587 43.1502 14.2725C42.9094 14.0317 42.4278 14.0317 42.187 14.5133C41.7054 15.7173 42.187 16.9213 42.6686 18.1252C42.9094 19.0884 43.6318 20.2924 44.595 20.5332C44.595 21.2556 45.0766 22.9411 45.0766 23.4227C45.3174 24.6267 45.3174 25.8307 45.0766 26.7939C45.0766 27.0346 45.0766 27.2754 45.0766 27.5162C44.595 27.757 43.8726 28.4794 43.6318 28.7202C42.4278 29.6834 41.4646 30.6466 40.0199 31.1282C39.0567 31.6097 37.1303 31.8505 36.4079 32.8137C35.4448 32.5729 34.4816 32.3321 33.2776 32.3321C30.8697 32.3321 28.4617 33.0545 26.0538 34.0177C24.8498 34.4993 23.6458 35.2217 22.6826 35.9441C21.9603 36.4256 20.9971 37.3888 20.5155 38.1112C20.0339 38.1112 19.7931 38.1112 19.3115 38.1112C18.1075 38.1112 16.9036 38.5928 15.6996 39.3152C15.218 39.556 14.014 40.2784 13.5324 41.0007C13.5324 40.0376 13.5324 39.3152 13.5324 38.352C13.5324 35.4625 13.7732 33.0545 14.7364 30.4058C15.4588 28.2386 16.9036 26.3123 18.3483 24.3859C19.3115 24.3859 20.0339 24.1451 20.7563 23.4227C21.4787 23.1819 22.4418 22.7003 22.9234 21.7372C23.405 21.0148 23.6458 20.0516 24.1274 19.3292C24.609 18.366 24.3682 17.4029 24.1274 16.4397C23.8866 15.2357 23.6458 14.7541 22.4418 15.2357C22.4418 14.7541 22.2011 14.5133 21.9603 14.0317C21.4787 12.8278 20.7563 13.0685 19.5523 13.3093C18.8299 13.5501 16.9036 13.3093 16.422 14.2725C15.6996 14.2725 14.9772 14.2725 14.7364 14.7541C14.2548 14.7541 13.5324 14.9949 13.7732 15.4765C13.0509 15.7173 12.8101 16.1989 12.5693 16.6805C12.0877 17.4029 12.0877 18.1252 12.0877 18.8476C12.0877 19.57 11.8469 20.2924 11.6061 21.2556C11.3653 21.978 11.3653 22.7003 11.1245 23.4227C10.8837 23.6635 10.8837 24.3859 10.8837 24.8675C10.6429 25.3491 10.4021 26.0715 10.4021 26.5531C10.1613 27.2754 9.92052 27.9978 9.43893 28.7202C8.47575 30.165 7.51257 31.6097 6.54939 33.0545C4.62303 35.9441 2.69668 39.556 1.97429 42.9271C1.7335 43.8903 1.01111 46.0574 1.01111 47.743C0.0479343 49.1878 -0.67445 52.3181 1.01111 53.2813C1.97429 53.7629 2.93747 54.0037 3.90065 54.2445C4.86383 54.726 6.0678 54.9668 7.27178 54.9668C7.99416 54.9668 8.95734 54.726 9.67972 54.2445C12.0877 54.2445 14.7364 53.7629 17.1444 53.5221C20.0339 53.0405 22.6826 52.3181 25.0906 50.8733C25.813 50.3917 26.7762 49.9102 27.4985 49.4286C29.4249 51.3549 30.1473 54.4853 31.1105 56.8932C32.3144 59.7827 32.796 62.9131 34 65.8026C34.2408 66.525 34.7224 67.4882 35.204 68.4513C34.9632 69.1737 34.9632 70.1369 34.7224 70.6185C34.4816 71.5817 34.2408 72.3041 34 73.2672C33.5184 74.9528 33.5184 77.12 33.2776 79.0463C33.2776 79.7687 33.2776 80.7319 33.0368 81.4543C32.796 81.4543 32.3144 81.2135 32.0736 81.6951C31.8328 81.9359 31.592 82.4175 31.592 82.899C31.3513 83.6214 31.1105 84.5846 30.6289 85.307C30.1473 86.2702 28.7025 88.1965 29.6657 89.1597C28.4617 91.5677 27.9801 94.2164 27.4985 96.8651C27.0169 100.236 26.2946 103.367 25.813 106.738C25.3314 113.48 26.0538 120.222 27.0169 126.724C27.2577 128.891 27.9801 131.058 28.2209 133.466C27.0169 135.392 27.4985 139.004 27.4985 141.171C27.4985 142.375 27.0169 143.82 26.7762 145.265C25.813 146.228 25.0906 150.081 25.0906 151.044C24.609 153.693 24.3682 156.101 24.3682 158.749C24.3682 161.398 24.3682 164.047 24.609 166.696C24.8498 169.104 25.5722 171.512 25.813 174.16C26.0538 175.605 25.813 177.291 25.813 178.735C25.813 179.699 25.5722 180.903 25.3314 181.866C23.8866 182.829 23.1642 184.996 22.9234 186.922C21.9603 188.367 21.2379 189.812 20.0339 191.257C18.8299 192.701 16.422 193.905 15.9404 196.073C14.4956 201.852 23.405 199.685 25.5722 199.203C27.7393 198.962 28.7025 197.758 29.1841 195.832C29.6657 195.832 29.9065 195.591 30.3881 195.591C33.0368 194.869 33.2776 193.183 32.5552 190.775C32.0736 189.33 32.0736 186.682 31.3513 185.237C31.3513 182.829 31.3513 180.662 31.592 178.254C32.0736 175.605 33.0368 173.197 34 170.548C34.9632 167.9 35.4448 165.251 36.1672 162.843C37.1303 158.268 36.4079 153.693 36.1672 149.118C35.9264 145.746 37.6119 142.375 39.0567 139.486C40.2607 136.837 40.7423 133.948 41.2238 131.058C41.4646 129.613 41.9462 128.168 42.187 126.724C42.4278 125.279 42.4278 123.593 42.6686 122.149C43.391 119.259 45.5581 117.092 46.7621 114.202C47.2437 112.758 47.7253 111.313 47.9661 109.868C48.2069 109.386 48.2069 108.664 48.4477 108.183C48.6885 108.905 48.9293 109.627 48.9293 110.35C49.1701 111.794 49.4109 112.998 49.8925 114.443C50.8556 117.333 52.0596 119.981 52.5412 122.63C52.782 124.075 53.0228 125.52 53.5044 126.964C53.986 128.168 54.4676 129.372 54.9491 130.817C55.6715 133.466 55.9123 136.355 56.8755 139.245C57.3571 140.69 58.3203 142.135 58.8019 143.579C59.0427 144.061 59.2834 145.024 59.765 145.987C59.0427 151.285 59.765 157.064 60.969 162.121C62.173 167.418 65.3033 172.475 65.7849 177.772C66.0257 179.217 66.0257 180.903 66.2665 182.588C66.2665 183.31 66.2665 183.792 66.2665 184.514C65.5441 185.478 65.5441 186.922 65.5441 188.126C65.5441 189.571 65.3033 190.534 65.0625 191.979C64.3401 194.869 67.2297 195.35 69.3968 195.591C69.156 199.203 73.9719 199.444 76.8615 198.962C78.547 198.721 80.955 198.962 82.159 197.517C83.6037 195.832 81.9182 193.905 80.4734 192.942C79.2694 191.979 78.0654 191.016 76.8615 190.053C76.3799 188.608 75.4167 187.404 74.9351 185.959C74.6943 185.237 73.7311 181.384 72.5272 181.866C72.0456 179.458 72.2864 177.05 72.2864 174.642C72.2864 169.104 72.768 165.492 72.2864 159.231C72.0456 156.582 72.2864 153.452 71.564 150.562C71.3232 149.118 70.6008 145.746 69.3968 143.339C69.6376 141.412 69.156 139.245 68.9152 137.319C68.6744 135.152 68.9152 133.225 68.9152 131.058C69.8784 128.891 69.6376 127.205 69.8784 124.797C70.36 118.777 69.156 113.48 68.6744 107.701C68.4337 105.052 68.1929 102.403 67.7113 99.5139C67.2297 97.1059 66.5073 94.4572 66.2665 91.8084C67.4705 91.0861 66.5073 88.4373 66.0257 87.4741C65.3033 86.2702 65.3033 83.8622 63.8586 83.3806C63.8586 82.6582 64.0993 81.6951 64.0993 80.9727C64.3401 78.8055 64.8217 76.8792 64.8217 74.712C64.8217 73.508 64.8217 72.5449 64.8217 71.3409C64.8217 70.8593 64.5809 70.1369 64.5809 69.4145C65.0625 68.9329 65.5441 68.4514 65.7849 67.729C66.7481 66.0434 67.2297 64.3578 67.9521 62.6723C68.4336 61.7091 68.9152 60.7459 69.3968 59.5419C69.6376 61.2275 70.6008 63.3947 71.0824 64.8394C72.0456 66.7658 73.0088 68.6921 74.6943 70.1369C75.1759 70.6185 75.6575 71.1001 76.1391 71.5817C76.1391 72.3041 76.6207 72.7857 76.6207 73.508C76.6207 74.4712 76.6207 75.1936 76.6207 76.1568C76.8615 78.0831 76.8615 80.0095 77.3431 81.9359C77.8246 83.6214 78.547 85.307 78.7878 87.2334C79.0286 89.1597 79.5102 91.0861 79.751 92.7716C79.9918 93.7348 80.2326 94.9388 80.2326 95.902C80.2326 96.3835 80.2326 97.3467 80.2326 98.0691C79.2694 100.236 76.8615 101.922 76.3799 104.33C76.1391 105.775 75.8983 106.979 75.4167 108.423C74.9351 110.109 76.3799 110.59 77.5839 109.386C78.3062 108.664 78.547 106.979 79.0286 106.015C79.5102 106.015 79.9918 106.015 80.2326 106.015C80.2326 107.46 79.2694 108.905 79.0286 110.35C78.0654 110.59 76.8615 111.313 76.6207 112.035C76.1391 112.998 77.5839 112.998 78.547 112.758C79.2694 113.48 81.1958 112.998 82.3997 112.276C84.3261 112.758 85.2893 109.386 86.0117 108.183C88.9012 105.775 88.1788 102.885 87.4564 100.959Z" stroke="url(#paint6_linear_75_177)" stroke-width="2" mask="url(#path-1-inside-1_75_177)"/>
<path d="M87.4564 100.959C87.2156 100.477 86.9749 99.7547 86.9749 99.2731C87.938 98.3099 87.4564 95.4204 87.4564 94.4572C87.4564 92.5308 87.6972 90.8453 87.938 88.9189C88.4196 84.8254 88.1788 80.9727 87.938 77.12C87.938 75.916 87.6972 72.5449 86.7341 71.1001C86.4933 69.1737 85.7709 67.9698 85.0485 66.0434C84.8077 65.0802 84.8077 62.4315 84.3261 60.7459C84.5669 58.8196 83.8445 56.8932 83.3629 55.2076C82.8813 53.7629 82.159 50.8733 81.1958 49.6694C81.1958 49.1878 81.1958 48.7062 81.1958 48.4654C80.955 46.0574 79.9918 42.6863 78.0654 41.0007C77.1023 40.0376 75.6575 39.7968 74.4535 39.0744C73.0088 38.352 72.0456 37.8704 70.6008 37.3888C70.36 36.6664 69.3968 36.1848 68.6744 35.7033C67.9521 35.2217 66.9889 34.9809 66.0257 34.4993C65.3033 34.0177 64.3401 33.5361 63.6178 33.0545C62.8954 32.5729 61.9322 31.8505 61.2098 31.369C60.7282 30.8874 60.0058 30.4058 59.5242 29.9242C59.0427 28.2386 59.0427 26.3123 59.0427 24.3859C59.2835 23.9043 59.5242 23.6635 59.5242 23.1819C59.5242 22.7003 59.765 22.2187 60.0058 21.4964C60.0058 21.0148 60.0058 20.5332 60.2466 20.0516C60.7282 19.8108 60.969 19.57 61.2098 19.0884C61.6914 18.1252 62.173 16.6805 62.4138 15.7173C62.4138 15.2357 62.6546 14.2725 62.4138 13.7909C62.173 13.3093 61.6914 13.5501 61.4506 13.7909C61.6914 12.1054 61.6914 10.4198 61.6914 8.73424C61.4506 5.12232 60.2466 1.02881 55.9123 0.547216C53.986 0.306422 51.8188 -0.175168 49.8925 0.0656268C48.2069 0.306422 47.0029 1.2696 46.0397 2.71437C45.3174 2.95516 44.8358 3.19596 44.3542 3.91834C43.8726 4.64073 43.8726 5.60391 43.6318 6.32629C43.391 7.28947 43.1502 8.25265 43.1502 8.97503C42.9094 10.6606 43.1502 12.587 43.1502 14.2725C42.9094 14.0317 42.4278 14.0317 42.187 14.5133C41.7054 15.7173 42.187 16.9213 42.6686 18.1252C42.9094 19.0884 43.6318 20.2924 44.595 20.5332C44.595 21.2556 45.0766 22.9411 45.0766 23.4227C45.3174 24.6267 45.3174 25.8307 45.0766 26.7939C45.0766 27.0346 45.0766 27.2754 45.0766 27.5162C44.595 27.757 43.8726 28.4794 43.6318 28.7202C42.4278 29.6834 41.4646 30.6466 40.0199 31.1282C39.0567 31.6097 37.1303 31.8505 36.4079 32.8137C35.4448 32.5729 34.4816 32.3321 33.2776 32.3321C30.8697 32.3321 28.4617 33.0545 26.0538 34.0177C24.8498 34.4993 23.6458 35.2217 22.6826 35.9441C21.9603 36.4256 20.9971 37.3888 20.5155 38.1112C20.0339 38.1112 19.7931 38.1112 19.3115 38.1112C18.1075 38.1112 16.9036 38.5928 15.6996 39.3152C15.218 39.556 14.014 40.2784 13.5324 41.0007C13.5324 40.0376 13.5324 39.3152 13.5324 38.352C13.5324 35.4625 13.7732 33.0545 14.7364 30.4058C15.4588 28.2386 16.9036 26.3123 18.3483 24.3859C19.3115 24.3859 20.0339 24.1451 20.7563 23.4227C21.4787 23.1819 22.4418 22.7003 22.9234 21.7372C23.405 21.0148 23.6458 20.0516 24.1274 19.3292C24.609 18.366 24.3682 17.4029 24.1274 16.4397C23.8866 15.2357 23.6458 14.7541 22.4418 15.2357C22.4418 14.7541 22.2011 14.5133 21.9603 14.0317C21.4787 12.8278 20.7563 13.0685 19.5523 13.3093C18.8299 13.5501 16.9036 13.3093 16.422 14.2725C15.6996 14.2725 14.9772 14.2725 14.7364 14.7541C14.2548 14.7541 13.5324 14.9949 13.7732 15.4765C13.0509 15.7173 12.8101 16.1989 12.5693 16.6805C12.0877 17.4029 12.0877 18.1252 12.0877 18.8476C12.0877 19.57 11.8469 20.2924 11.6061 21.2556C11.3653 21.978 11.3653 22.7003 11.1245 23.4227C10.8837 23.6635 10.8837 24.3859 10.8837 24.8675C10.6429 25.3491 10.4021 26.0715 10.4021 26.5531C10.1613 27.2754 9.92052 27.9978 9.43893 28.7202C8.47575 30.165 7.51257 31.6097 6.54939 33.0545C4.62303 35.9441 2.69668 39.556 1.97429 42.9271C1.7335 43.8903 1.01111 46.0574 1.01111 47.743C0.0479343 49.1878 -0.67445 52.3181 1.01111 53.2813C1.97429 53.7629 2.93747 54.0037 3.90065 54.2445C4.86383 54.726 6.0678 54.9668 7.27178 54.9668C7.99416 54.9668 8.95734 54.726 9.67972 54.2445C12.0877 54.2445 14.7364 53.7629 17.1444 53.5221C20.0339 53.0405 22.6826 52.3181 25.0906 50.8733C25.813 50.3917 26.7762 49.9102 27.4985 49.4286C29.4249 51.3549 30.1473 54.4853 31.1105 56.8932C32.3144 59.7827 32.796 62.9131 34 65.8026C34.2408 66.525 34.7224 67.4882 35.204 68.4513C34.9632 69.1737 34.9632 70.1369 34.7224 70.6185C34.4816 71.5817 34.2408 72.3041 34 73.2672C33.5184 74.9528 33.5184 77.12 33.2776 79.0463C33.2776 79.7687 33.2776 80.7319 33.0368 81.4543C32.796 81.4543 32.3144 81.2135 32.0736 81.6951C31.8328 81.9359 31.592 82.4175 31.592 82.899C31.3513 83.6214 31.1105 84.5846 30.6289 85.307C30.1473 86.2702 28.7025 88.1965 29.6657 89.1597C28.4617 91.5677 27.9801 94.2164 27.4985 96.8651C27.0169 100.236 26.2946 103.367 25.813 106.738C25.3314 113.48 26.0538 120.222 27.0169 126.724C27.2577 128.891 27.9801 131.058 28.2209 133.466C27.0169 135.392 27.4985 139.004 27.4985 141.171C27.4985 142.375 27.0169 143.82 26.7762 145.265C25.813 146.228 25.0906 150.081 25.0906 151.044C24.609 153.693 24.3682 156.101 24.3682 158.749C24.3682 161.398 24.3682 164.047 24.609 166.696C24.8498 169.104 25.5722 171.512 25.813 174.16C26.0538 175.605 25.813 177.291 25.813 178.735C25.813 179.699 25.5722 180.903 25.3314 181.866C23.8866 182.829 23.1642 184.996 22.9234 186.922C21.9603 188.367 21.2379 189.812 20.0339 191.257C18.8299 192.701 16.422 193.905 15.9404 196.073C14.4956 201.852 23.405 199.685 25.5722 199.203C27.7393 198.962 28.7025 197.758 29.1841 195.832C29.6657 195.832 29.9065 195.591 30.3881 195.591C33.0368 194.869 33.2776 193.183 32.5552 190.775C32.0736 189.33 32.0736 186.682 31.3513 185.237C31.3513 182.829 31.3513 180.662 31.592 178.254C32.0736 175.605 33.0368 173.197 34 170.548C34.9632 167.9 35.4448 165.251 36.1672 162.843C37.1303 158.268 36.4079 153.693 36.1672 149.118C35.9264 145.746 37.6119 142.375 39.0567 139.486C40.2607 136.837 40.7423 133.948 41.2238 131.058C41.4646 129.613 41.9462 128.168 42.187 126.724C42.4278 125.279 42.4278 123.593 42.6686 122.149C43.391 119.259 45.5581 117.092 46.7621 114.202C47.2437 112.758 47.7253 111.313 47.9661 109.868C48.2069 109.386 48.2069 108.664 48.4477 108.183C48.6885 108.905 48.9293 109.627 48.9293 110.35C49.1701 111.794 49.4109 112.998 49.8925 114.443C50.8556 117.333 52.0596 119.981 52.5412 122.63C52.782 124.075 53.0228 125.52 53.5044 126.964C53.986 128.168 54.4676 129.372 54.9491 130.817C55.6715 133.466 55.9123 136.355 56.8755 139.245C57.3571 140.69 58.3203 142.135 58.8019 143.579C59.0427 144.061 59.2834 145.024 59.765 145.987C59.0427 151.285 59.765 157.064 60.969 162.121C62.173 167.418 65.3033 172.475 65.7849 177.772C66.0257 179.217 66.0257 180.903 66.2665 182.588C66.2665 183.31 66.2665 183.792 66.2665 184.514C65.5441 185.478 65.5441 186.922 65.5441 188.126C65.5441 189.571 65.3033 190.534 65.0625 191.979C64.3401 194.869 67.2297 195.35 69.3968 195.591C69.156 199.203 73.9719 199.444 76.8615 198.962C78.547 198.721 80.955 198.962 82.159 197.517C83.6037 195.832 81.9182 193.905 80.4734 192.942C79.2694 191.979 78.0654 191.016 76.8615 190.053C76.3799 188.608 75.4167 187.404 74.9351 185.959C74.6943 185.237 73.7311 181.384 72.5272 181.866C72.0456 179.458 72.2864 177.05 72.2864 174.642C72.2864 169.104 72.768 165.492 72.2864 159.231C72.0456 156.582 72.2864 153.452 71.564 150.562C71.3232 149.118 70.6008 145.746 69.3968 143.339C69.6376 141.412 69.156 139.245 68.9152 137.319C68.6744 135.152 68.9152 133.225 68.9152 131.058C69.8784 128.891 69.6376 127.205 69.8784 124.797C70.36 118.777 69.156 113.48 68.6744 107.701C68.4337 105.052 68.1929 102.403 67.7113 99.5139C67.2297 97.1059 66.5073 94.4572 66.2665 91.8084C67.4705 91.0861 66.5073 88.4373 66.0257 87.4741C65.3033 86.2702 65.3033 83.8622 63.8586 83.3806C63.8586 82.6582 64.0993 81.6951 64.0993 80.9727C64.3401 78.8055 64.8217 76.8792 64.8217 74.712C64.8217 73.508 64.8217 72.5449 64.8217 71.3409C64.8217 70.8593 64.5809 70.1369 64.5809 69.4145C65.0625 68.9329 65.5441 68.4514 65.7849 67.729C66.7481 66.0434 67.2297 64.3578 67.9521 62.6723C68.4336 61.7091 68.9152 60.7459 69.3968 59.5419C69.6376 61.2275 70.6008 63.3947 71.0824 64.8394C72.0456 66.7658 73.0088 68.6921 74.6943 70.1369C75.1759 70.6185 75.6575 71.1001 76.1391 71.5817C76.1391 72.3041 76.6207 72.7857 76.6207 73.508C76.6207 74.4712 76.6207 75.1936 76.6207 76.1568C76.8615 78.0831 76.8615 80.0095 77.3431 81.9359C77.8246 83.6214 78.547 85.307 78.7878 87.2334C79.0286 89.1597 79.5102 91.0861 79.751 92.7716C79.9918 93.7348 80.2326 94.9388 80.2326 95.902C80.2326 96.3835 80.2326 97.3467 80.2326 98.0691C79.2694 100.236 76.8615 101.922 76.3799 104.33C76.1391 105.775 75.8983 106.979 75.4167 108.423C74.9351 110.109 76.3799 110.59 77.5839 109.386C78.3062 108.664 78.547 106.979 79.0286 106.015C79.5102 106.015 79.9918 106.015 80.2326 106.015C80.2326 107.46 79.2694 108.905 79.0286 110.35C78.0654 110.59 76.8615 111.313 76.6207 112.035C76.1391 112.998 77.5839 112.998 78.547 112.758C79.2694 113.48 81.1958 112.998 82.3997 112.276C84.3261 112.758 85.2893 109.386 86.0117 108.183C88.9012 105.775 88.1788 102.885 87.4564 100.959Z" stroke="url(#paint7_linear_75_177)" stroke-width="2" mask="url(#path-1-inside-1_75_177)"/>
<path d="M87.4564 100.959C87.2156 100.477 86.9749 99.7547 86.9749 99.2731C87.938 98.3099 87.4564 95.4204 87.4564 94.4572C87.4564 92.5308 87.6972 90.8453 87.938 88.9189C88.4196 84.8254 88.1788 80.9727 87.938 77.12C87.938 75.916 87.6972 72.5449 86.7341 71.1001C86.4933 69.1737 85.7709 67.9698 85.0485 66.0434C84.8077 65.0802 84.8077 62.4315 84.3261 60.7459C84.5669 58.8196 83.8445 56.8932 83.3629 55.2076C82.8813 53.7629 82.159 50.8733 81.1958 49.6694C81.1958 49.1878 81.1958 48.7062 81.1958 48.4654C80.955 46.0574 79.9918 42.6863 78.0654 41.0007C77.1023 40.0376 75.6575 39.7968 74.4535 39.0744C73.0088 38.352 72.0456 37.8704 70.6008 37.3888C70.36 36.6664 69.3968 36.1848 68.6744 35.7033C67.9521 35.2217 66.9889 34.9809 66.0257 34.4993C65.3033 34.0177 64.3401 33.5361 63.6178 33.0545C62.8954 32.5729 61.9322 31.8505 61.2098 31.369C60.7282 30.8874 60.0058 30.4058 59.5242 29.9242C59.0427 28.2386 59.0427 26.3123 59.0427 24.3859C59.2835 23.9043 59.5242 23.6635 59.5242 23.1819C59.5242 22.7003 59.765 22.2187 60.0058 21.4964C60.0058 21.0148 60.0058 20.5332 60.2466 20.0516C60.7282 19.8108 60.969 19.57 61.2098 19.0884C61.6914 18.1252 62.173 16.6805 62.4138 15.7173C62.4138 15.2357 62.6546 14.2725 62.4138 13.7909C62.173 13.3093 61.6914 13.5501 61.4506 13.7909C61.6914 12.1054 61.6914 10.4198 61.6914 8.73424C61.4506 5.12232 60.2466 1.02881 55.9123 0.547216C53.986 0.306422 51.8188 -0.175168 49.8925 0.0656268C48.2069 0.306422 47.0029 1.2696 46.0397 2.71437C45.3174 2.95516 44.8358 3.19596 44.3542 3.91834C43.8726 4.64073 43.8726 5.60391 43.6318 6.32629C43.391 7.28947 43.1502 8.25265 43.1502 8.97503C42.9094 10.6606 43.1502 12.587 43.1502 14.2725C42.9094 14.0317 42.4278 14.0317 42.187 14.5133C41.7054 15.7173 42.187 16.9213 42.6686 18.1252C42.9094 19.0884 43.6318 20.2924 44.595 20.5332C44.595 21.2556 45.0766 22.9411 45.0766 23.4227C45.3174 24.6267 45.3174 25.8307 45.0766 26.7939C45.0766 27.0346 45.0766 27.2754 45.0766 27.5162C44.595 27.757 43.8726 28.4794 43.6318 28.7202C42.4278 29.6834 41.4646 30.6466 40.0199 31.1282C39.0567 31.6097 37.1303 31.8505 36.4079 32.8137C35.4448 32.5729 34.4816 32.3321 33.2776 32.3321C30.8697 32.3321 28.4617 33.0545 26.0538 34.0177C24.8498 34.4993 23.6458 35.2217 22.6826 35.9441C21.9603 36.4256 20.9971 37.3888 20.5155 38.1112C20.0339 38.1112 19.7931 38.1112 19.3115 38.1112C18.1075 38.1112 16.9036 38.5928 15.6996 39.3152C15.218 39.556 14.014 40.2784 13.5324 41.0007C13.5324 40.0376 13.5324 39.3152 13.5324 38.352C13.5324 35.4625 13.7732 33.0545 14.7364 30.4058C15.4588 28.2386 16.9036 26.3123 18.3483 24.3859C19.3115 24.3859 20.0339 24.1451 20.7563 23.4227C21.4787 23.1819 22.4418 22.7003 22.9234 21.7372C23.405 21.0148 23.6458 20.0516 24.1274 19.3292C24.609 18.366 24.3682 17.4029 24.1274 16.4397C23.8866 15.2357 23.6458 14.7541 22.4418 15.2357C22.4418 14.7541 22.2011 14.5133 21.9603 14.0317C21.4787 12.8278 20.7563 13.0685 19.5523 13.3093C18.8299 13.5501 16.9036 13.3093 16.422 14.2725C15.6996 14.2725 14.9772 14.2725 14.7364 14.7541C14.2548 14.7541 13.5324 14.9949 13.7732 15.4765C13.0509 15.7173 12.8101 16.1989 12.5693 16.6805C12.0877 17.4029 12.0877 18.1252 12.0877 18.8476C12.0877 19.57 11.8469 20.2924 11.6061 21.2556C11.3653 21.978 11.3653 22.7003 11.1245 23.4227C10.8837 23.6635 10.8837 24.3859 10.8837 24.8675C10.6429 25.3491 10.4021 26.0715 10.4021 26.5531C10.1613 27.2754 9.92052 27.9978 9.43893 28.7202C8.47575 30.165 7.51257 31.6097 6.54939 33.0545C4.62303 35.9441 2.69668 39.556 1.97429 42.9271C1.7335 43.8903 1.01111 46.0574 1.01111 47.743C0.0479343 49.1878 -0.67445 52.3181 1.01111 53.2813C1.97429 53.7629 2.93747 54.0037 3.90065 54.2445C4.86383 54.726 6.0678 54.9668 7.27178 54.9668C7.99416 54.9668 8.95734 54.726 9.67972 54.2445C12.0877 54.2445 14.7364 53.7629 17.1444 53.5221C20.0339 53.0405 22.6826 52.3181 25.0906 50.8733C25.813 50.3917 26.7762 49.9102 27.4985 49.4286C29.4249 51.3549 30.1473 54.4853 31.1105 56.8932C32.3144 59.7827 32.796 62.9131 34 65.8026C34.2408 66.525 34.7224 67.4882 35.204 68.4513C34.9632 69.1737 34.9632 70.1369 34.7224 70.6185C34.4816 71.5817 34.2408 72.3041 34 73.2672C33.5184 74.9528 33.5184 77.12 33.2776 79.0463C33.2776 79.7687 33.2776 80.7319 33.0368 81.4543C32.796 81.4543 32.3144 81.2135 32.0736 81.6951C31.8328 81.9359 31.592 82.4175 31.592 82.899C31.3513 83.6214 31.1105 84.5846 30.6289 85.307C30.1473 86.2702 28.7025 88.1965 29.6657 89.1597C28.4617 91.5677 27.9801 94.2164 27.4985 96.8651C27.0169 100.236 26.2946 103.367 25.813 106.738C25.3314 113.48 26.0538 120.222 27.0169 126.724C27.2577 128.891 27.9801 131.058 28.2209 133.466C27.0169 135.392 27.4985 139.004 27.4985 141.171C27.4985 142.375 27.0169 143.82 26.7762 145.265C25.813 146.228 25.0906 150.081 25.0906 151.044C24.609 153.693 24.3682 156.101 24.3682 158.749C24.3682 161.398 24.3682 164.047 24.609 166.696C24.8498 169.104 25.5722 171.512 25.813 174.16C26.0538 175.605 25.813 177.291 25.813 178.735C25.813 179.699 25.5722 180.903 25.3314 181.866C23.8866 182.829 23.1642 184.996 22.9234 186.922C21.9603 188.367 21.2379 189.812 20.0339 191.257C18.8299 192.701 16.422 193.905 15.9404 196.073C14.4956 201.852 23.405 199.685 25.5722 199.203C27.7393 198.962 28.7025 197.758 29.1841 195.832C29.6657 195.832 29.9065 195.591 30.3881 195.591C33.0368 194.869 33.2776 193.183 32.5552 190.775C32.0736 189.33 32.0736 186.682 31.3513 185.237C31.3513 182.829 31.3513 180.662 31.592 178.254C32.0736 175.605 33.0368 173.197 34 170.548C34.9632 167.9 35.4448 165.251 36.1672 162.843C37.1303 158.268 36.4079 153.693 36.1672 149.118C35.9264 145.746 37.6119 142.375 39.0567 139.486C40.2607 136.837 40.7423 133.948 41.2238 131.058C41.4646 129.613 41.9462 128.168 42.187 126.724C42.4278 125.279 42.4278 123.593 42.6686 122.149C43.391 119.259 45.5581 117.092 46.7621 114.202C47.2437 112.758 47.7253 111.313 47.9661 109.868C48.2069 109.386 48.2069 108.664 48.4477 108.183C48.6885 108.905 48.9293 109.627 48.9293 110.35C49.1701 111.794 49.4109 112.998 49.8925 114.443C50.8556 117.333 52.0596 119.981 52.5412 122.63C52.782 124.075 53.0228 125.52 53.5044 126.964C53.986 128.168 54.4676 129.372 54.9491 130.817C55.6715 133.466 55.9123 136.355 56.8755 139.245C57.3571 140.69 58.3203 142.135 58.8019 143.579C59.0427 144.061 59.2834 145.024 59.765 145.987C59.0427 151.285 59.765 157.064 60.969 162.121C62.173 167.418 65.3033 172.475 65.7849 177.772C66.0257 179.217 66.0257 180.903 66.2665 182.588C66.2665 183.31 66.2665 183.792 66.2665 184.514C65.5441 185.478 65.5441 186.922 65.5441 188.126C65.5441 189.571 65.3033 190.534 65.0625 191.979C64.3401 194.869 67.2297 195.35 69.3968 195.591C69.156 199.203 73.9719 199.444 76.8615 198.962C78.547 198.721 80.955 198.962 82.159 197.517C83.6037 195.832 81.9182 193.905 80.4734 192.942C79.2694 191.979 78.0654 191.016 76.8615 190.053C76.3799 188.608 75.4167 187.404 74.9351 185.959C74.6943 185.237 73.7311 181.384 72.5272 181.866C72.0456 179.458 72.2864 177.05 72.2864 174.642C72.2864 169.104 72.768 165.492 72.2864 159.231C72.0456 156.582 72.2864 153.452 71.564 150.562C71.3232 149.118 70.6008 145.746 69.3968 143.339C69.6376 141.412 69.156 139.245 68.9152 137.319C68.6744 135.152 68.9152 133.225 68.9152 131.058C69.8784 128.891 69.6376 127.205 69.8784 124.797C70.36 118.777 69.156 113.48 68.6744 107.701C68.4337 105.052 68.1929 102.403 67.7113 99.5139C67.2297 97.1059 66.5073 94.4572 66.2665 91.8084C67.4705 91.0861 66.5073 88.4373 66.0257 87.4741C65.3033 86.2702 65.3033 83.8622 63.8586 83.3806C63.8586 82.6582 64.0993 81.6951 64.0993 80.9727C64.3401 78.8055 64.8217 76.8792 64.8217 74.712C64.8217 73.508 64.8217 72.5449 64.8217 71.3409C64.8217 70.8593 64.5809 70.1369 64.5809 69.4145C65.0625 68.9329 65.5441 68.4514 65.7849 67.729C66.7481 66.0434 67.2297 64.3578 67.9521 62.6723C68.4336 61.7091 68.9152 60.7459 69.3968 59.5419C69.6376 61.2275 70.6008 63.3947 71.0824 64.8394C72.0456 66.7658 73.0088 68.6921 74.6943 70.1369C75.1759 70.6185 75.6575 71.1001 76.1391 71.5817C76.1391 72.3041 76.6207 72.7857 76.6207 73.508C76.6207 74.4712 76.6207 75.1936 76.6207 76.1568C76.8615 78.0831 76.8615 80.0095 77.3431 81.9359C77.8246 83.6214 78.547 85.307 78.7878 87.2334C79.0286 89.1597 79.5102 91.0861 79.751 92.7716C79.9918 93.7348 80.2326 94.9388 80.2326 95.902C80.2326 96.3835 80.2326 97.3467 80.2326 98.0691C79.2694 100.236 76.8615 101.922 76.3799 104.33C76.1391 105.775 75.8983 106.979 75.4167 108.423C74.9351 110.109 76.3799 110.59 77.5839 109.386C78.3062 108.664 78.547 106.979 79.0286 106.015C79.5102 106.015 79.9918 106.015 80.2326 106.015C80.2326 107.46 79.2694 108.905 79.0286 110.35C78.0654 110.59 76.8615 111.313 76.6207 112.035C76.1391 112.998 77.5839 112.998 78.547 112.758C79.2694 113.48 81.1958 112.998 82.3997 112.276C84.3261 112.758 85.2893 109.386 86.0117 108.183C88.9012 105.775 88.1788 102.885 87.4564 100.959Z" stroke="#5CBE4D" stroke-width="2" mask="url(#path-1-inside-1_75_177)"/>
<defs>
<linearGradient id="paint0_linear_75_177" x1="0" y1="0" x2="121.462" y2="22.7869" gradientUnits="userSpaceOnUse">
<stop stop-color="#A26BCD"/>
<stop offset="1" stop-color="#3A74D9"/>
</linearGradient>
<linearGradient id="paint1_linear_75_177" x1="0" y1="0" x2="121.462" y2="22.7869" gradientUnits="userSpaceOnUse">
<stop stop-color="#FC5997"/>
<stop offset="1" stop-color="#9046B3"/>
</linearGradient>
<linearGradient id="paint2_linear_75_177" x1="0" y1="0" x2="125.639" y2="27.2109" gradientUnits="userSpaceOnUse">
<stop stop-color="#34FFAB"/>
<stop offset="1" stop-color="#BFF770"/>
</linearGradient>
<linearGradient id="paint3_linear_75_177" x1="0" y1="0" x2="125.639" y2="27.2109" gradientUnits="userSpaceOnUse">
<stop stop-color="#B0E532"/>
<stop offset="0.426869" stop-color="#35A004"/>
<stop offset="1" stop-color="#61CF0C"/>
</linearGradient>
<linearGradient id="paint4_linear_75_177" x1="0" y1="0" x2="125.639" y2="27.2109" gradientUnits="userSpaceOnUse">
<stop stop-color="#AFE11E"/>
<stop offset="1" stop-color="#4DB856"/>
</linearGradient>
<linearGradient id="paint5_linear_75_177" x1="0" y1="0" x2="121.462" y2="22.7869" gradientUnits="userSpaceOnUse">
<stop stop-color="#FC5997"/>
<stop offset="1" stop-color="#9046B3"/>
</linearGradient>
<linearGradient id="paint6_linear_75_177" x1="0" y1="0" x2="125.639" y2="27.2109" gradientUnits="userSpaceOnUse">
<stop stop-color="#34FFAB"/>
<stop offset="1" stop-color="#BFF770"/>
</linearGradient>
<linearGradient id="paint7_linear_75_177" x1="0" y1="0" x2="125.639" y2="27.2109" gradientUnits="userSpaceOnUse">
<stop stop-color="#AFE11E"/>
<stop offset="1" stop-color="#4DB856"/>
</linearGradient>
</defs>
</svg>
