<svg width="28" height="18" viewBox="0 0 28 18" fill="none" xmlns="http://www.w3.org/2000/svg">
<path fill-rule="evenodd" clip-rule="evenodd" d="M27.125 9.00004C27.125 8.7514 27.0262 8.51294 26.8504 8.33712C26.6746 8.16131 26.4361 8.06254 26.1875 8.06254L4.07562 8.06254L9.97625 2.16379C10.1523 1.98775 10.2512 1.74899 10.2512 1.50004C10.2512 1.25108 10.1523 1.01232 9.97625 0.836286C9.80021 0.660247 9.56146 0.561351 9.3125 0.561351C9.06355 0.561351 8.82479 0.660247 8.64875 0.836286L1.14875 8.33629C1.06144 8.42337 0.992176 8.52683 0.944914 8.64072C0.897652 8.75462 0.873326 8.87672 0.873326 9.00004C0.873326 9.12335 0.897652 9.24545 0.944914 9.35935C0.992176 9.47324 1.06144 9.5767 1.14875 9.66379L8.64875 17.1638C8.82479 17.3398 9.06355 17.4387 9.3125 17.4387C9.56145 17.4387 9.80021 17.3398 9.97625 17.1638C10.1523 16.9877 10.2512 16.749 10.2512 16.5C10.2512 16.2511 10.1523 16.0123 9.97625 15.8363L4.07562 9.93754L26.1875 9.93754C26.4361 9.93754 26.6746 9.83876 26.8504 9.66295C27.0262 9.48713 27.125 9.24868 27.125 9.00004Z" fill="currentColor"/>
</svg>
