<svg width="16" height="16" viewBox="0 0 16 16" fill="none" xmlns="http://www.w3.org/2000/svg">
<path fill-rule="evenodd" clip-rule="evenodd" d="M13.8537 2.14592C13.9002 2.19236 13.9372 2.24754 13.9624 2.30828C13.9876 2.36903 14.0005 2.43415 14.0005 2.49992C14.0005 2.56568 13.9876 2.63081 13.9624 2.69155C13.9372 2.7523 13.9002 2.80747 13.8537 2.85392L2.85366 13.8539C2.75977 13.9478 2.63243 14.0005 2.49966 14.0005C2.36688 14.0005 2.23954 13.9478 2.14565 13.8539C2.05177 13.76 1.99902 13.6327 1.99902 13.4999C1.99902 13.3671 2.05177 13.2398 2.14565 13.1459L13.1457 2.14592C13.1921 2.09935 13.2473 2.06241 13.308 2.0372C13.3688 2.012 13.4339 1.99902 13.4997 1.99902C13.5654 1.99902 13.6305 2.012 13.6913 2.0372C13.752 2.06241 13.8072 2.09935 13.8537 2.14592Z" fill="black"/>
<path fill-rule="evenodd" clip-rule="evenodd" d="M2.14592 2.14592C2.09935 2.19236 2.06241 2.24754 2.0372 2.30828C2.012 2.36903 1.99902 2.43415 1.99902 2.49992C1.99902 2.56568 2.012 2.63081 2.0372 2.69155C2.06241 2.7523 2.09935 2.80747 2.14592 2.85392L13.1459 13.8539C13.2398 13.9478 13.3671 14.0005 13.4999 14.0005C13.6327 14.0005 13.76 13.9478 13.8539 13.8539C13.9478 13.76 14.0005 13.6327 14.0005 13.4999C14.0005 13.3671 13.9478 13.2398 13.8539 13.1459L2.85392 2.14592C2.80747 2.09935 2.7523 2.06241 2.69155 2.0372C2.63081 2.012 2.56568 1.99902 2.49992 1.99902C2.43415 1.99902 2.36903 2.012 2.30828 2.0372C2.24754 2.06241 2.19236 2.09935 2.14592 2.14592Z" fill="black"/>
</svg>
