<svg width="324" height="324" viewBox="0 0 324 324" fill="none" xmlns="http://www.w3.org/2000/svg">
<g clip-path="url(#clip0_85_84)">
<g opacity="0.32">
<path d="M152.356 240.515C210.364 240.515 257.389 193.585 257.389 135.694C257.389 77.8021 210.364 30.8718 152.356 30.8718C94.3488 30.8718 47.3242 77.8021 47.3242 135.694C47.3242 193.585 94.3488 240.515 152.356 240.515Z" fill="#F6F6F9"/>
<path d="M152.356 240.515C210.364 240.515 257.389 193.585 257.389 135.694C257.389 77.8021 210.364 30.8718 152.356 30.8718C94.3488 30.8718 47.3242 77.8021 47.3242 135.694C47.3242 193.585 94.3488 240.515 152.356 240.515Z" fill="#E1F6E2"/>
</g>
<path d="M154.97 183.585V246.51C154.97 257.411 146.116 266.232 135.209 266.232H39.7616C31.6391 266.232 25.0727 272.8 25.0727 280.891V321.484C25.0727 322.882 23.9368 324.015 22.5363 324.015C21.1359 324.015 20 322.882 20 321.484V280.891C20 270.005 28.8538 261.169 39.7616 261.169H135.209C143.316 261.169 149.898 254.6 149.898 246.51V183.585H154.97Z" fill="#2C447D"/>
<path d="M154.97 183.585V246.51C154.97 257.411 146.116 266.232 135.209 266.232H39.7616C31.6391 266.232 25.0727 272.8 25.0727 280.891V321.484C25.0727 322.882 23.9368 324.015 22.5363 324.015C21.1359 324.015 20 322.882 20 321.484V280.891C20 270.005 28.8538 261.169 39.7616 261.169H135.209C143.316 261.169 149.898 254.6 149.898 246.51V183.585H154.97Z" fill="#5CBE4D"/>
<path d="M160.681 197.158V207.236C160.681 209.643 158.721 211.6 156.309 211.6H148.56C147.222 211.6 146.039 211.01 145.23 210.063C144.577 209.302 144.188 208.308 144.188 207.236V197.158H160.681Z" fill="#2C3872"/>
<path d="M160.681 197.158V207.236C160.681 209.643 158.721 211.6 156.309 211.6H148.56C147.222 211.6 146.039 211.01 145.23 210.063C144.577 209.302 144.188 208.308 144.188 207.236V197.158H160.681Z" fill="#5CBE4D"/>
<path d="M169.286 173.663V193.804C169.286 196.91 166.765 199.441 163.637 199.441H141.23C138.118 199.441 135.582 196.925 135.582 193.804V173.663H169.286Z" fill="#4656A2"/>
<path d="M169.286 173.663V193.804C169.286 196.91 166.765 199.441 163.637 199.441H141.23C138.118 199.441 135.582 196.925 135.582 193.804V173.663H169.286Z" fill="#5CBE4D"/>
<path d="M133.575 169.221H171.293C171.698 169.221 172.04 169.547 172.04 169.967V172.917C172.04 173.321 171.713 173.663 171.293 173.663H133.575C133.17 173.663 132.828 173.336 132.828 172.917V169.967C132.844 169.547 133.17 169.221 133.575 169.221Z" fill="#39488D"/>
<path d="M133.575 169.221H171.293C171.698 169.221 172.04 169.547 172.04 169.967V172.917C172.04 173.321 171.713 173.663 171.293 173.663H133.575C133.17 173.663 132.828 173.336 132.828 172.917V169.967C132.844 169.547 133.17 169.221 133.575 169.221Z" fill="#5CBE4D"/>
<path d="M147.377 169.221H141.635V155.509C141.635 153.925 142.926 152.636 144.513 152.636C146.101 152.636 147.392 153.925 147.392 155.509V169.221H147.377Z" fill="#232851"/>
<path d="M147.377 169.221H141.635V155.509C141.635 153.925 142.926 152.636 144.513 152.636C146.101 152.636 147.392 153.925 147.392 155.509V169.221H147.377Z" fill="#5CBE4D"/>
<path d="M163.234 169.221H157.492V155.509C157.492 153.925 158.784 152.636 160.371 152.636C161.958 152.636 163.249 153.925 163.249 155.509V169.221H163.234Z" fill="#232851"/>
<path d="M163.234 169.221H157.492V155.509C157.492 153.925 158.784 152.636 160.371 152.636C161.958 152.636 163.249 153.925 163.249 155.509V169.221H163.234Z" fill="#5CBE4D"/>
<path d="M169.286 173.662V193.804C169.286 196.909 166.765 199.441 163.637 199.441H141.23C138.118 199.441 135.582 196.925 135.582 193.804C159.778 192.126 162.003 173.662 162.003 173.662H169.286Z" fill="#39488D"/>
<path d="M169.286 173.662V193.804C169.286 196.909 166.765 199.441 163.637 199.441H141.23C138.118 199.441 135.582 196.925 135.582 193.804C159.778 192.126 162.003 173.662 162.003 173.662H169.286Z" fill="#5CBE4D"/>
<path d="M169.286 173.662H135.582V175.293H169.286V173.662Z" fill="#2C3872"/>
<path d="M169.286 173.662H135.582V175.293H169.286V173.662Z" fill="#5CBE4D"/>
<path d="M169.286 182.172V193.804C169.286 196.91 166.765 199.441 163.638 199.441H147.906C163.793 199.425 169.286 182.172 169.286 182.172Z" fill="#2C3872"/>
<path d="M169.286 182.172V193.804C169.286 196.91 166.765 199.441 163.638 199.441H147.906C163.793 199.425 169.286 182.172 169.286 182.172Z" fill="#5CBE4D"/>
<path d="M160.682 199.425H144.203V200.481H160.682V199.425Z" fill="#232851"/>
<path d="M160.682 199.425H144.203V200.481H160.682V199.425Z" fill="#5CBE4D"/>
<path d="M147.377 167.218H141.635V169.221H147.377V167.218Z" fill="#15172D"/>
<path d="M147.377 167.218H141.635V169.221H147.377V167.218Z" fill="#5CBE4D"/>
<path d="M163.234 167.218H157.492V169.221H163.234V167.218Z" fill="#15172D"/>
<path d="M163.234 167.218H157.492V169.221H163.234V167.218Z" fill="#5CBE4D"/>
<path d="M160.682 199.425V207.236C160.682 209.643 158.721 211.6 156.309 211.6H148.56C147.222 211.6 146.04 211.01 145.23 210.063C157.305 211.538 159.141 199.425 159.141 199.425H160.682Z" fill="#232851"/>
<path d="M160.682 199.425V207.236C160.682 209.643 158.721 211.6 156.309 211.6H148.56C147.222 211.6 146.04 211.01 145.23 210.063C157.305 211.538 159.141 199.425 159.141 199.425H160.682Z" fill="#5CBE4D"/>
<path d="M304.008 5.0625H169.676C161.553 5.0625 154.987 11.6313 154.987 19.722V86.2178H149.914V19.722C149.914 8.83608 158.768 0 169.676 0H304.008" fill="#2C447D"/>
<path d="M304.008 5.0625H169.676C161.553 5.0625 154.987 11.6313 154.987 19.722V86.2178H149.914V19.722C149.914 8.83608 158.768 0 169.676 0H304.008" fill="#5CBE4D"/>
<path d="M160.681 80.5185V70.4401C160.681 68.0331 158.721 66.0764 156.309 66.0764H148.56C147.222 66.0764 146.039 66.6665 145.23 67.6138C144.577 68.3747 144.188 69.3686 144.188 70.4401V80.5185H160.681Z" fill="#2C3872"/>
<path d="M160.681 80.5185V70.4401C160.681 68.0331 158.721 66.0764 156.309 66.0764H148.56C147.222 66.0764 146.039 66.6665 145.23 67.6138C144.577 68.3747 144.188 69.3686 144.188 70.4401V80.5185H160.681Z" fill="#5CBE4D"/>
<path d="M169.286 104.03V83.8883C169.286 80.7825 166.765 78.2512 163.637 78.2512H141.23C138.118 78.2512 135.582 80.7669 135.582 83.8883V104.03H169.286Z" fill="#4656A2"/>
<path d="M169.286 104.03V83.8883C169.286 80.7825 166.765 78.2512 163.637 78.2512H141.23C138.118 78.2512 135.582 80.7669 135.582 83.8883V104.03H169.286Z" fill="#5CBE4D"/>
<path d="M133.575 108.471H171.293C171.698 108.471 172.04 108.145 172.04 107.725V104.775C172.04 104.371 171.713 104.03 171.293 104.03H133.575C133.17 104.03 132.828 104.356 132.828 104.775V107.725C132.844 108.129 133.17 108.471 133.575 108.471Z" fill="#39488D"/>
<path d="M133.575 108.471H171.293C171.698 108.471 172.04 108.145 172.04 107.725V104.775C172.04 104.371 171.713 104.03 171.293 104.03H133.575C133.17 104.03 132.828 104.356 132.828 104.775V107.725C132.844 108.129 133.17 108.471 133.575 108.471Z" fill="#5CBE4D"/>
<path d="M108.242 126.05H97.8007C97.0071 126.05 96.3691 125.413 96.3691 124.621C96.3691 123.829 97.0071 123.193 97.8007 123.193H108.242C109.035 123.193 109.673 123.829 109.673 124.621C109.673 125.413 109.035 126.05 108.242 126.05Z" fill="#4656A2"/>
<path d="M108.242 126.05H97.8007C97.0071 126.05 96.3691 125.413 96.3691 124.621C96.3691 123.829 97.0071 123.193 97.8007 123.193H108.242C109.035 123.193 109.673 123.829 109.673 124.621C109.673 125.413 109.035 126.05 108.242 126.05Z" fill="#5CBE4D"/>
<path d="M121.484 112.835C120.691 112.835 120.053 112.198 120.053 111.406V100.986C120.053 100.194 120.691 99.5574 121.484 99.5574C122.278 99.5574 122.916 100.194 122.916 100.986V111.406C122.916 112.198 122.278 112.835 121.484 112.835Z" fill="#4656A2"/>
<path d="M121.484 112.835C120.691 112.835 120.053 112.198 120.053 111.406V100.986C120.053 100.194 120.691 99.5574 121.484 99.5574C122.278 99.5574 122.916 100.194 122.916 100.986V111.406C122.916 112.198 122.278 112.835 121.484 112.835Z" fill="#5CBE4D"/>
<path d="M111.898 116.5C111.524 116.5 111.167 116.36 110.886 116.08L103.713 108.921C103.153 108.362 103.153 107.462 103.713 106.887C104.273 106.328 105.176 106.328 105.752 106.887L112.925 114.046C113.485 114.605 113.485 115.506 112.925 116.08C112.645 116.36 112.271 116.5 111.898 116.5Z" fill="#4656A2"/>
<path d="M111.898 116.5C111.524 116.5 111.167 116.36 110.886 116.08L103.713 108.921C103.153 108.362 103.153 107.462 103.713 106.887C104.273 106.328 105.176 106.328 105.752 106.887L112.925 114.046C113.485 114.605 113.485 115.506 112.925 116.08C112.645 116.36 112.271 116.5 111.898 116.5Z" fill="#5CBE4D"/>
<path d="M196.641 158.304H207.082C207.875 158.304 208.513 158.941 208.513 159.733C208.513 160.525 207.875 161.162 207.082 161.162H196.641C195.847 161.162 195.209 160.525 195.209 159.733C195.209 158.941 195.847 158.304 196.641 158.304Z" fill="#4656A2"/>
<path d="M196.641 158.304H207.082C207.875 158.304 208.513 158.941 208.513 159.733C208.513 160.525 207.875 161.162 207.082 161.162H196.641C195.847 161.162 195.209 160.525 195.209 159.733C195.209 158.941 195.847 158.304 196.641 158.304Z" fill="#5CBE4D"/>
<path d="M183.399 171.52C184.192 171.52 184.83 172.156 184.83 172.948V183.368C184.83 184.16 184.192 184.797 183.399 184.797C182.605 184.797 181.967 184.16 181.967 183.368V172.948C181.952 172.156 182.605 171.52 183.399 171.52Z" fill="#4656A2"/>
<path d="M183.399 171.52C184.192 171.52 184.83 172.156 184.83 172.948V183.368C184.83 184.16 184.192 184.797 183.399 184.797C182.605 184.797 181.967 184.16 181.967 183.368V172.948C181.952 172.156 182.605 171.52 183.399 171.52Z" fill="#5CBE4D"/>
<path d="M192.969 167.855C193.342 167.855 193.7 167.994 193.98 168.274L201.153 175.433C201.713 175.992 201.713 176.893 201.153 177.467C200.593 178.026 199.691 178.026 199.115 177.467L191.942 170.308C191.381 169.749 191.381 168.849 191.942 168.274C192.237 167.994 192.595 167.855 192.969 167.855Z" fill="#4656A2"/>
<path d="M192.969 167.855C193.342 167.855 193.7 167.994 193.98 168.274L201.153 175.433C201.713 175.992 201.713 176.893 201.153 177.467C200.593 178.026 199.691 178.026 199.115 177.467L191.942 170.308C191.381 169.749 191.381 168.849 191.942 168.274C192.237 167.994 192.595 167.855 192.969 167.855Z" fill="#5CBE4D"/>
</g>
<defs>
<clipPath id="clip0_85_84">
<rect width="324" height="324" fill="white"/>
</clipPath>
</defs>
</svg>
