<svg width="308" height="136" fill="none" xmlns="http://www.w3.org/2000/svg"><path d="M.5 135s61.396-12.063 97.5-28.5c32.645-14.862 45.195-33.994 78-48.5 39.068-17.275 73.884 1.166 106-27C293.579 20.845 307 .5 307 .5" stroke="#000"/><path d="M.5 135s61.396-12.063 97.5-28.5c32.645-14.862 45.195-33.994 78-48.5 39.068-17.275 73.884 1.166 106-27C293.579 20.845 307 .5 307 .5" stroke="url(#paint0_linear_66_3794)"/><path d="M.5 135s61.396-12.063 97.5-28.5c32.645-14.862 45.195-33.994 78-48.5 39.068-17.275 73.884 1.166 106-27C293.579 20.845 307 .5 307 .5" stroke="url(#paint1_linear_66_3794)"/><defs><linearGradient id="paint0_linear_66_3794" x1=".5" y1=".5" x2="225.752" y2="218.825" gradientUnits="userSpaceOnUse"><stop stop-color="#FC5997"/><stop offset="1" stop-color="#9046B3"/></linearGradient><linearGradient id="paint1_linear_66_3794" x1=".5" y1=".5" x2="203.426" y2="227.564" gradientUnits="userSpaceOnUse"><stop stop-color="#AFE11E"/><stop offset="1" stop-color="#4DB856"/></linearGradient></defs></svg>