<svg width="148" height="148" fill="none" xmlns="http://www.w3.org/2000/svg"><path d="M0 70.13c.47-2.814.704-5.394 1.407-8.21 2.815-12.665 9.148-23.22 18.53-32.132 11.727-11.024 25.565-17.357 41.28-19.702 20.171-3.05 38.935.469 56.057 11.493 13.604 8.678 23.455 20.64 27.911 36.355 5.864 20.64.939 38.935-12.9 55.118-12.196 14.073-27.911 21.813-45.971 24.628-15.95 2.58-31.43.469-46.206-6.098-.938-.469-1.642-.235-2.58.234-4.926 3.284-10.086 5.629-15.95 6.568-3.518.469-7.036.469-10.32-.469-2.58-.704-4.925-1.642-7.27-2.346 1.876-2.111 3.987-3.987 5.863-5.864 3.518-3.987 5.395-8.678 6.098-13.838 0-.938-.234-1.876-.938-2.58-5.63-6.333-9.85-13.604-12.196-21.579-1.173-4.221-1.642-8.678-2.58-12.9 0-.469-.235-.938-.235-1.642V70.13zm18.53 60.983c1.172-.235 2.58-.235 3.752-.469 5.63-1.173 10.32-3.988 14.777-7.506.703-.704 1.407-.704 2.345-.235 13.135 6.802 27.208 9.382 41.984 7.975 18.764-1.876 34.713-9.616 46.91-24.158 7.271-8.913 11.258-18.999 11.962-30.492.469-11.962-3.049-22.985-10.086-32.602-10.789-14.542-25.8-22.751-43.391-25.8-17.357-3.05-33.54-.47-48.786 7.974-10.79 6.1-19.468 14.308-25.097 25.566-6.333 12.666-7.036 25.566-2.58 38.935 2.58 7.506 6.802 14.073 12.197 19.937.469.469.703.938.703 1.407-.234 3.284-.234 6.802-1.172 10.086-.47 3.049-2.111 6.098-3.519 9.382z" fill="#000"/><path d="M0 70.13c.47-2.814.704-5.394 1.407-8.21 2.815-12.665 9.148-23.22 18.53-32.132 11.727-11.024 25.565-17.357 41.28-19.702 20.171-3.05 38.935.469 56.057 11.493 13.604 8.678 23.455 20.64 27.911 36.355 5.864 20.64.939 38.935-12.9 55.118-12.196 14.073-27.911 21.813-45.971 24.628-15.95 2.58-31.43.469-46.206-6.098-.938-.469-1.642-.235-2.58.234-4.926 3.284-10.086 5.629-15.95 6.568-3.518.469-7.036.469-10.32-.469-2.58-.704-4.925-1.642-7.27-2.346 1.876-2.111 3.987-3.987 5.863-5.864 3.518-3.987 5.395-8.678 6.098-13.838 0-.938-.234-1.876-.938-2.58-5.63-6.333-9.85-13.604-12.196-21.579-1.173-4.221-1.642-8.678-2.58-12.9 0-.469-.235-.938-.235-1.642V70.13zm18.53 60.983c1.172-.235 2.58-.235 3.752-.469 5.63-1.173 10.32-3.988 14.777-7.506.703-.704 1.407-.704 2.345-.235 13.135 6.802 27.208 9.382 41.984 7.975 18.764-1.876 34.713-9.616 46.91-24.158 7.271-8.913 11.258-18.999 11.962-30.492.469-11.962-3.049-22.985-10.086-32.602-10.789-14.542-25.8-22.751-43.391-25.8-17.357-3.05-33.54-.47-48.786 7.974-10.79 6.1-19.468 14.308-25.097 25.566-6.333 12.666-7.036 25.566-2.58 38.935 2.58 7.506 6.802 14.073 12.197 19.937.469.469.703.938.703 1.407-.234 3.284-.234 6.802-1.172 10.086-.47 3.049-2.111 6.098-3.519 9.382z" fill="#E1F6E2"/><path d="M79.98 68.02c-.938 1.641-2.11 3.283-3.05 5.16l-3.517 5.628c-.938 1.642-3.05 1.642-3.988 0-1.876-3.049-3.752-6.098-5.394-9.382-.235-.469-.47-.703-.938-1.172v20.171c0 2.345-.235 2.58-2.58 2.58-3.753 0-3.753 0-3.753-3.753V60.28c0-2.58.234-2.814 2.814-3.049 2.346-.234 3.988.704 5.16 2.815 1.877 3.518 4.222 6.802 6.333 10.085.235.47.47.704.938 1.173.704-.938 1.173-1.876 1.642-2.58 1.642-2.815 3.753-5.395 5.16-8.21 1.408-3.048 3.753-3.517 6.802-3.048.704 0 1.173.469 1.173 1.172 0 .47 0 1.173.234 1.642v28.146c0 2.345-.234 2.58-2.58 2.58-3.752 0-3.752 0-3.752-3.753V68.02c-.47.235-.47 0-.704 0z" fill="#000"/><path d="M79.98 68.02c-.938 1.641-2.11 3.283-3.05 5.16l-3.517 5.628c-.938 1.642-3.05 1.642-3.988 0-1.876-3.049-3.752-6.098-5.394-9.382-.235-.469-.47-.703-.938-1.172v20.171c0 2.345-.235 2.58-2.58 2.58-3.753 0-3.753 0-3.753-3.753V60.28c0-2.58.234-2.814 2.814-3.049 2.346-.234 3.988.704 5.16 2.815 1.877 3.518 4.222 6.802 6.333 10.085.235.47.47.704.938 1.173.704-.938 1.173-1.876 1.642-2.58 1.642-2.815 3.753-5.395 5.16-8.21 1.408-3.048 3.753-3.517 6.802-3.048.704 0 1.173.469 1.173 1.172 0 .47 0 1.173.234 1.642v28.146c0 2.345-.234 2.58-2.58 2.58-3.752 0-3.752 0-3.752-3.753V68.02c-.47.235-.47 0-.704 0z" fill="#E1F6E2"/><path d="M41.75 56.526c2.345.235 4.456.704 6.567.939.938.234 1.407.703 1.173 1.641 0 .235 0 .704-.235.939-.469 2.814-.938 2.814-3.753 2.58-2.345-.235-4.69-.47-7.036-.235-1.876 0-3.05 1.173-3.284 2.58 0 1.642.47 3.05 2.346 3.987 1.876.939 3.753 1.642 5.629 2.58 1.407.704 2.815 1.408 3.987 2.346 4.457 3.284 5.395 9.616 1.877 13.838-1.642 1.877-3.753 2.815-6.099 3.284-4.456.704-8.912.704-13.369-.704-2.11-.703-2.11-.703-1.876-3.049 0-.234 0-.703.234-.938.704-2.345.704-2.345 3.05-1.642 3.518 1.173 7.036 1.407 10.789.235 1.407-.47 2.345-1.173 2.58-2.58.234-1.642-.235-3.05-1.642-3.753-2.346-1.407-4.926-2.346-7.271-3.518-1.407-.704-2.815-1.642-3.987-2.58-5.16-4.926-2.815-13.135 4.221-14.777 1.877-.938 3.988-.938 6.099-1.173z" fill="#000"/><path d="M41.75 56.526c2.345.235 4.456.704 6.567.939.938.234 1.407.703 1.173 1.641 0 .235 0 .704-.235.939-.469 2.814-.938 2.814-3.753 2.58-2.345-.235-4.69-.47-7.036-.235-1.876 0-3.05 1.173-3.284 2.58 0 1.642.47 3.05 2.346 3.987 1.876.939 3.753 1.642 5.629 2.58 1.407.704 2.815 1.408 3.987 2.346 4.457 3.284 5.395 9.616 1.877 13.838-1.642 1.877-3.753 2.815-6.099 3.284-4.456.704-8.912.704-13.369-.704-2.11-.703-2.11-.703-1.876-3.049 0-.234 0-.703.234-.938.704-2.345.704-2.345 3.05-1.642 3.518 1.173 7.036 1.407 10.789.235 1.407-.47 2.345-1.173 2.58-2.58.234-1.642-.235-3.05-1.642-3.753-2.346-1.407-4.926-2.346-7.271-3.518-1.407-.704-2.815-1.642-3.987-2.58-5.16-4.926-2.815-13.135 4.221-14.777 1.877-.938 3.988-.938 6.099-1.173z" fill="#E1F6E2"/><path d="M106.719 56.526c2.111.235 4.457.704 6.568.939.938.234 1.407.703 1.172 1.641 0 .47 0 .939-.234 1.173-.469 2.58-.938 2.815-3.518 2.346-2.346-.235-4.926-.47-7.271-.235-1.877 0-3.05 1.173-3.284 2.58-.235 1.642.234 3.05 2.111 3.987 1.642.939 3.518 1.642 5.16 2.346 1.642.704 3.049 1.642 4.456 2.58 4.457 3.284 5.395 9.616 1.877 13.838-1.642 1.877-3.753 2.815-6.099 3.284-4.456.704-8.912.704-13.134-.704-2.111-.703-2.346-.938-1.877-3.283v-.235c.704-2.814.704-2.814 3.519-2.11 3.518 1.172 6.801 1.172 10.32.234 1.407-.47 2.58-1.173 2.814-2.815.235-1.642-.234-3.049-1.642-3.753-2.345-1.407-4.925-2.345-7.271-3.518-2.11-.938-3.752-2.11-5.16-4.222-3.283-5.394-.703-11.727 5.63-13.369 1.641-.47 3.752-.47 5.863-.704z" fill="#000"/><path d="M106.719 56.526c2.111.235 4.457.704 6.568.939.938.234 1.407.703 1.172 1.641 0 .47 0 .939-.234 1.173-.469 2.58-.938 2.815-3.518 2.346-2.346-.235-4.926-.47-7.271-.235-1.877 0-3.05 1.173-3.284 2.58-.235 1.642.234 3.05 2.111 3.987 1.642.939 3.518 1.642 5.16 2.346 1.642.704 3.049 1.642 4.456 2.58 4.457 3.284 5.395 9.616 1.877 13.838-1.642 1.877-3.753 2.815-6.099 3.284-4.456.704-8.912.704-13.134-.704-2.111-.703-2.346-.938-1.877-3.283v-.235c.704-2.814.704-2.814 3.519-2.11 3.518 1.172 6.801 1.172 10.32.234 1.407-.47 2.58-1.173 2.814-2.815.235-1.642-.234-3.049-1.642-3.753-2.345-1.407-4.925-2.345-7.271-3.518-2.11-.938-3.752-2.11-5.16-4.222-3.283-5.394-.703-11.727 5.63-13.369 1.641-.47 3.752-.47 5.863-.704z" fill="#E1F6E2"/></svg>