<svg width="308" height="136" viewBox="0 0 308 136" fill="none" xmlns="http://www.w3.org/2000/svg">
<path d="M0.5 135C0.5 135 61.896 122.937 98 106.5C130.645 91.6378 143.195 72.5057 176 58C215.068 40.7249 249.884 59.1664 282 31C293.579 20.8451 307 0.5 307 0.5" stroke="black"/>
<path d="M0.5 135C0.5 135 61.896 122.937 98 106.5C130.645 91.6378 143.195 72.5057 176 58C215.068 40.7249 249.884 59.1664 282 31C293.579 20.8451 307 0.5 307 0.5" stroke="url(#paint0_linear_201_2)"/>
<path d="M0.5 135C0.5 135 61.896 122.937 98 106.5C130.645 91.6378 143.195 72.5057 176 58C215.068 40.7249 249.884 59.1664 282 31C293.579 20.8451 307 0.5 307 0.5" stroke="url(#paint1_linear_201_2)"/>
<circle cx="88" cy="110" r="6" fill="#C4C4C4"/>
<circle cx="88" cy="110" r="6" fill="url(#paint2_linear_201_2)"/>
<circle cx="88" cy="110" r="6" fill="url(#paint3_linear_201_2)"/>
<circle cx="154" cy="70" r="6" fill="#C4C4C4"/>
<circle cx="154" cy="70" r="6" fill="url(#paint4_linear_201_2)"/>
<circle cx="154" cy="70" r="6" fill="url(#paint5_linear_201_2)"/>
<circle cx="232" cy="48" r="6" fill="#C4C4C4"/>
<circle cx="232" cy="48" r="6" fill="url(#paint6_linear_201_2)"/>
<circle cx="232" cy="48" r="6" fill="url(#paint7_linear_201_2)"/>
<defs>
<linearGradient id="paint0_linear_201_2" x1="0.5" y1="0.5" x2="225.752" y2="218.825" gradientUnits="userSpaceOnUse">
<stop stop-color="#FC5997"/>
<stop offset="1" stop-color="#9046B3"/>
</linearGradient>
<linearGradient id="paint1_linear_201_2" x1="0.5" y1="0.5" x2="203.426" y2="227.564" gradientUnits="userSpaceOnUse">
<stop stop-color="#AFE11E"/>
<stop offset="1" stop-color="#4DB856"/>
</linearGradient>
<linearGradient id="paint2_linear_201_2" x1="82" y1="104" x2="96.4838" y2="110.16" gradientUnits="userSpaceOnUse">
<stop stop-color="#FC5997"/>
<stop offset="1" stop-color="#9046B3"/>
</linearGradient>
<linearGradient id="paint3_linear_201_2" x1="82" y1="104" x2="96.4164" y2="111.079" gradientUnits="userSpaceOnUse">
<stop stop-color="#AFE11E"/>
<stop offset="1" stop-color="#4DB856"/>
</linearGradient>
<linearGradient id="paint4_linear_201_2" x1="148" y1="64" x2="162.484" y2="70.1604" gradientUnits="userSpaceOnUse">
<stop stop-color="#FC5997"/>
<stop offset="1" stop-color="#9046B3"/>
</linearGradient>
<linearGradient id="paint5_linear_201_2" x1="148" y1="64" x2="162.416" y2="71.0788" gradientUnits="userSpaceOnUse">
<stop stop-color="#AFE11E"/>
<stop offset="1" stop-color="#4DB856"/>
</linearGradient>
<linearGradient id="paint6_linear_201_2" x1="226" y1="42" x2="240.484" y2="48.1604" gradientUnits="userSpaceOnUse">
<stop stop-color="#FC5997"/>
<stop offset="1" stop-color="#9046B3"/>
</linearGradient>
<linearGradient id="paint7_linear_201_2" x1="226" y1="42" x2="240.416" y2="49.0788" gradientUnits="userSpaceOnUse">
<stop stop-color="#AFE11E"/>
<stop offset="1" stop-color="#4DB856"/>
</linearGradient>
</defs>
</svg>
