<svg width="148" height="148" fill="none" xmlns="http://www.w3.org/2000/svg"><path d="M115.316 98.683h-18.5c-8.633 0-16.033-6.166-17.883-14.8-2.467-11.1 6.167-22.2 17.267-22.2h32.683c2.467 0 4.933 1.85 4.933 4.934v27.75c0 3.083-1.85 4.933-4.933 4.933h-4.317v3.083c0 4.317 0 9.25-.616 13.567-.617 6.783-6.784 11.1-12.95 11.717H37c-11.1 0-20.967-7.4-22.817-18.5-.617-1.234-.617-3.084-.617-4.317V35.783C13.566 20.983 24.05 10.5 37 10.5h8.633c3.083 0 4.933 1.85 4.933 4.317 0 2.466-1.85 4.933-4.933 4.933h-11.1c-6.167 1.233-11.1 7.4-11.717 13.567V103c0 7.4 6.167 13.567 14.184 13.567h74c2.466 0 4.316-1.85 4.316-4.317.617-4.317 0-8.633 0-13.567zm9.25-27.75H96.2c-2.467 0-4.934 1.234-6.167 3.084-2.467 3.083-3.083 6.166-1.233 9.866 1.85 3.7 4.316 5.55 8.633 5.55h27.75c-.617-6.166-.617-12.333-.617-18.5z" fill="#000"/><path d="M115.316 98.683h-18.5c-8.633 0-16.033-6.166-17.883-14.8-2.467-11.1 6.167-22.2 17.267-22.2h32.683c2.467 0 4.933 1.85 4.933 4.934v27.75c0 3.083-1.85 4.933-4.933 4.933h-4.317v3.083c0 4.317 0 9.25-.616 13.567-.617 6.783-6.784 11.1-12.95 11.717H37c-11.1 0-20.967-7.4-22.817-18.5-.617-1.234-.617-3.084-.617-4.317V35.783C13.566 20.983 24.05 10.5 37 10.5h8.633c3.083 0 4.933 1.85 4.933 4.317 0 2.466-1.85 4.933-4.933 4.933h-11.1c-6.167 1.233-11.1 7.4-11.717 13.567V103c0 7.4 6.167 13.567 14.184 13.567h74c2.466 0 4.316-1.85 4.316-4.317.617-4.317 0-8.633 0-13.567zm9.25-27.75H96.2c-2.467 0-4.934 1.234-6.167 3.084-2.467 3.083-3.083 6.166-1.233 9.866 1.85 3.7 4.316 5.55 8.633 5.55h27.75c-.617-6.166-.617-12.333-.617-18.5z" fill="#E1F6E2"/><path d="M74 38.25H37.617c-2.467 0-4.317-1.233-4.933-3.083-1.234-2.467 0-4.934 3.083-6.167l11.1-3.7C62.9 19.133 78.317 12.967 94.35 6.8c3.7-1.233 6.167-.617 7.4 3.083 2.467 6.167 4.934 11.717 7.4 17.884C109.15 29 109.767 29 111 29c8.017 0 14.184 6.167 14.184 14.183V47.5c0 2.467-1.85 4.317-4.934 4.317-2.466 0-4.316-1.85-4.316-4.317v-3.7c0-3.7-1.85-5.55-5.55-5.55H74zm20.35-21.583C83.867 20.983 73.384 24.683 62.284 29h37c-1.234-3.7-3.084-8.017-4.934-12.333z" fill="#000"/><path d="M74 38.25H37.617c-2.467 0-4.317-1.233-4.933-3.083-1.234-2.467 0-4.934 3.083-6.167l11.1-3.7C62.9 19.133 78.317 12.967 94.35 6.8c3.7-1.233 6.167-.617 7.4 3.083 2.467 6.167 4.934 11.717 7.4 17.884C109.15 29 109.767 29 111 29c8.017 0 14.184 6.167 14.184 14.183V47.5c0 2.467-1.85 4.317-4.934 4.317-2.466 0-4.316-1.85-4.316-4.317v-3.7c0-3.7-1.85-5.55-5.55-5.55H74zm20.35-21.583C83.867 20.983 73.384 24.683 62.284 29h37c-1.234-3.7-3.084-8.017-4.934-12.333z" fill="#E1F6E2"/></svg>