<svg width="145" height="128" viewBox="0 0 145 128" fill="none" xmlns="http://www.w3.org/2000/svg">
<path d="M0.5 127C0.5 127 26.9229 114.3 39.5 101C54.266 85.3858 51.4855 68.7921 65.5 52.5C77.5512 38.4902 87.0703 33.1701 102.5 23C118.036 12.7598 144.5 0.5 144.5 0.5" stroke="black"/>
<path d="M0.5 127C0.5 127 26.9229 114.3 39.5 101C54.266 85.3858 51.4855 68.7921 65.5 52.5C77.5512 38.4902 87.0703 33.1701 102.5 23C118.036 12.7598 144.5 0.5 144.5 0.5" stroke="url(#paint0_linear_201_3)"/>
<path d="M0.5 127C0.5 127 26.9229 114.3 39.5 101C54.266 85.3858 51.4855 68.7921 65.5 52.5C77.5512 38.4902 87.0703 33.1701 102.5 23C118.036 12.7598 144.5 0.5 144.5 0.5" stroke="url(#paint1_linear_201_3)"/>
<circle cx="39" cy="103" r="6" fill="#C4C4C4"/>
<circle cx="39" cy="103" r="6" fill="url(#paint2_linear_201_3)"/>
<circle cx="39" cy="103" r="6" fill="url(#paint3_linear_201_3)"/>
<circle cx="59" cy="61" r="6" fill="#C4C4C4"/>
<circle cx="59" cy="61" r="6" fill="url(#paint4_linear_201_3)"/>
<circle cx="59" cy="61" r="6" fill="url(#paint5_linear_201_3)"/>
<circle cx="97" cy="27" r="6" fill="#C4C4C4"/>
<circle cx="97" cy="27" r="6" fill="url(#paint6_linear_201_3)"/>
<circle cx="97" cy="27" r="6" fill="url(#paint7_linear_201_3)"/>
<defs>
<linearGradient id="paint0_linear_201_3" x1="0.499977" y1="-7.49998" x2="225.752" y2="210.825" gradientUnits="userSpaceOnUse">
<stop stop-color="#FC5997"/>
<stop offset="1" stop-color="#9046B3"/>
</linearGradient>
<linearGradient id="paint1_linear_201_3" x1="0.5" y1="0.5" x2="164.096" y2="91.9419" gradientUnits="userSpaceOnUse">
<stop stop-color="#AFE11E"/>
<stop offset="1" stop-color="#4DB856"/>
</linearGradient>
<linearGradient id="paint2_linear_201_3" x1="33" y1="97" x2="47.4838" y2="103.16" gradientUnits="userSpaceOnUse">
<stop stop-color="#FC5997"/>
<stop offset="1" stop-color="#9046B3"/>
</linearGradient>
<linearGradient id="paint3_linear_201_3" x1="33" y1="97" x2="47.4164" y2="104.079" gradientUnits="userSpaceOnUse">
<stop stop-color="#AFE11E"/>
<stop offset="1" stop-color="#4DB856"/>
</linearGradient>
<linearGradient id="paint4_linear_201_3" x1="53" y1="55" x2="67.4838" y2="61.1604" gradientUnits="userSpaceOnUse">
<stop stop-color="#FC5997"/>
<stop offset="1" stop-color="#9046B3"/>
</linearGradient>
<linearGradient id="paint5_linear_201_3" x1="53" y1="55" x2="67.4164" y2="62.0788" gradientUnits="userSpaceOnUse">
<stop stop-color="#AFE11E"/>
<stop offset="1" stop-color="#4DB856"/>
</linearGradient>
<linearGradient id="paint6_linear_201_3" x1="91" y1="21" x2="105.484" y2="27.1604" gradientUnits="userSpaceOnUse">
<stop stop-color="#FC5997"/>
<stop offset="1" stop-color="#9046B3"/>
</linearGradient>
<linearGradient id="paint7_linear_201_3" x1="91" y1="21" x2="105.416" y2="28.0788" gradientUnits="userSpaceOnUse">
<stop stop-color="#AFE11E"/>
<stop offset="1" stop-color="#4DB856"/>
</linearGradient>
</defs>
</svg>
