<svg width="91" height="90" fill="none" xmlns="http://www.w3.org/2000/svg"><path d="M48.886 14.62c-1.185-3.752-3.258-6.615-6.812-8.195-2.27-1.086-4.738-1.184-7.206-.592-3.06.69-5.628 2.27-7.503 4.837-1.777 2.468-2.863 5.331-2.37 8.688-.69-.593-.69-1.284-.79-1.777-.098-.494-.197-.691-.69-.494-5.035 1.974-9.971 3.85-14.512 6.812-2.37 1.58-2.567 3.554-.691 5.726 3.257 3.949 6.614 7.798 10.662 11.056 4.244 3.456 8.884 6.319 13.92 8.392 1.579.69 1.48.493.493 1.678-.395.494-.79.987-1.086 1.58-1.975 3.257-1.382 6.219 1.777 8.39.888.593 1.184 1.185 1.184 2.173.1 3.159-.987 5.824-3.257 8.095-1.382 1.382-2.567 2.863-3.95 4.245-.591.592-.493.888.297 1.184 3.653 1.284 7.503 2.172 11.353 2.765 4.936.79 9.97 1.382 15.006.888.69-.099 1.184-.099 1.283-.987.197-5.529 2.073-10.662 4.541-15.598 3.752-7.602 5.627-15.697 7.404-23.89.494-2.37.296-4.74 0-7.207-.592-4.245-.888-8.49-1.58-12.636-.592-4.147-.197-8.49-.888-12.637-.296-1.48-.592-2.961-1.382-4.245C62.312-.485 59.647-.88 56.98 1.588c-1.58 1.48-2.863 3.159-4.146 4.837-.494.691-1.086 1.481-1.58 2.27-.987 1.877-2.863 3.357-2.369 5.924zm8.194 8.193c-.099 0 .099 0 0 0 0 2.172.296 4.245.395 6.417.098 1.777-.79 3.06-2.27 4.047-1.68 1.086-2.074.987-3.16-.69-1.086-1.679-2.468-3.357-2.468-5.53 0-2.27-.099-4.54-.099-6.712 0-.395.099-.691.395-.987 1.876-1.481 3.85-2.962 6.022-4.147.889-.493 1.086-.197 1.086.691.099 2.271.099 4.64.099 6.91zM38.718 40.089c-1.679-.099-3.456-.395-4.838-1.382-4.442-3.16-8.885-6.417-13.525-9.379-.592-.394-.592-.69-.296-1.283 1.284-1.876 2.765-3.554 4.64-4.739.79-.493 1.086-.493 1.284.593.296 2.764 1.48 5.035 3.455 6.91 1.974 1.975 4.048 3.85 6.417 5.43 1.48 1.086 2.961 1.876 4.64.197.197-.197.493-.493.888 0 1.283 1.383.987 2.666-.79 3.357-.69.197-1.283.296-1.875.296z" fill="#000"/><path d="M48.886 14.62c-1.185-3.752-3.258-6.615-6.812-8.195-2.27-1.086-4.738-1.184-7.206-.592-3.06.69-5.628 2.27-7.503 4.837-1.777 2.468-2.863 5.331-2.37 8.688-.69-.593-.69-1.284-.79-1.777-.098-.494-.197-.691-.69-.494-5.035 1.974-9.971 3.85-14.512 6.812-2.37 1.58-2.567 3.554-.691 5.726 3.257 3.949 6.614 7.798 10.662 11.056 4.244 3.456 8.884 6.319 13.92 8.392 1.579.69 1.48.493.493 1.678-.395.494-.79.987-1.086 1.58-1.975 3.257-1.382 6.219 1.777 8.39.888.593 1.184 1.185 1.184 2.173.1 3.159-.987 5.824-3.257 8.095-1.382 1.382-2.567 2.863-3.95 4.245-.591.592-.493.888.297 1.184 3.653 1.284 7.503 2.172 11.353 2.765 4.936.79 9.97 1.382 15.006.888.69-.099 1.184-.099 1.283-.987.197-5.529 2.073-10.662 4.541-15.598 3.752-7.602 5.627-15.697 7.404-23.89.494-2.37.296-4.74 0-7.207-.592-4.245-.888-8.49-1.58-12.636-.592-4.147-.197-8.49-.888-12.637-.296-1.48-.592-2.961-1.382-4.245C62.312-.485 59.647-.88 56.98 1.588c-1.58 1.48-2.863 3.159-4.146 4.837-.494.691-1.086 1.481-1.58 2.27-.987 1.877-2.863 3.357-2.369 5.924zm8.194 8.193c-.099 0 .099 0 0 0 0 2.172.296 4.245.395 6.417.098 1.777-.79 3.06-2.27 4.047-1.68 1.086-2.074.987-3.16-.69-1.086-1.679-2.468-3.357-2.468-5.53 0-2.27-.099-4.54-.099-6.712 0-.395.099-.691.395-.987 1.876-1.481 3.85-2.962 6.022-4.147.889-.493 1.086-.197 1.086.691.099 2.271.099 4.64.099 6.91zM38.718 40.089c-1.679-.099-3.456-.395-4.838-1.382-4.442-3.16-8.885-6.417-13.525-9.379-.592-.394-.592-.69-.296-1.283 1.284-1.876 2.765-3.554 4.64-4.739.79-.493 1.086-.493 1.284.593.296 2.764 1.48 5.035 3.455 6.91 1.974 1.975 4.048 3.85 6.417 5.43 1.48 1.086 2.961 1.876 4.64.197.197-.197.493-.493.888 0 1.283 1.383.987 2.666-.79 3.357-.69.197-1.283.296-1.875.296z" fill="url(#paint0_linear_75_183)"/><path d="M48.886 14.62c-1.185-3.752-3.258-6.615-6.812-8.195-2.27-1.086-4.738-1.184-7.206-.592-3.06.69-5.628 2.27-7.503 4.837-1.777 2.468-2.863 5.331-2.37 8.688-.69-.593-.69-1.284-.79-1.777-.098-.494-.197-.691-.69-.494-5.035 1.974-9.971 3.85-14.512 6.812-2.37 1.58-2.567 3.554-.691 5.726 3.257 3.949 6.614 7.798 10.662 11.056 4.244 3.456 8.884 6.319 13.92 8.392 1.579.69 1.48.493.493 1.678-.395.494-.79.987-1.086 1.58-1.975 3.257-1.382 6.219 1.777 8.39.888.593 1.184 1.185 1.184 2.173.1 3.159-.987 5.824-3.257 8.095-1.382 1.382-2.567 2.863-3.95 4.245-.591.592-.493.888.297 1.184 3.653 1.284 7.503 2.172 11.353 2.765 4.936.79 9.97 1.382 15.006.888.69-.099 1.184-.099 1.283-.987.197-5.529 2.073-10.662 4.541-15.598 3.752-7.602 5.627-15.697 7.404-23.89.494-2.37.296-4.74 0-7.207-.592-4.245-.888-8.49-1.58-12.636-.592-4.147-.197-8.49-.888-12.637-.296-1.48-.592-2.961-1.382-4.245C62.312-.485 59.647-.88 56.98 1.588c-1.58 1.48-2.863 3.159-4.146 4.837-.494.691-1.086 1.481-1.58 2.27-.987 1.877-2.863 3.357-2.369 5.924zm8.194 8.193c-.099 0 .099 0 0 0 0 2.172.296 4.245.395 6.417.098 1.777-.79 3.06-2.27 4.047-1.68 1.086-2.074.987-3.16-.69-1.086-1.679-2.468-3.357-2.468-5.53 0-2.27-.099-4.54-.099-6.712 0-.395.099-.691.395-.987 1.876-1.481 3.85-2.962 6.022-4.147.889-.493 1.086-.197 1.086.691.099 2.271.099 4.64.099 6.91zM38.718 40.089c-1.679-.099-3.456-.395-4.838-1.382-4.442-3.16-8.885-6.417-13.525-9.379-.592-.394-.592-.69-.296-1.283 1.284-1.876 2.765-3.554 4.64-4.739.79-.493 1.086-.493 1.284.593.296 2.764 1.48 5.035 3.455 6.91 1.974 1.975 4.048 3.85 6.417 5.43 1.48 1.086 2.961 1.876 4.64.197.197-.197.493-.493.888 0 1.283 1.383.987 2.666-.79 3.357-.69.197-1.283.296-1.875.296z" fill="url(#paint1_linear_75_183)"/><path d="M48.886 14.62c-1.185-3.752-3.258-6.615-6.812-8.195-2.27-1.086-4.738-1.184-7.206-.592-3.06.69-5.628 2.27-7.503 4.837-1.777 2.468-2.863 5.331-2.37 8.688-.69-.593-.69-1.284-.79-1.777-.098-.494-.197-.691-.69-.494-5.035 1.974-9.971 3.85-14.512 6.812-2.37 1.58-2.567 3.554-.691 5.726 3.257 3.949 6.614 7.798 10.662 11.056 4.244 3.456 8.884 6.319 13.92 8.392 1.579.69 1.48.493.493 1.678-.395.494-.79.987-1.086 1.58-1.975 3.257-1.382 6.219 1.777 8.39.888.593 1.184 1.185 1.184 2.173.1 3.159-.987 5.824-3.257 8.095-1.382 1.382-2.567 2.863-3.95 4.245-.591.592-.493.888.297 1.184 3.653 1.284 7.503 2.172 11.353 2.765 4.936.79 9.97 1.382 15.006.888.69-.099 1.184-.099 1.283-.987.197-5.529 2.073-10.662 4.541-15.598 3.752-7.602 5.627-15.697 7.404-23.89.494-2.37.296-4.74 0-7.207-.592-4.245-.888-8.49-1.58-12.636-.592-4.147-.197-8.49-.888-12.637-.296-1.48-.592-2.961-1.382-4.245C62.312-.485 59.647-.88 56.98 1.588c-1.58 1.48-2.863 3.159-4.146 4.837-.494.691-1.086 1.481-1.58 2.27-.987 1.877-2.863 3.357-2.369 5.924zm8.194 8.193c-.099 0 .099 0 0 0 0 2.172.296 4.245.395 6.417.098 1.777-.79 3.06-2.27 4.047-1.68 1.086-2.074.987-3.16-.69-1.086-1.679-2.468-3.357-2.468-5.53 0-2.27-.099-4.54-.099-6.712 0-.395.099-.691.395-.987 1.876-1.481 3.85-2.962 6.022-4.147.889-.493 1.086-.197 1.086.691.099 2.271.099 4.64.099 6.91zM38.718 40.089c-1.679-.099-3.456-.395-4.838-1.382-4.442-3.16-8.885-6.417-13.525-9.379-.592-.394-.592-.69-.296-1.283 1.284-1.876 2.765-3.554 4.64-4.739.79-.493 1.086-.493 1.284.593.296 2.764 1.48 5.035 3.455 6.91 1.974 1.975 4.048 3.85 6.417 5.43 1.48 1.086 2.961 1.876 4.64.197.197-.197.493-.493.888 0 1.283 1.383.987 2.666-.79 3.357-.69.197-1.283.296-1.875.296z" fill="url(#paint2_linear_75_183)"/><path d="M48.886 14.62c-1.185-3.752-3.258-6.615-6.812-8.195-2.27-1.086-4.738-1.184-7.206-.592-3.06.69-5.628 2.27-7.503 4.837-1.777 2.468-2.863 5.331-2.37 8.688-.69-.593-.69-1.284-.79-1.777-.098-.494-.197-.691-.69-.494-5.035 1.974-9.971 3.85-14.512 6.812-2.37 1.58-2.567 3.554-.691 5.726 3.257 3.949 6.614 7.798 10.662 11.056 4.244 3.456 8.884 6.319 13.92 8.392 1.579.69 1.48.493.493 1.678-.395.494-.79.987-1.086 1.58-1.975 3.257-1.382 6.219 1.777 8.39.888.593 1.184 1.185 1.184 2.173.1 3.159-.987 5.824-3.257 8.095-1.382 1.382-2.567 2.863-3.95 4.245-.591.592-.493.888.297 1.184 3.653 1.284 7.503 2.172 11.353 2.765 4.936.79 9.97 1.382 15.006.888.69-.099 1.184-.099 1.283-.987.197-5.529 2.073-10.662 4.541-15.598 3.752-7.602 5.627-15.697 7.404-23.89.494-2.37.296-4.74 0-7.207-.592-4.245-.888-8.49-1.58-12.636-.592-4.147-.197-8.49-.888-12.637-.296-1.48-.592-2.961-1.382-4.245C62.312-.485 59.647-.88 56.98 1.588c-1.58 1.48-2.863 3.159-4.146 4.837-.494.691-1.086 1.481-1.58 2.27-.987 1.877-2.863 3.357-2.369 5.924zm8.194 8.193c-.099 0 .099 0 0 0 0 2.172.296 4.245.395 6.417.098 1.777-.79 3.06-2.27 4.047-1.68 1.086-2.074.987-3.16-.69-1.086-1.679-2.468-3.357-2.468-5.53 0-2.27-.099-4.54-.099-6.712 0-.395.099-.691.395-.987 1.876-1.481 3.85-2.962 6.022-4.147.889-.493 1.086-.197 1.086.691.099 2.271.099 4.64.099 6.91zM38.718 40.089c-1.679-.099-3.456-.395-4.838-1.382-4.442-3.16-8.885-6.417-13.525-9.379-.592-.394-.592-.69-.296-1.283 1.284-1.876 2.765-3.554 4.64-4.739.79-.493 1.086-.493 1.284.593.296 2.764 1.48 5.035 3.455 6.91 1.974 1.975 4.048 3.85 6.417 5.43 1.48 1.086 2.961 1.876 4.64.197.197-.197.493-.493.888 0 1.283 1.383.987 2.666-.79 3.357-.69.197-1.283.296-1.875.296z" fill="#5CBE4D"/><path d="M48.886 14.62c-1.185-3.752-3.258-6.615-6.812-8.195-2.27-1.086-4.738-1.184-7.206-.592-3.06.69-5.628 2.27-7.503 4.837-1.777 2.468-2.863 5.331-2.37 8.688-.69-.593-.69-1.284-.79-1.777-.098-.494-.197-.691-.69-.494-5.035 1.974-9.971 3.85-14.512 6.812-2.37 1.58-2.567 3.554-.691 5.726 3.257 3.949 6.614 7.798 10.662 11.056 4.244 3.456 8.884 6.319 13.92 8.392 1.579.69 1.48.493.493 1.678-.395.494-.79.987-1.086 1.58-1.975 3.257-1.382 6.219 1.777 8.39.888.593 1.184 1.185 1.184 2.173.1 3.159-.987 5.824-3.257 8.095-1.382 1.382-2.567 2.863-3.95 4.245-.591.592-.493.888.297 1.184 3.653 1.284 7.503 2.172 11.353 2.765 4.936.79 9.97 1.382 15.006.888.69-.099 1.184-.099 1.283-.987.197-5.529 2.073-10.662 4.541-15.598 3.752-7.602 5.627-15.697 7.404-23.89.494-2.37.296-4.74 0-7.207-.592-4.245-.888-8.49-1.58-12.636-.592-4.147-.197-8.49-.888-12.637-.296-1.48-.592-2.961-1.382-4.245C62.312-.485 59.647-.88 56.98 1.588c-1.58 1.48-2.863 3.159-4.146 4.837-.494.691-1.086 1.481-1.58 2.27-.987 1.877-2.863 3.357-2.369 5.924zm8.194 8.193c-.099 0 .099 0 0 0 0 2.172.296 4.245.395 6.417.098 1.777-.79 3.06-2.27 4.047-1.68 1.086-2.074.987-3.16-.69-1.086-1.679-2.468-3.357-2.468-5.53 0-2.27-.099-4.54-.099-6.712 0-.395.099-.691.395-.987 1.876-1.481 3.85-2.962 6.022-4.147.889-.493 1.086-.197 1.086.691.099 2.271.099 4.64.099 6.91zM38.718 40.089c-1.679-.099-3.456-.395-4.838-1.382-4.442-3.16-8.885-6.417-13.525-9.379-.592-.394-.592-.69-.296-1.283 1.284-1.876 2.765-3.554 4.64-4.739.79-.493 1.086-.493 1.284.593.296 2.764 1.48 5.035 3.455 6.91 1.974 1.975 4.048 3.85 6.417 5.43 1.48 1.086 2.961 1.876 4.64.197.197-.197.493-.493.888 0 1.283 1.383.987 2.666-.79 3.357-.69.197-1.283.296-1.875.296z" fill="url(#paint3_linear_75_183)"/><path d="M48.886 14.62c-1.185-3.752-3.258-6.615-6.812-8.195-2.27-1.086-4.738-1.184-7.206-.592-3.06.69-5.628 2.27-7.503 4.837-1.777 2.468-2.863 5.331-2.37 8.688-.69-.593-.69-1.284-.79-1.777-.098-.494-.197-.691-.69-.494-5.035 1.974-9.971 3.85-14.512 6.812-2.37 1.58-2.567 3.554-.691 5.726 3.257 3.949 6.614 7.798 10.662 11.056 4.244 3.456 8.884 6.319 13.92 8.392 1.579.69 1.48.493.493 1.678-.395.494-.79.987-1.086 1.58-1.975 3.257-1.382 6.219 1.777 8.39.888.593 1.184 1.185 1.184 2.173.1 3.159-.987 5.824-3.257 8.095-1.382 1.382-2.567 2.863-3.95 4.245-.591.592-.493.888.297 1.184 3.653 1.284 7.503 2.172 11.353 2.765 4.936.79 9.97 1.382 15.006.888.69-.099 1.184-.099 1.283-.987.197-5.529 2.073-10.662 4.541-15.598 3.752-7.602 5.627-15.697 7.404-23.89.494-2.37.296-4.74 0-7.207-.592-4.245-.888-8.49-1.58-12.636-.592-4.147-.197-8.49-.888-12.637-.296-1.48-.592-2.961-1.382-4.245C62.312-.485 59.647-.88 56.98 1.588c-1.58 1.48-2.863 3.159-4.146 4.837-.494.691-1.086 1.481-1.58 2.27-.987 1.877-2.863 3.357-2.369 5.924zm8.194 8.193c-.099 0 .099 0 0 0 0 2.172.296 4.245.395 6.417.098 1.777-.79 3.06-2.27 4.047-1.68 1.086-2.074.987-3.16-.69-1.086-1.679-2.468-3.357-2.468-5.53 0-2.27-.099-4.54-.099-6.712 0-.395.099-.691.395-.987 1.876-1.481 3.85-2.962 6.022-4.147.889-.493 1.086-.197 1.086.691.099 2.271.099 4.64.099 6.91zM38.718 40.089c-1.679-.099-3.456-.395-4.838-1.382-4.442-3.16-8.885-6.417-13.525-9.379-.592-.394-.592-.69-.296-1.283 1.284-1.876 2.765-3.554 4.64-4.739.79-.493 1.086-.493 1.284.593.296 2.764 1.48 5.035 3.455 6.91 1.974 1.975 4.048 3.85 6.417 5.43 1.48 1.086 2.961 1.876 4.64.197.197-.197.493-.493.888 0 1.283 1.383.987 2.666-.79 3.357-.69.197-1.283.296-1.875.296z" fill="#5CBE4D"/><path d="M43.555 90c4.146-.099 8.194-.494 11.945-2.37.889-.493 1.086-.888.987-1.974-.197-1.086-.592-1.283-1.58-1.283-6.219.592-12.24-.198-18.361-1.382a56.388 56.388 0 01-11.255-3.258c-.592-.296-.987-.198-1.382.395-.296.493-.79.987-1.086 1.48-1.086 1.58-1.48 1.185.395 2.666 3.85 2.863 8.392 4.146 13.031 4.936 2.37.592 4.838.691 7.306.79z" fill="#000"/><path d="M43.555 90c4.146-.099 8.194-.494 11.945-2.37.889-.493 1.086-.888.987-1.974-.197-1.086-.592-1.283-1.58-1.283-6.219.592-12.24-.198-18.361-1.382a56.388 56.388 0 01-11.255-3.258c-.592-.296-.987-.198-1.382.395-.296.493-.79.987-1.086 1.48-1.086 1.58-1.48 1.185.395 2.666 3.85 2.863 8.392 4.146 13.031 4.936 2.37.592 4.838.691 7.306.79z" fill="url(#paint4_linear_75_183)"/><path d="M43.555 90c4.146-.099 8.194-.494 11.945-2.37.889-.493 1.086-.888.987-1.974-.197-1.086-.592-1.283-1.58-1.283-6.219.592-12.24-.198-18.361-1.382a56.388 56.388 0 01-11.255-3.258c-.592-.296-.987-.198-1.382.395-.296.493-.79.987-1.086 1.48-1.086 1.58-1.48 1.185.395 2.666 3.85 2.863 8.392 4.146 13.031 4.936 2.37.592 4.838.691 7.306.79z" fill="url(#paint5_linear_75_183)"/><path d="M43.555 90c4.146-.099 8.194-.494 11.945-2.37.889-.493 1.086-.888.987-1.974-.197-1.086-.592-1.283-1.58-1.283-6.219.592-12.24-.198-18.361-1.382a56.388 56.388 0 01-11.255-3.258c-.592-.296-.987-.198-1.382.395-.296.493-.79.987-1.086 1.48-1.086 1.58-1.48 1.185.395 2.666 3.85 2.863 8.392 4.146 13.031 4.936 2.37.592 4.838.691 7.306.79z" fill="url(#paint6_linear_75_183)"/><path d="M88.255 55.41l-1.545-3.09s-7.062 3.51-11.847 5.234C70.157 59.25 62.5 61.077 62.5 61.077l-1.667 3.93s8.792-2.041 14.03-3.93c5.341-1.927 13.392-5.666 13.392-5.666z" fill="url(#paint7_linear_75_183)"/><path d="M88.255 55.41l-1.545-3.09s-7.062 3.51-11.847 5.234C70.157 59.25 62.5 61.077 62.5 61.077l-1.667 3.93s8.792-2.041 14.03-3.93c5.341-1.927 13.392-5.666 13.392-5.666z" fill="url(#paint8_linear_75_183)"/><path d="M88.255 55.41l-1.545-3.09s-7.062 3.51-11.847 5.234C70.157 59.25 62.5 61.077 62.5 61.077l-1.667 3.93s8.792-2.041 14.03-3.93c5.341-1.927 13.392-5.666 13.392-5.666z" fill="#D7E9FF"/><path d="M88.255 55.41l-1.545-3.09s-7.062 3.51-11.847 5.234C70.157 59.25 62.5 61.077 62.5 61.077l-1.667 3.93s8.792-2.041 14.03-3.93c5.341-1.927 13.392-5.666 13.392-5.666z" fill="url(#paint9_linear_75_183)"/><path d="M88.255 55.41l-1.545-3.09s-7.062 3.51-11.847 5.234C70.157 59.25 62.5 61.077 62.5 61.077l-1.667 3.93s8.792-2.041 14.03-3.93c5.341-1.927 13.392-5.666 13.392-5.666z" fill="url(#paint10_linear_75_183)"/><path d="M88.255 55.41l-1.545-3.09s-7.062 3.51-11.847 5.234C70.157 59.25 62.5 61.077 62.5 61.077l-1.667 3.93s8.792-2.041 14.03-3.93c5.341-1.927 13.392-5.666 13.392-5.666z" fill="#B4E417"/><path d="M88.255 55.41l-1.545-3.09s-7.062 3.51-11.847 5.234C70.157 59.25 62.5 61.077 62.5 61.077l-1.667 3.93s8.792-2.041 14.03-3.93c5.341-1.927 13.392-5.666 13.392-5.666z" fill="#DDEAFE"/><path d="M88.255 55.41l-1.545-3.09s-7.062 3.51-11.847 5.234C70.157 59.25 62.5 61.077 62.5 61.077l-1.667 3.93s8.792-2.041 14.03-3.93c5.341-1.927 13.392-5.666 13.392-5.666z" fill="#B4E417"/><path d="M58.895 71.12l-1.288 3.091s4.62 1.947 4.378 4.121c-.257 2.318-3.87 2.564-6.696 2.833-5.408.515-8.524.234-13.907-.515-6.282-.874-9.951-1.463-15.71-4.12-3.349-1.546-5.666-2.834-5.666-4.379 0-1.545 2.811-2.31 3.605-2.575 3.09-1.03 9.014-1.288 9.014-1.288l1.288-3.348v-2.576s-1.569-.934-2.318-1.802c-.474-.55-.415-1.161-1.03-1.546-5.104-3.188-8.413-4.963-13.135-9.014-5.187-4.449-11.847-12.877-11.847-12.877l-2.833 2.06s5.768 7.43 8.241 9.787c3.264 3.11 6.963 5.757 9.015 7.211 2.844 2.018 13.907 8.757 13.907 8.757s-8.241.257-11.847 1.545c-5.666 2.024-5.619 4.718-5.666 6.181-.1 3.09 6.37 6.419 9.529 7.727 5.433 2.248 9.075 2.912 14.938 3.605 8.405.993 14.758 1.08 21.376-1.288 1.82-.65 2.556-1.469 3.09-3.09.79-2.396-1.802-5.151-2.575-5.924-1.48-1.48-3.863-2.575-3.863-2.575z" fill="url(#paint11_linear_75_183)"/><path d="M58.895 71.12l-1.288 3.091s4.62 1.947 4.378 4.121c-.257 2.318-3.87 2.564-6.696 2.833-5.408.515-8.524.234-13.907-.515-6.282-.874-9.951-1.463-15.71-4.12-3.349-1.546-5.666-2.834-5.666-4.379 0-1.545 2.811-2.31 3.605-2.575 3.09-1.03 9.014-1.288 9.014-1.288l1.288-3.348v-2.576s-1.569-.934-2.318-1.802c-.474-.55-.415-1.161-1.03-1.546-5.104-3.188-8.413-4.963-13.135-9.014-5.187-4.449-11.847-12.877-11.847-12.877l-2.833 2.06s5.768 7.43 8.241 9.787c3.264 3.11 6.963 5.757 9.015 7.211 2.844 2.018 13.907 8.757 13.907 8.757s-8.241.257-11.847 1.545c-5.666 2.024-5.619 4.718-5.666 6.181-.1 3.09 6.37 6.419 9.529 7.727 5.433 2.248 9.075 2.912 14.938 3.605 8.405.993 14.758 1.08 21.376-1.288 1.82-.65 2.556-1.469 3.09-3.09.79-2.396-1.802-5.151-2.575-5.924-1.48-1.48-3.863-2.575-3.863-2.575z" fill="url(#paint12_linear_75_183)"/><path d="M58.895 71.12l-1.288 3.091s4.62 1.947 4.378 4.121c-.257 2.318-3.87 2.564-6.696 2.833-5.408.515-8.524.234-13.907-.515-6.282-.874-9.951-1.463-15.71-4.12-3.349-1.546-5.666-2.834-5.666-4.379 0-1.545 2.811-2.31 3.605-2.575 3.09-1.03 9.014-1.288 9.014-1.288l1.288-3.348v-2.576s-1.569-.934-2.318-1.802c-.474-.55-.415-1.161-1.03-1.546-5.104-3.188-8.413-4.963-13.135-9.014-5.187-4.449-11.847-12.877-11.847-12.877l-2.833 2.06s5.768 7.43 8.241 9.787c3.264 3.11 6.963 5.757 9.015 7.211 2.844 2.018 13.907 8.757 13.907 8.757s-8.241.257-11.847 1.545c-5.666 2.024-5.619 4.718-5.666 6.181-.1 3.09 6.37 6.419 9.529 7.727 5.433 2.248 9.075 2.912 14.938 3.605 8.405.993 14.758 1.08 21.376-1.288 1.82-.65 2.556-1.469 3.09-3.09.79-2.396-1.802-5.151-2.575-5.924-1.48-1.48-3.863-2.575-3.863-2.575z" fill="url(#paint13_linear_75_183)"/><path d="M58.895 71.12l-1.288 3.091s4.62 1.947 4.378 4.121c-.257 2.318-3.87 2.564-6.696 2.833-5.408.515-8.524.234-13.907-.515-6.282-.874-9.951-1.463-15.71-4.12-3.349-1.546-5.666-2.834-5.666-4.379 0-1.545 2.811-2.31 3.605-2.575 3.09-1.03 9.014-1.288 9.014-1.288l1.288-3.348v-2.576s-1.569-.934-2.318-1.802c-.474-.55-.415-1.161-1.03-1.546-5.104-3.188-8.413-4.963-13.135-9.014-5.187-4.449-11.847-12.877-11.847-12.877l-2.833 2.06s5.768 7.43 8.241 9.787c3.264 3.11 6.963 5.757 9.015 7.211 2.844 2.018 13.907 8.757 13.907 8.757s-8.241.257-11.847 1.545c-5.666 2.024-5.619 4.718-5.666 6.181-.1 3.09 6.37 6.419 9.529 7.727 5.433 2.248 9.075 2.912 14.938 3.605 8.405.993 14.758 1.08 21.376-1.288 1.82-.65 2.556-1.469 3.09-3.09.79-2.396-1.802-5.151-2.575-5.924-1.48-1.48-3.863-2.575-3.863-2.575z" fill="url(#paint14_linear_75_183)"/><path d="M58.895 71.12l-1.288 3.091s4.62 1.947 4.378 4.121c-.257 2.318-3.87 2.564-6.696 2.833-5.408.515-8.524.234-13.907-.515-6.282-.874-9.951-1.463-15.71-4.12-3.349-1.546-5.666-2.834-5.666-4.379 0-1.545 2.811-2.31 3.605-2.575 3.09-1.03 9.014-1.288 9.014-1.288l1.288-3.348v-2.576s-1.569-.934-2.318-1.802c-.474-.55-.415-1.161-1.03-1.546-5.104-3.188-8.413-4.963-13.135-9.014-5.187-4.449-11.847-12.877-11.847-12.877l-2.833 2.06s5.768 7.43 8.241 9.787c3.264 3.11 6.963 5.757 9.015 7.211 2.844 2.018 13.907 8.757 13.907 8.757s-8.241.257-11.847 1.545c-5.666 2.024-5.619 4.718-5.666 6.181-.1 3.09 6.37 6.419 9.529 7.727 5.433 2.248 9.075 2.912 14.938 3.605 8.405.993 14.758 1.08 21.376-1.288 1.82-.65 2.556-1.469 3.09-3.09.79-2.396-1.802-5.151-2.575-5.924-1.48-1.48-3.863-2.575-3.863-2.575z" fill="#DDEAFE"/><path d="M58.895 71.12l-1.288 3.091s4.62 1.947 4.378 4.121c-.257 2.318-3.87 2.564-6.696 2.833-5.408.515-8.524.234-13.907-.515-6.282-.874-9.951-1.463-15.71-4.12-3.349-1.546-5.666-2.834-5.666-4.379 0-1.545 2.811-2.31 3.605-2.575 3.09-1.03 9.014-1.288 9.014-1.288l1.288-3.348v-2.576s-1.569-.934-2.318-1.802c-.474-.55-.415-1.161-1.03-1.546-5.104-3.188-8.413-4.963-13.135-9.014-5.187-4.449-11.847-12.877-11.847-12.877l-2.833 2.06s5.768 7.43 8.241 9.787c3.264 3.11 6.963 5.757 9.015 7.211 2.844 2.018 13.907 8.757 13.907 8.757s-8.241.257-11.847 1.545c-5.666 2.024-5.619 4.718-5.666 6.181-.1 3.09 6.37 6.419 9.529 7.727 5.433 2.248 9.075 2.912 14.938 3.605 8.405.993 14.758 1.08 21.376-1.288 1.82-.65 2.556-1.469 3.09-3.09.79-2.396-1.802-5.151-2.575-5.924-1.48-1.48-3.863-2.575-3.863-2.575z" fill="#B4E417"/><defs><linearGradient id="paint0_linear_75_183" x1="68.24" y1="0" x2="-10.678" y2="25.594" gradientUnits="userSpaceOnUse"><stop stop-color="#FC5997"/><stop offset="1" stop-color="#9046B3"/></linearGradient><linearGradient id="paint1_linear_75_183" x1="7.048" y1="0" x2="87.069" y2="29.96" gradientUnits="userSpaceOnUse"><stop stop-color="#B0E532"/><stop offset=".427" stop-color="#35A004"/><stop offset="1" stop-color="#61CF0C"/></linearGradient><linearGradient id="paint2_linear_75_183" x1="7.048" y1="0" x2="87.069" y2="29.96" gradientUnits="userSpaceOnUse"><stop stop-color="#AFE11E"/><stop offset="1" stop-color="#4DB856"/></linearGradient><linearGradient id="paint3_linear_75_183" x1="7.048" y1="0" x2="87.069" y2="29.96" gradientUnits="userSpaceOnUse"><stop stop-color="#AFE11E"/><stop offset="1" stop-color="#4DB856"/></linearGradient><linearGradient id="paint4_linear_75_183" x1="56.51" y1="79.571" x2="40.024" y2="102.836" gradientUnits="userSpaceOnUse"><stop stop-color="#FC5997"/><stop offset="1" stop-color="#9046B3"/></linearGradient><linearGradient id="paint5_linear_75_183" x1="21.91" y1="79.571" x2="36.029" y2="102.572" gradientUnits="userSpaceOnUse"><stop stop-color="#B0E532"/><stop offset=".427" stop-color="#35A004"/><stop offset="1" stop-color="#61CF0C"/></linearGradient><linearGradient id="paint6_linear_75_183" x1="21.91" y1="79.571" x2="36.029" y2="102.572" gradientUnits="userSpaceOnUse"><stop stop-color="#AFE11E"/><stop offset="1" stop-color="#4DB856"/></linearGradient><linearGradient id="paint7_linear_75_183" x1="88.255" y1="37.125" x2="11.248" y2="95.904" gradientUnits="userSpaceOnUse"><stop stop-color="#FC5997"/><stop offset="1" stop-color="#9046B3"/></linearGradient><linearGradient id="paint8_linear_75_183" x1="88.255" y1="37.125" x2="11.29" y2="95.915" gradientUnits="userSpaceOnUse"><stop stop-color="#FC5997"/><stop offset="1" stop-color="#9046B3"/></linearGradient><linearGradient id="paint9_linear_75_183" x1="60.833" y1="52.32" x2="80.062" y2="72.727" gradientUnits="userSpaceOnUse"><stop stop-color="#B0E532"/><stop offset=".427" stop-color="#35A004"/><stop offset="1" stop-color="#61CF0C"/></linearGradient><linearGradient id="paint10_linear_75_183" x1="60.833" y1="52.32" x2="80.062" y2="72.727" gradientUnits="userSpaceOnUse"><stop stop-color="#AFE11E"/><stop offset="1" stop-color="#4DB856"/></linearGradient><linearGradient id="paint11_linear_75_183" x1="88.255" y1="37.125" x2="11.248" y2="95.904" gradientUnits="userSpaceOnUse"><stop stop-color="#FC5997"/><stop offset="1" stop-color="#9046B3"/></linearGradient><linearGradient id="paint12_linear_75_183" x1="88.255" y1="37.125" x2="11.29" y2="95.915" gradientUnits="userSpaceOnUse"><stop stop-color="#FC5997"/><stop offset="1" stop-color="#9046B3"/></linearGradient><linearGradient id="paint13_linear_75_183" x1="2.75" y1="37.125" x2="68.62" y2="79.812" gradientUnits="userSpaceOnUse"><stop stop-color="#B0E532"/><stop offset=".427" stop-color="#35A004"/><stop offset="1" stop-color="#61CF0C"/></linearGradient><linearGradient id="paint14_linear_75_183" x1="2.75" y1="37.125" x2="68.62" y2="79.812" gradientUnits="userSpaceOnUse"><stop stop-color="#AFE11E"/><stop offset="1" stop-color="#4DB856"/></linearGradient></defs></svg>