<?xml version="1.0" encoding="utf-8"?><svg viewBox="0 0 30 20" xmlns="http://www.w3.org/2000/svg" xmlns:xlink="http://www.w3.org/1999/xlink"><style>:root>svg{display:none}:root>svg:target{display:block}</style><svg fill="none" viewBox="0 0 28 18" id="icon-arrow-back" xmlns="http://www.w3.org/2000/svg"><path fill-rule="evenodd" clip-rule="evenodd" d="M27.125 9a.938.938 0 00-.938-.937H4.076l5.9-5.9A.939.939 0 108.65.837l-7.5 7.5a.937.937 0 000 1.328l7.5 7.5a.939.939 0 001.327-1.328l-5.9-5.898h22.111A.938.938 0 0027.125 9z" fill="currentColor"/></svg><svg fill="none" viewBox="0 0 20 20" id="icon-card" xmlns="http://www.w3.org/2000/svg"><g clip-path="url(#bclip0_183_154)"><path d="M20 7.952v7.017c-.01.02-.026.047-.031.068-.208 1.107-1.066 1.84-2.183 1.84-5.177.005-10.354.005-15.536 0-1.252 0-2.203-.957-2.209-2.215-.005-2.178 0-4.35 0-6.528 0-.244.052-.301.297-.301 6.455 0 12.915 0 19.37.005.094 0 .193.078.292.114zM5.03 12.832c.057-.732-.25-.95-.925-.95-.733 0-.957.239-.957.95 0 .697.234.947.946.947.712-.005.988-.255.936-.946z" fill="#000"/><path d="M20 7.952v7.017c-.01.02-.026.047-.031.068-.208 1.107-1.066 1.84-2.183 1.84-5.177.005-10.354.005-15.536 0-1.252 0-2.203-.957-2.209-2.215-.005-2.178 0-4.35 0-6.528 0-.244.052-.301.297-.301 6.455 0 12.915 0 19.37.005.094 0 .193.078.292.114zM5.03 12.832c.057-.732-.25-.95-.925-.95-.733 0-.957.239-.957.95 0 .697.234.947.946.947.712-.005.988-.255.936-.946z" fill="url(#bpaint0_linear_183_154)"/><path d="M20 6.471c-.1.036-.193.114-.292.114-6.455.006-12.916.006-19.37.006-.24 0-.302-.058-.292-.302C.062 5.79.03 5.281.129 4.797c.192-.946 1.06-1.606 2.027-1.637h15.458c1.304 0 2.068.608 2.37 1.876.005.01.015.021.02.032C20 5.535 20 6.003 20 6.47z" fill="#000"/><path d="M20 6.471c-.1.036-.193.114-.292.114-6.455.006-12.916.006-19.37.006-.24 0-.302-.058-.292-.302C.062 5.79.03 5.281.129 4.797c.192-.946 1.06-1.606 2.027-1.637h15.458c1.304 0 2.068.608 2.37 1.876.005.01.015.021.02.032C20 5.535 20 6.003 20 6.47z" fill="url(#bpaint1_linear_183_154)"/></g><defs><linearGradient id="bpaint0_linear_183_154" x1=".039" y1="7.833" x2="13.732" y2="22.666" gradientUnits="userSpaceOnUse"><stop stop-color="#AFE11E"/><stop offset="1" stop-color="#4DB856"/></linearGradient><linearGradient id="bpaint1_linear_183_154" x1=".045" y1="3.16" x2="3.293" y2="12.44" gradientUnits="userSpaceOnUse"><stop stop-color="#AFE11E"/><stop offset="1" stop-color="#4DB856"/></linearGradient><clipPath id="bclip0_183_154"><path fill="#fff" d="M0 0h20v20H0z"/></clipPath></defs></svg><svg fill="none" viewBox="0 0 16 16" id="icon-close" xmlns="http://www.w3.org/2000/svg"><path fill-rule="evenodd" clip-rule="evenodd" d="M13.854 2.146a.5.5 0 010 .708l-11 11a.5.5 0 01-.708-.708l11-11a.5.5 0 01.708 0z" fill="#000"/><path fill-rule="evenodd" clip-rule="evenodd" d="M2.146 2.146a.5.5 0 000 .708l11 11a.5.5 0 00.708-.708l-11-11a.5.5 0 00-.708 0z" fill="#000"/></svg><svg fill="none" viewBox="0 0 30 11" id="icon-dropdown" xmlns="http://www.w3.org/2000/svg"><path fill-rule="evenodd" clip-rule="evenodd" d="M29.565 1.353a.87.87 0 00-1.189-.318L14.9 8.816 1.624 1.151a.87.87 0 00-.87 1.507l13.693 7.906a.865.865 0 00.46.117.865.865 0 00.445-.117l13.895-8.022a.87.87 0 00.318-1.189z" fill="#9046B3"/><path fill-rule="evenodd" clip-rule="evenodd" d="M29.565 1.353a.87.87 0 00-1.189-.318L14.9 8.816 1.624 1.151a.87.87 0 00-.87 1.507l13.693 7.906a.865.865 0 00.46.117.865.865 0 00.445-.117l13.895-8.022a.87.87 0 00.318-1.189z" fill="url(#dpaint0_linear_75_165)"/><path fill-rule="evenodd" clip-rule="evenodd" d="M29.565 1.353a.87.87 0 00-1.189-.318L14.9 8.816 1.624 1.151a.87.87 0 00-.87 1.507l13.693 7.906a.865.865 0 00.46.117.865.865 0 00.445-.117l13.895-8.022a.87.87 0 00.318-1.189z" fill="url(#dpaint1_linear_75_165)"/><path fill-rule="evenodd" clip-rule="evenodd" d="M29.565 1.353a.87.87 0 00-1.189-.318L14.9 8.816 1.624 1.151a.87.87 0 00-.87 1.507l13.693 7.906a.865.865 0 00.46.117.865.865 0 00.445-.117l13.895-8.022a.87.87 0 00.318-1.189z" fill="url(#dpaint2_linear_75_165)"/><path fill-rule="evenodd" clip-rule="evenodd" d="M29.565 1.353a.87.87 0 00-1.189-.318L14.9 8.816 1.624 1.151a.87.87 0 00-.87 1.507l13.693 7.906a.865.865 0 00.46.117.865.865 0 00.445-.117l13.895-8.022a.87.87 0 00.318-1.189z" fill="url(#dpaint3_linear_75_165)"/><defs><linearGradient id="dpaint0_linear_75_165" x1=".318" y1=".918" x2="16.192" y2="21.226" gradientUnits="userSpaceOnUse"><stop stop-color="#FC5997"/><stop offset="1" stop-color="#9046B3"/></linearGradient><linearGradient id="dpaint1_linear_75_165" x1=".318" y1=".918" x2="14.081" y2="21.244" gradientUnits="userSpaceOnUse"><stop stop-color="#AFE11E"/><stop offset="1" stop-color="#4DB856"/></linearGradient><linearGradient id="dpaint2_linear_75_165" x1="29.682" y1=".918" x2="13.808" y2="21.226" gradientUnits="userSpaceOnUse"><stop stop-color="#FC5997"/><stop offset="1" stop-color="#9046B3"/></linearGradient><linearGradient id="dpaint3_linear_75_165" x1=".318" y1=".918" x2="14.081" y2="21.244" gradientUnits="userSpaceOnUse"><stop stop-color="#AFE11E"/><stop offset="1" stop-color="#4DB856"/></linearGradient></defs></svg><svg fill="none" viewBox="0 0 20 20" id="icon-lock" xmlns="http://www.w3.org/2000/svg"><path d="M15.4 20H3.604c-.075-.023-.145-.05-.22-.07-.796-.215-1.378-.934-1.378-1.758-.008-2.95-.008-5.895 0-8.844A1.83 1.83 0 013.56 7.54c.304-.047.617-.039.941-.055V7.27c0-.79-.008-1.575.004-2.364C4.529 2.816 5.916.918 7.9.273 8.28.148 8.682.09 9.072 0h.86c.101.016.203.035.304.05 2.524.419 4.262 2.47 4.266 5.032V7.504c.246 0 .457-.004.672 0 .996.023 1.82.828 1.82 1.824.012 2.95.008 5.895 0 8.844 0 .77-.504 1.45-1.23 1.71-.117.044-.242.079-.364.118zM12.83 7.488c0-.648.004-1.285-.004-1.922-.004-.382.004-.77-.05-1.148-.262-1.738-2.02-3.004-3.755-2.715-1.695.281-2.843 1.625-2.851 3.34-.004.644 0 1.289 0 1.934v.511h6.66z" fill="#000"/><path d="M15.4 20H3.604c-.075-.023-.145-.05-.22-.07-.796-.215-1.378-.934-1.378-1.758-.008-2.95-.008-5.895 0-8.844A1.83 1.83 0 013.56 7.54c.304-.047.617-.039.941-.055V7.27c0-.79-.008-1.575.004-2.364C4.529 2.816 5.916.918 7.9.273 8.28.148 8.682.09 9.072 0h.86c.101.016.203.035.304.05 2.524.419 4.262 2.47 4.266 5.032V7.504c.246 0 .457-.004.672 0 .996.023 1.82.828 1.82 1.824.012 2.95.008 5.895 0 8.844 0 .77-.504 1.45-1.23 1.71-.117.044-.242.079-.364.118zM12.83 7.488c0-.648.004-1.285-.004-1.922-.004-.382.004-.77-.05-1.148-.262-1.738-2.02-3.004-3.755-2.715-1.695.281-2.843 1.625-2.851 3.34-.004.644 0 1.289 0 1.934v.511h6.66z" fill="url(#epaint0_linear_183_149)"/><defs><linearGradient id="epaint0_linear_183_149" x1="2" y1="0" x2="21.696" y2="7.254" gradientUnits="userSpaceOnUse"><stop stop-color="#AFE11E"/><stop offset="1" stop-color="#4DB856"/></linearGradient></defs></svg></svg>